SplineFontDB: 3.0
FontName: Gotham-Medium
FullName: Gotham-Medium
FamilyName: Gotham
Weight: Medium
Copyright: HTF Gotham\\252 Copr. 2000 The Hoefler Type Foundry, Inc. Info: www.typography.com
Version: 001.000
ItalicAngle: 0
UnderlinePosition: -143
UnderlineWidth: 20
Ascent: 800
Descent: 200
InvalidEm: 0
sfntRevision: 0x00010000
LayerCount: 2
Layer: 0 1 "Back" 1
Layer: 1 1 "Fore" 0
XUID: [1021 992 457111896 10872506]
StyleMap: 0x0040
FSType: 0
OS2Version: 0
OS2_WeightWidthSlopeOnly: 0
OS2_UseTypoMetrics: 0
CreationTime: 1137916849
ModificationTime: 1500925014
PfmFamily: 17
TTFWeight: 500
TTFWidth: 5
LineGap: 200
VLineGap: 0
Panose: 2 0 6 4 4 0 0 2 0 4
OS2TypoAscent: 769
OS2TypoAOffset: 0
OS2TypoDescent: -231
OS2TypoDOffset: 0
OS2TypoLinegap: 200
OS2WinAscent: 926
OS2WinAOffset: 0
OS2WinDescent: 270
OS2WinDOffset: 0
HheadAscent: 769
HheadAOffset: 0
HheadDescent: -231
HheadDOffset: 0
OS2SubXSize: 204
OS2SubYSize: 204
OS2SubXOff: 0
OS2SubYOff: 286
OS2SupXSize: 204
OS2SupYSize: 204
OS2SupXOff: 0
OS2SupYOff: 286
OS2StrikeYSize: 50
OS2StrikeYPos: 250
OS2CapHeight: 700
OS2XHeight: 516
OS2Vendor: 'pyrs'
OS2UnicodeRanges: 80000027.00000000.00000000.00000000
Lookup: 258 0 0 "'kern' Horizontal Kerning lookup 0" { "'kern' Horizontal Kerning lookup 0 subtable"  } ['kern' ('DFLT' <'dflt' > 'grek' <'dflt' > 'latn' <'dflt' > ) ]
MarkAttachClasses: 1
DEI: 91125
TtTable: prep
PUSHW_1
 0
CALL
SVTCA[y-axis]
PUSHW_3
 1
 2
 2
CALL
SVTCA[x-axis]
PUSHW_3
 3
 2
 2
CALL
PUSHW_7
 3
 46
 38
 29
 22
 14
 8
CALL
PUSHW_7
 4
 42
 38
 29
 22
 14
 8
CALL
PUSHW_7
 1
 54
 44
 34
 22
 14
 8
CALL
PUSHW_7
 2
 50
 38
 29
 22
 14
 8
CALL
SVTCA[y-axis]
PUSHW_3
 5
 4
 7
CALL
PUSHW_1
 0
DUP
RCVT
RDTG
ROUND[Black]
RTG
WCVTP
EndTTInstrs
TtTable: fpgm
PUSHW_1
 0
FDEF
MPPEM
PUSHW_1
 9
LT
IF
PUSHB_2
 1
 1
INSTCTRL
EIF
PUSHW_1
 511
SCANCTRL
PUSHW_1
 68
SCVTCI
PUSHW_2
 9
 3
SDS
SDB
ENDF
PUSHW_1
 1
FDEF
DUP
DUP
RCVT
ROUND[Black]
WCVTP
PUSHB_1
 1
ADD
ENDF
PUSHW_1
 2
FDEF
PUSHW_1
 1
LOOPCALL
POP
ENDF
PUSHW_1
 3
FDEF

StartChar: exclam
Encoding: 33 33 4
Width: 302
Flags: W
LayerCount: 2
Fore
SplineSet
80 700 m 1,0,-1
 80 665 l 1,1,-1
 118 221 l 1,2,-1
 185 221 l 1,3,-1
 222 665 l 1,4,-1
 222 700 l 1,5,-1
 80 700 l 1,0,-1
218 0 m 1,6,-1
 218 137 l 1,7,-1
 85 137 l 1,8,-1
 85 0 l 1,9,-1
 218 0 l 1,6,-1
EndSplineSet
EndChar

StartChar: quotedbl
Encoding: 34 34 5
Width: 487
Flags: W
LayerCount: 2
Fore
SplineSet
279 401 m 1,0,-1
 342 401 l 1,1,-1
 440 695 l 1,2,-1
 440 700 l 1,3,-1
 303 700 l 1,4,-1
 279 401 l 1,0,-1
60 401 m 1,5,-1
 123 401 l 1,6,-1
 220 695 l 1,7,-1
 220 700 l 1,8,-1
 83 700 l 1,9,-1
 60 401 l 1,5,-1
EndSplineSet
EndChar

StartChar: numbersign
Encoding: 35 35 6
Width: 700
Flags: W
LayerCount: 2
Fore
SplineSet
660 439 m 1,0,-1
 660 543 l 1,1,-1
 571 543 l 1,2,-1
 598 700 l 1,3,-1
 491 700 l 1,4,-1
 465 543 l 1,5,-1
 301 543 l 1,6,-1
 328 700 l 1,7,-1
 221 700 l 1,8,-1
 194 543 l 1,9,-1
 76 543 l 1,10,-1
 76 439 l 1,11,-1
 176 439 l 1,12,-1
 147 265 l 1,13,-1
 39 265 l 1,14,-1
 39 161 l 1,15,-1
 129 161 l 1,16,-1
 101 0 l 1,17,-1
 208 0 l 1,18,-1
 235 161 l 1,19,-1
 399 161 l 1,20,-1
 371 0 l 1,21,-1
 478 0 l 1,22,-1
 506 161 l 1,23,-1
 624 161 l 1,24,-1
 624 265 l 1,25,-1
 524 265 l 1,26,-1
 553 439 l 1,27,-1
 660 439 l 1,0,-1
447 439 m 1,28,-1
 417 265 l 1,29,-1
 253 265 l 1,30,-1
 283 439 l 1,31,-1
 447 439 l 1,28,-1
EndSplineSet
EndChar

StartChar: dollar
Encoding: 36 36 7
Width: 642
Flags: W
LayerCount: 2
Fore
SplineSet
585 195 m 0,0,1
 585 276 585 276 533.5 324.5 c 128,-1,2
 482 373 482 373 368 402 c 1,3,-1
 368 592 l 1,4,5
 439 577 439 577 504 528 c 1,6,-1
 560 622 l 1,7,8
 518 653 518 653 472.5 672 c 128,-1,9
 427 691 427 691 372 698 c 1,10,-1
 372 758 l 1,11,-1
 285 758 l 1,12,-1
 285 700 l 1,13,14
 238 696 238 696 199.5 681 c 128,-1,15
 161 666 161 666 133 641 c 128,-1,16
 105 616 105 616 90 582 c 128,-1,17
 75 548 75 548 75 508 c 0,18,19
 75 466 75 466 88 433.5 c 128,-1,20
 101 401 101 401 127.5 376.5 c 128,-1,21
 154 352 154 352 194 334 c 128,-1,22
 234 316 234 316 289 302 c 1,23,-1
 289 106 l 1,24,25
 240 114 240 114 198 135.5 c 128,-1,26
 156 157 156 157 113 192 c 1,27,-1
 49 101 l 1,28,29
 100 60 100 60 159.5 35 c 128,-1,30
 219 10 219 10 285 2 c 1,31,-1
 285 -98 l 1,32,-1
 372 -98 l 1,33,-1
 372 1 l 1,34,35
 420 5 420 5 459 20.5 c 128,-1,36
 498 36 498 36 526 61 c 128,-1,37
 554 86 554 86 569.5 120 c 128,-1,38
 585 154 585 154 585 195 c 0,0,1
289 423 m 1,39,40
 231 440 231 440 212 461.5 c 128,-1,41
 193 483 193 483 193 515 c 0,42,43
 193 548 193 548 217 571.5 c 128,-1,44
 241 595 241 595 289 599 c 1,45,-1
 289 423 l 1,39,40
467 188 m 0,46,47
 467 152 467 152 441.5 129 c 128,-1,48
 416 106 416 106 368 102 c 1,49,-1
 368 283 l 1,50,51
 397 274 397 274 416 264.5 c 128,-1,52
 435 255 435 255 446.5 243.5 c 128,-1,53
 458 232 458 232 462.5 218.5 c 128,-1,54
 467 205 467 205 467 188 c 0,46,47
EndSplineSet
EndChar

StartChar: percent
Encoding: 37 37 8
Width: 849
Flags: W
LayerCount: 2
Fore
SplineSet
378 530 m 0,0,1
 378 566 378 566 366 598.5 c 128,-1,2
 354 631 354 631 332.5 655.5 c 128,-1,3
 311 680 311 680 281 694 c 128,-1,4
 251 708 251 708 214 708 c 256,5,6
 177 708 177 708 146.5 693.5 c 128,-1,7
 116 679 116 679 94 654.5 c 128,-1,8
 72 630 72 630 60 597.5 c 128,-1,9
 48 565 48 565 48 528 c 0,10,11
 48 492 48 492 60 459.5 c 128,-1,12
 72 427 72 427 93.5 402.5 c 128,-1,13
 115 378 115 378 145 364 c 128,-1,14
 175 350 175 350 212 350 c 256,15,16
 249 350 249 350 279.5 364.5 c 128,-1,17
 310 379 310 379 332 403.5 c 128,-1,18
 354 428 354 428 366 460.5 c 128,-1,19
 378 493 378 493 378 530 c 0,0,1
730 700 m 1,20,-1
 631 700 l 1,21,-1
 119 0 l 1,22,-1
 218 0 l 1,23,-1
 730 700 l 1,20,-1
801 172 m 0,24,25
 801 208 801 208 789 240.5 c 128,-1,26
 777 273 777 273 755.5 297.5 c 128,-1,27
 734 322 734 322 704 336 c 128,-1,28
 674 350 674 350 637 350 c 256,29,30
 600 350 600 350 569.5 335.5 c 128,-1,31
 539 321 539 321 517 296.5 c 128,-1,32
 495 272 495 272 483 239.5 c 128,-1,33
 471 207 471 207 471 170 c 0,34,35
 471 134 471 134 483 101.5 c 128,-1,36
 495 69 495 69 516.5 44.5 c 128,-1,37
 538 20 538 20 568 6 c 128,-1,38
 598 -8 598 -8 635 -8 c 256,39,40
 672 -8 672 -8 702.5 6.5 c 128,-1,41
 733 21 733 21 755 45.5 c 128,-1,42
 777 70 777 70 789 102.5 c 128,-1,43
 801 135 801 135 801 172 c 0,24,25
289 528 m 0,44,45
 289 486 289 486 269 456.5 c 128,-1,46
 249 427 249 427 214 427 c 0,47,48
 180 427 180 427 158.5 456.5 c 128,-1,49
 137 486 137 486 137 530 c 0,50,51
 137 572 137 572 157 601.5 c 128,-1,52
 177 631 177 631 212 631 c 0,53,54
 246 631 246 631 267.5 601.5 c 128,-1,55
 289 572 289 572 289 528 c 0,44,45
712 170 m 0,56,57
 712 128 712 128 692 98.5 c 128,-1,58
 672 69 672 69 637 69 c 0,59,60
 603 69 603 69 581.5 98.5 c 128,-1,61
 560 128 560 128 560 172 c 0,62,63
 560 214 560 214 580 243.5 c 128,-1,64
 600 273 600 273 635 273 c 0,65,66
 669 273 669 273 690.5 243.5 c 128,-1,67
 712 214 712 214 712 170 c 0,56,57
EndSplineSet
EndChar

StartChar: ampersand
Encoding: 38 38 9
Width: 696
Flags: W
LayerCount: 2
Fore
SplineSet
666 51 m 1,0,-1
 556 163 l 1,1,2
 583 200 583 200 606.5 240.5 c 128,-1,3
 630 281 630 281 651 323 c 1,4,-1
 558 372 l 1,5,6
 541 335 541 335 522 301 c 128,-1,7
 503 267 503 267 483 237 c 1,8,-1
 363 359 l 1,9,10
 433 385 433 385 475 428.5 c 128,-1,11
 517 472 517 472 517 542 c 0,12,13
 517 578 517 578 503.5 609 c 128,-1,14
 490 640 490 640 465.5 663 c 128,-1,15
 441 686 441 686 407 699 c 128,-1,16
 373 712 373 712 331 712 c 0,17,18
 284 712 284 712 247 697.5 c 128,-1,19
 210 683 210 683 184 659 c 128,-1,20
 158 635 158 635 144 603 c 128,-1,21
 130 571 130 571 130 535 c 0,22,23
 130 496 130 496 144 461.5 c 128,-1,24
 158 427 158 427 188 388 c 1,25,26
 116 357 116 357 77.5 308.5 c 128,-1,27
 39 260 39 260 39 191 c 0,28,29
 39 145 39 145 56.5 108 c 128,-1,30
 74 71 74 71 104.5 44.5 c 128,-1,31
 135 18 135 18 176.5 4 c 128,-1,32
 218 -10 218 -10 267 -10 c 0,33,34
 331 -10 331 -10 384 14.5 c 128,-1,35
 437 39 437 39 482 81 c 1,36,-1
 575 -14 l 1,37,-1
 666 51 l 1,0,-1
408 535 m 0,38,39
 408 496 408 496 380 470.5 c 128,-1,40
 352 445 352 445 298 425 c 1,41,42
 269 457 269 457 257 480 c 128,-1,43
 245 503 245 503 245 530 c 0,44,45
 245 568 245 568 267.5 591.5 c 128,-1,46
 290 615 290 615 328 615 c 0,47,48
 363 615 363 615 385.5 593.5 c 128,-1,49
 408 572 408 572 408 535 c 0,38,39
412 153 m 1,50,51
 382 124 382 124 349 108 c 128,-1,52
 316 92 316 92 280 92 c 0,53,54
 229 92 229 92 196 121 c 128,-1,55
 163 150 163 150 163 195 c 0,56,57
 163 230 163 230 185 260.5 c 128,-1,58
 207 291 207 291 256 312 c 1,59,-1
 412 153 l 1,50,51
EndSplineSet
EndChar

StartChar: quotesingle
Encoding: 39 39 10
Width: 269
Flags: W
LayerCount: 2
Fore
SplineSet
60 401 m 1,0,-1
 124 401 l 1,1,-1
 222 695 l 1,2,-1
 222 700 l 1,3,-1
 83 700 l 1,4,-1
 60 401 l 1,0,-1
EndSplineSet
EndChar

StartChar: parenleft
Encoding: 40 40 11
Width: 440
Flags: W
LayerCount: 2
Fore
SplineSet
393 634 m 1,0,-1
 340 715 l 1,1,2
 203 640 203 640 133 535 c 128,-1,3
 63 430 63 430 63 287 c 256,4,5
 63 144 63 144 133 39 c 128,-1,6
 203 -66 203 -66 340 -141 c 1,7,-1
 393 -60 l 1,8,9
 286 10 286 10 235 92.5 c 128,-1,10
 184 175 184 175 184 287 c 0,11,12
 184 343 184 343 196.5 391 c 128,-1,13
 209 439 209 439 235 481 c 128,-1,14
 261 523 261 523 300.5 561 c 128,-1,15
 340 599 340 599 393 634 c 1,0,-1
EndSplineSet
EndChar

StartChar: parenright
Encoding: 41 41 12
Width: 440
Flags: W
LayerCount: 2
Fore
SplineSet
48 634 m 1,0,1
 154 563 154 563 205.5 481 c 128,-1,2
 257 399 257 399 257 287 c 0,3,4
 257 231 257 231 244.5 183 c 128,-1,5
 232 135 232 135 206 93 c 128,-1,6
 180 51 180 51 140.5 13 c 128,-1,7
 101 -25 101 -25 48 -60 c 1,8,-1
 101 -141 l 1,9,10
 237 -66 237 -66 307.5 39.5 c 128,-1,11
 378 145 378 145 378 287 c 256,12,13
 378 429 378 429 307.5 534.5 c 128,-1,14
 237 640 237 640 101 715 c 1,15,-1
 48 634 l 1,0,1
EndSplineSet
EndChar

StartChar: asterisk
Encoding: 42 42 13
Width: 430
Flags: W
LayerCount: 2
Fore
SplineSet
372 492 m 1,0,-1
 258 542 l 1,1,-1
 372 592 l 1,2,-1
 336 653 l 1,3,-1
 236 580 l 1,4,-1
 250 702 l 1,5,-1
 180 702 l 1,6,-1
 194 580 l 1,7,-1
 94 653 l 1,8,-1
 58 592 l 1,9,-1
 172 542 l 1,10,-1
 58 492 l 1,11,-1
 94 431 l 1,12,-1
 194 504 l 1,13,-1
 180 382 l 1,14,-1
 250 382 l 1,15,-1
 236 504 l 1,16,-1
 336 431 l 1,17,-1
 372 492 l 1,0,-1
EndSplineSet
EndChar

StartChar: plus
Encoding: 43 43 14
Width: 640
Flags: W
LayerCount: 2
Fore
SplineSet
263 407 m 1,0,-1
 71 407 l 1,1,-1
 71 297 l 1,2,-1
 263 297 l 1,3,-1
 263 106 l 1,4,-1
 377 106 l 1,5,-1
 377 297 l 1,6,-1
 569 297 l 1,7,-1
 569 407 l 1,8,-1
 377 407 l 1,9,-1
 377 598 l 1,10,-1
 263 598 l 1,11,-1
 263 407 l 1,0,-1
EndSplineSet
EndChar

StartChar: comma
Encoding: 44 44 15
Width: 269
Flags: W
LayerCount: 2
Fore
SplineSet
34 -94 m 1,0,-1
 47 -145 l 1,1,2
 123 -139 123 -139 162 -101 c 128,-1,3
 201 -63 201 -63 201 21 c 2,4,-1
 201 137 l 1,5,-1
 68 137 l 1,6,-1
 68 0 l 1,7,-1
 119 0 l 1,8,9
 126 -76 126 -76 34 -94 c 1,0,-1
EndSplineSet
EndChar

StartChar: hyphen
Encoding: 45 45 16
Width: 408
Flags: W
LayerCount: 2
Fore
SplineSet
352 247 m 1,0,-1
 352 366 l 1,1,-1
 56 366 l 1,2,-1
 56 247 l 1,3,-1
 352 247 l 1,0,-1
EndSplineSet
EndChar

StartChar: period
Encoding: 46 46 17
Width: 269
Flags: W
LayerCount: 2
Fore
SplineSet
201 0 m 1,0,-1
 201 137 l 1,1,-1
 68 137 l 1,2,-1
 68 0 l 1,3,-1
 201 0 l 1,0,-1
EndSplineSet
EndChar

StartChar: slash
Encoding: 47 47 18
Width: 521
Flags: W
LayerCount: 2
Fore
SplineSet
427 798 m 1,0,-1
 -25 -128 l 1,1,-1
 80 -128 l 1,2,-1
 532 798 l 1,3,-1
 427 798 l 1,0,-1
EndSplineSet
EndChar

StartChar: zero
Encoding: 48 48 19
Width: 724
Flags: W
LayerCount: 2
Fore
SplineSet
667 351 m 256,0,1
 667 426 667 426 645.5 492 c 128,-1,2
 624 558 624 558 584 607 c 128,-1,3
 544 656 544 656 488 684 c 128,-1,4
 432 712 432 712 363 712 c 256,5,6
 294 712 294 712 237.5 683.5 c 128,-1,7
 181 655 181 655 141 606 c 128,-1,8
 101 557 101 557 79 490.5 c 128,-1,9
 57 424 57 424 57 349 c 256,10,11
 57 274 57 274 78.5 208 c 128,-1,12
 100 142 100 142 140 93 c 128,-1,13
 180 44 180 44 236 16 c 128,-1,14
 292 -12 292 -12 361 -12 c 256,15,16
 430 -12 430 -12 486.5 16.5 c 128,-1,17
 543 45 543 45 583 94 c 128,-1,18
 623 143 623 143 645 209.5 c 128,-1,19
 667 276 667 276 667 351 c 256,0,1
540 349 m 256,20,21
 540 297 540 297 527.5 251.5 c 128,-1,22
 515 206 515 206 492 172 c 128,-1,23
 469 138 469 138 436.5 118.5 c 128,-1,24
 404 99 404 99 363 99 c 256,25,26
 322 99 322 99 289 118.5 c 128,-1,27
 256 138 256 138 232.5 172.5 c 128,-1,28
 209 207 209 207 196.5 252.5 c 128,-1,29
 184 298 184 298 184 351 c 0,30,31
 184 403 184 403 196.5 449 c 128,-1,32
 209 495 209 495 232 528.5 c 128,-1,33
 255 562 255 562 287.5 581.5 c 128,-1,34
 320 601 320 601 361 601 c 256,35,36
 402 601 402 601 435 581 c 128,-1,37
 468 561 468 561 491.5 527 c 128,-1,38
 515 493 515 493 527.5 447 c 128,-1,39
 540 401 540 401 540 349 c 256,20,21
EndSplineSet
EndChar

StartChar: one
Encoding: 49 49 20
Width: 396
Flags: W
LayerCount: 2
Fore
SplineSet
26 645 m 1,0,-1
 52 545 l 1,1,-1
 178 580 l 1,2,-1
 178 0 l 1,3,-1
 300 0 l 1,4,-1
 300 705 l 1,5,-1
 214 705 l 1,6,-1
 26 645 l 1,0,-1
EndSplineSet
EndChar

StartChar: two
Encoding: 50 50 21
Width: 613
Flags: W
LayerCount: 2
Fore
SplineSet
308 600 m 256,0,1
 356 600 356 600 388.5 571.5 c 128,-1,2
 421 543 421 543 421 491 c 0,3,4
 421 467 421 467 414 446 c 128,-1,5
 407 425 407 425 391.5 403 c 128,-1,6
 376 381 376 381 351 356.5 c 128,-1,7
 326 332 326 332 290 302 c 2,8,-1
 49 97 l 1,9,-1
 49 0 l 1,10,-1
 555 0 l 1,11,-1
 555 108 l 1,12,-1
 222 108 l 1,13,-1
 366 228 l 2,14,15
 412 266 412 266 446.5 298 c 128,-1,16
 481 330 481 330 503.5 361 c 128,-1,17
 526 392 526 392 537 425 c 128,-1,18
 548 458 548 458 548 500 c 0,19,20
 548 547 548 547 531.5 585.5 c 128,-1,21
 515 624 515 624 485 652 c 128,-1,22
 455 680 455 680 412 695 c 128,-1,23
 369 710 369 710 317 710 c 0,24,25
 270 710 270 710 233.5 700 c 128,-1,26
 197 690 197 690 166.5 671.5 c 128,-1,27
 136 653 136 653 110 625.5 c 128,-1,28
 84 598 84 598 59 563 c 1,29,-1
 146 495 l 1,30,31
 187 548 187 548 223.5 574 c 128,-1,32
 260 600 260 600 308 600 c 256,0,1
EndSplineSet
EndChar

StartChar: three
Encoding: 51 51 22
Width: 618
Flags: W
LayerCount: 2
Fore
SplineSet
385 593 m 1,0,-1
 196 392 l 1,1,-1
 216 315 l 1,2,-1
 273 315 l 2,3,4
 348 315 348 315 391 287 c 128,-1,5
 434 259 434 259 434 206 c 0,6,7
 434 157 434 157 399.5 128 c 128,-1,8
 365 99 365 99 313 99 c 0,9,10
 254 99 254 99 210.5 122.5 c 128,-1,11
 167 146 167 146 129 191 c 1,12,-1
 43 111 l 1,13,14
 88 57 88 57 153.5 22.5 c 128,-1,15
 219 -12 219 -12 311 -12 c 0,16,17
 365 -12 365 -12 410.5 4.5 c 128,-1,18
 456 21 456 21 488 50.5 c 128,-1,19
 520 80 520 80 538 120.5 c 128,-1,20
 556 161 556 161 556 210 c 256,21,22
 556 259 556 259 539 294 c 128,-1,23
 522 329 522 329 493.5 352.5 c 128,-1,24
 465 376 465 376 427.5 389.5 c 128,-1,25
 390 403 390 403 350 408 c 1,26,-1
 545 608 l 1,27,-1
 545 700 l 1,28,-1
 82 700 l 1,29,-1
 82 593 l 1,30,-1
 385 593 l 1,0,-1
EndSplineSet
EndChar

StartChar: four
Encoding: 52 52 23
Width: 681
Flags: W
LayerCount: 2
Fore
SplineSet
425 705 m 1,0,-1
 36 245 l 1,1,-1
 59 157 l 1,2,-1
 412 157 l 1,3,-1
 412 0 l 1,4,-1
 530 0 l 1,5,-1
 530 157 l 1,6,-1
 630 157 l 1,7,-1
 630 258 l 1,8,-1
 530 258 l 1,9,-1
 530 705 l 1,10,-1
 425 705 l 1,0,-1
412 258 m 1,11,-1
 182 258 l 1,12,-1
 412 535 l 1,13,-1
 412 258 l 1,11,-1
EndSplineSet
EndChar

StartChar: five
Encoding: 53 53 24
Width: 622
Flags: W
LayerCount: 2
Fore
SplineSet
94 357 m 1,0,-1
 168 308 l 1,1,2
 195 321 195 321 227 330 c 128,-1,3
 259 339 259 339 297 339 c 0,4,5
 363 339 363 339 402.5 307.5 c 128,-1,6
 442 276 442 276 442 222 c 0,7,8
 442 166 442 166 404 133 c 128,-1,9
 366 100 366 100 303 100 c 0,10,11
 254 100 254 100 209.5 122.5 c 128,-1,12
 165 145 165 145 123 184 c 1,13,-1
 47 95 l 1,14,15
 97 47 97 47 160 17.5 c 128,-1,16
 223 -12 223 -12 304 -12 c 0,17,18
 362 -12 362 -12 410 5 c 128,-1,19
 458 22 458 22 492 53 c 128,-1,20
 526 84 526 84 544.5 128 c 128,-1,21
 563 172 563 172 563 226 c 0,22,23
 563 282 563 282 544.5 323.5 c 128,-1,24
 526 365 526 365 493 392.5 c 128,-1,25
 460 420 460 420 415.5 433.5 c 128,-1,26
 371 447 371 447 320 447 c 0,27,28
 285 447 285 447 259.5 441.5 c 128,-1,29
 234 436 234 436 209 427 c 1,30,-1
 220 591 l 1,31,-1
 532 591 l 1,32,-1
 532 700 l 1,33,-1
 114 700 l 1,34,-1
 94 357 l 1,0,-1
EndSplineSet
EndChar

StartChar: six
Encoding: 54 54 25
Width: 656
Flags: W
LayerCount: 2
Fore
SplineSet
571 634 m 1,0,1
 525 671 525 671 475 691.5 c 128,-1,2
 425 712 425 712 357 712 c 0,3,4
 283 712 283 712 226.5 682.5 c 128,-1,5
 170 653 170 653 132.5 601.5 c 128,-1,6
 95 550 95 550 76 480.5 c 128,-1,7
 57 411 57 411 57 330 c 0,8,9
 57 277 57 277 62.5 236 c 128,-1,10
 68 195 68 195 79 162.5 c 128,-1,11
 90 130 90 130 106 105.5 c 128,-1,12
 122 81 122 81 142 61 c 0,13,14
 177 26 177 26 224.5 7 c 128,-1,15
 272 -12 272 -12 337 -12 c 0,16,17
 392 -12 392 -12 439.5 5.5 c 128,-1,18
 487 23 487 23 522 54.5 c 128,-1,19
 557 86 557 86 577 130 c 128,-1,20
 597 174 597 174 597 227 c 256,21,22
 597 280 597 280 578 321 c 128,-1,23
 559 362 559 362 525.5 390.5 c 128,-1,24
 492 419 492 419 447.5 433.5 c 128,-1,25
 403 448 403 448 352 448 c 0,26,27
 321 448 321 448 296.5 442 c 128,-1,28
 272 436 272 436 251.5 426.5 c 128,-1,29
 231 417 231 417 215 404 c 128,-1,30
 199 391 199 391 185 378 c 1,31,32
 187 426 187 426 199 466.5 c 128,-1,33
 211 507 211 507 232 537 c 128,-1,34
 253 567 253 567 283.5 583.5 c 128,-1,35
 314 600 314 600 353 600 c 0,36,37
 399 600 399 600 433.5 584 c 128,-1,38
 468 568 468 568 505 539 c 1,39,-1
 571 634 l 1,0,1
474 222 m 0,40,41
 474 167 474 167 437 130.5 c 128,-1,42
 400 94 400 94 334 94 c 256,43,44
 268 94 268 94 228.5 130 c 128,-1,45
 189 166 189 166 189 221 c 0,46,47
 189 246 189 246 199 269 c 128,-1,48
 209 292 209 292 227.5 308.5 c 128,-1,49
 246 325 246 325 272 335 c 128,-1,50
 298 345 298 345 331 345 c 0,51,52
 397 345 397 345 435.5 310.5 c 128,-1,53
 474 276 474 276 474 222 c 0,40,41
EndSplineSet
EndChar

StartChar: seven
Encoding: 55 55 26
Width: 609
Flags: W
LayerCount: 2
Fore
SplineSet
68 592 m 1,0,-1
 420 592 l 1,1,-1
 106 0 l 1,2,-1
 244 0 l 1,3,-1
 560 607 l 1,4,-1
 560 700 l 1,5,-1
 68 700 l 1,6,-1
 68 592 l 1,0,-1
EndSplineSet
EndChar

StartChar: eight
Encoding: 56 56 27
Width: 630
Flags: W
LayerCount: 2
Fore
SplineSet
582 194 m 0,0,1
 582 257 582 257 547.5 297 c 128,-1,2
 513 337 513 337 456 363 c 1,3,4
 500 386 500 386 529 423.5 c 128,-1,5
 558 461 558 461 558 520 c 0,6,7
 558 560 558 560 539.5 595 c 128,-1,8
 521 630 521 630 489 655.5 c 128,-1,9
 457 681 457 681 412 695.5 c 128,-1,10
 367 710 367 710 315 710 c 0,11,12
 262 710 262 710 217.5 695.5 c 128,-1,13
 173 681 173 681 141 655.5 c 128,-1,14
 109 630 109 630 90.5 595 c 128,-1,15
 72 560 72 560 72 520 c 0,16,17
 72 461 72 461 101 423.5 c 128,-1,18
 130 386 130 386 174 363 c 1,19,20
 114 338 114 338 81 297 c 128,-1,21
 48 256 48 256 48 191 c 0,22,23
 48 146 48 146 68 108.5 c 128,-1,24
 88 71 88 71 124 45 c 128,-1,25
 160 19 160 19 209 4.5 c 128,-1,26
 258 -10 258 -10 315 -10 c 256,27,28
 372 -10 372 -10 421 4 c 128,-1,29
 470 18 470 18 506 44.5 c 128,-1,30
 542 71 542 71 562 109 c 128,-1,31
 582 147 582 147 582 194 c 0,0,1
440 508 m 0,32,33
 440 462 440 462 404.5 433 c 128,-1,34
 369 404 369 404 315 404 c 256,35,36
 261 404 261 404 225.5 433 c 128,-1,37
 190 462 190 462 190 509 c 0,38,39
 190 550 190 550 224 578.5 c 128,-1,40
 258 607 258 607 315 607 c 256,41,42
 372 607 372 607 406 578.5 c 128,-1,43
 440 550 440 550 440 508 c 0,32,33
462 199 m 0,44,45
 462 154 462 154 423 123.5 c 128,-1,46
 384 93 384 93 315 93 c 256,47,48
 246 93 246 93 207 123.5 c 128,-1,49
 168 154 168 154 168 199 c 0,50,51
 168 223 168 223 179.5 243 c 128,-1,52
 191 263 191 263 210.5 277 c 128,-1,53
 230 291 230 291 257 298.5 c 128,-1,54
 284 306 284 306 315 306 c 256,55,56
 346 306 346 306 373 298.5 c 128,-1,57
 400 291 400 291 419.5 277 c 128,-1,58
 439 263 439 263 450.5 243 c 128,-1,59
 462 223 462 223 462 199 c 0,44,45
EndSplineSet
EndChar

StartChar: nine
Encoding: 57 57 28
Width: 656
Flags: W
LayerCount: 2
Fore
SplineSet
599 370 m 0,0,1
 599 474 599 474 576 536.5 c 128,-1,2
 553 599 553 599 514 638 c 0,3,4
 477 675 477 675 431.5 693.5 c 128,-1,5
 386 712 386 712 320 712 c 0,6,7
 262 712 262 712 214 693.5 c 128,-1,8
 166 675 166 675 131.5 642.5 c 128,-1,9
 97 610 97 610 78 565.5 c 128,-1,10
 59 521 59 521 59 469 c 0,11,12
 59 418 59 418 77 377 c 128,-1,13
 95 336 95 336 127.5 306.5 c 128,-1,14
 160 277 160 277 205.5 261.5 c 128,-1,15
 251 246 251 246 307 246 c 0,16,17
 364 246 364 246 404.5 267 c 128,-1,18
 445 288 445 288 471 320 c 1,19,20
 469 272 469 272 457 231.5 c 128,-1,21
 445 191 445 191 423.5 161.5 c 128,-1,22
 402 132 402 132 371.5 116 c 128,-1,23
 341 100 341 100 302 100 c 0,24,25
 257 100 257 100 219.5 116 c 128,-1,26
 182 132 182 132 142 166 c 1,27,-1
 75 72 l 1,28,29
 120 35 120 35 173 11.5 c 128,-1,30
 226 -12 226 -12 299 -12 c 0,31,32
 369 -12 369 -12 425 16 c 128,-1,33
 481 44 481 44 519.5 94.5 c 128,-1,34
 558 145 558 145 578.5 215 c 128,-1,35
 599 285 599 285 599 370 c 0,0,1
467 476 m 0,36,37
 467 450 467 450 457.5 427 c 128,-1,38
 448 404 448 404 429.5 386.5 c 128,-1,39
 411 369 411 369 384.5 359 c 128,-1,40
 358 349 358 349 325 349 c 0,41,42
 259 349 259 349 220.5 384 c 128,-1,43
 182 419 182 419 182 475 c 0,44,45
 182 530 182 530 218.5 568 c 128,-1,46
 255 606 255 606 321 606 c 0,47,48
 354 606 354 606 381 596 c 128,-1,49
 408 586 408 586 427 568.5 c 128,-1,50
 446 551 446 551 456.5 527.5 c 128,-1,51
 467 504 467 504 467 476 c 0,36,37
EndSplineSet
EndChar

StartChar: colon
Encoding: 58 58 29
Width: 279
Flags: W
LayerCount: 2
Fore
SplineSet
206 391 m 1,0,-1
 206 528 l 1,1,-1
 73 528 l 1,2,-1
 73 391 l 1,3,-1
 206 391 l 1,0,-1
206 0 m 1,4,-1
 206 137 l 1,5,-1
 73 137 l 1,6,-1
 73 0 l 1,7,-1
 206 0 l 1,4,-1
EndSplineSet
EndChar

StartChar: semicolon
Encoding: 59 59 30
Width: 279
Flags: W
LayerCount: 2
Fore
SplineSet
206 391 m 1,0,-1
 206 528 l 1,1,-1
 73 528 l 1,2,-1
 73 391 l 1,3,-1
 206 391 l 1,0,-1
39 -94 m 1,4,-1
 52 -145 l 1,5,6
 128 -139 128 -139 167 -101 c 128,-1,7
 206 -63 206 -63 206 21 c 2,8,-1
 206 137 l 1,9,-1
 73 137 l 1,10,-1
 73 0 l 1,11,-1
 124 0 l 1,12,13
 131 -76 131 -76 39 -94 c 1,4,-1
EndSplineSet
EndChar

StartChar: less
Encoding: 60 60 31
Width: 640
Flags: W
LayerCount: 2
Fore
SplineSet
70 406 m 1,0,-1
 70 298 l 1,1,-1
 547 77 l 1,2,-1
 547 193 l 1,3,-1
 190 353 l 1,4,-1
 547 512 l 1,5,-1
 547 627 l 1,6,-1
 70 406 l 1,0,-1
EndSplineSet
EndChar

StartChar: equal
Encoding: 61 61 32
Width: 640
Flags: W
LayerCount: 2
Fore
SplineSet
86 533 m 1,0,-1
 86 421 l 1,1,-1
 554 421 l 1,2,-1
 554 533 l 1,3,-1
 86 533 l 1,0,-1
86 283 m 1,4,-1
 86 171 l 1,5,-1
 554 171 l 1,6,-1
 554 283 l 1,7,-1
 86 283 l 1,4,-1
EndSplineSet
EndChar

StartChar: greater
Encoding: 62 62 33
Width: 640
Flags: W
LayerCount: 2
Fore
SplineSet
570 298 m 1,0,-1
 570 406 l 1,1,-1
 93 627 l 1,2,-1
 93 511 l 1,3,-1
 450 351 l 1,4,-1
 93 192 l 1,5,-1
 93 77 l 1,6,-1
 570 298 l 1,0,-1
EndSplineSet
EndChar

StartChar: question
Encoding: 63 63 34
Width: 541
Flags: W
LayerCount: 2
Fore
SplineSet
192 388 m 1,0,-1
 187 383 l 1,1,-1
 207 221 l 1,2,-1
 288 221 l 1,3,-1
 298 302 l 1,4,5
 340 309 340 309 376.5 324 c 128,-1,6
 413 339 413 339 440 363 c 128,-1,7
 467 387 467 387 483 422 c 128,-1,8
 499 457 499 457 499 505 c 0,9,10
 499 552 499 552 482 590 c 128,-1,11
 465 628 465 628 434.5 654.5 c 128,-1,12
 404 681 404 681 360.5 695 c 128,-1,13
 317 709 317 709 265 709 c 0,14,15
 184 709 184 709 126 678.5 c 128,-1,16
 68 648 68 648 24 598 c 1,17,-1
 99 518 l 1,18,19
 135 556 135 556 174.5 576.5 c 128,-1,20
 214 597 214 597 262 597 c 0,21,22
 316 597 316 597 346.5 570.5 c 128,-1,23
 377 544 377 544 377 501 c 0,24,25
 377 450 377 450 332.5 421 c 128,-1,26
 288 392 288 392 192 388 c 1,0,-1
312 0 m 1,27,-1
 312 137 l 1,28,-1
 178 137 l 1,29,-1
 178 0 l 1,30,-1
 312 0 l 1,27,-1
EndSplineSet
EndChar

StartChar: at
Encoding: 64 64 35
Width: 980
Flags: W
LayerCount: 2
Fore
SplineSet
927 316 m 0,0,1
 927 394 927 394 893.5 465.5 c 128,-1,2
 860 537 860 537 801 591.5 c 128,-1,3
 742 646 742 646 662.5 679 c 128,-1,4
 583 712 583 712 491 712 c 256,5,6
 399 712 399 712 319 677 c 128,-1,7
 239 642 239 642 180 582.5 c 128,-1,8
 121 523 121 523 87 443.5 c 128,-1,9
 53 364 53 364 53 274 c 256,10,11
 53 184 53 184 86.5 105 c 128,-1,12
 120 26 120 26 180 -33.5 c 128,-1,13
 240 -93 240 -93 321.5 -127.5 c 128,-1,14
 403 -162 403 -162 499 -162 c 0,15,16
 577 -162 577 -162 641.5 -142 c 128,-1,17
 706 -122 706 -122 764 -87 c 1,18,-1
 746 -57 l 1,19,20
 689 -90 689 -90 631 -107 c 128,-1,21
 573 -124 573 -124 499 -124 c 0,22,23
 410 -124 410 -124 335.5 -93 c 128,-1,24
 261 -62 261 -62 207 -8 c 128,-1,25
 153 46 153 46 123 118.5 c 128,-1,26
 93 191 93 191 93 274 c 0,27,28
 93 356 93 356 123 429 c 128,-1,29
 153 502 153 502 206.5 556.5 c 128,-1,30
 260 611 260 611 332.5 642.5 c 128,-1,31
 405 674 405 674 491 674 c 0,32,33
 576 674 576 674 648.5 644 c 128,-1,34
 721 614 721 614 774 564 c 128,-1,35
 827 514 827 514 857 449.5 c 128,-1,36
 887 385 887 385 887 316 c 0,37,38
 887 265 887 265 876.5 226.5 c 128,-1,39
 866 188 866 188 848 162.5 c 128,-1,40
 830 137 830 137 806 124 c 128,-1,41
 782 111 782 111 755 111 c 0,42,43
 718 111 718 111 697.5 130.5 c 128,-1,44
 677 150 677 150 677 182 c 0,45,46
 677 189 677 189 678.5 200 c 128,-1,47
 680 211 680 211 682 225 c 2,48,-1
 726 477 l 1,49,-1
 629 492 l 1,50,-1
 617 432 l 1,51,52
 597 462 597 462 563.5 484 c 128,-1,53
 530 506 530 506 476 506 c 0,54,55
 432 506 432 506 391.5 487 c 128,-1,56
 351 468 351 468 319 434 c 128,-1,57
 287 400 287 400 268 354.5 c 128,-1,58
 249 309 249 309 249 256 c 0,59,60
 249 213 249 213 263 178 c 128,-1,61
 277 143 277 143 302 118.5 c 128,-1,62
 327 94 327 94 359.5 80.5 c 128,-1,63
 392 67 392 67 430 67 c 0,64,65
 483 67 483 67 520.5 88 c 128,-1,66
 558 109 558 109 585 137 c 1,67,68
 602 109 602 109 638 88 c 128,-1,69
 674 67 674 67 733 67 c 0,70,71
 772 67 772 67 807 82.5 c 128,-1,72
 842 98 842 98 868.5 128.5 c 128,-1,73
 895 159 895 159 911 206 c 128,-1,74
 927 253 927 253 927 316 c 0,0,1
595 312 m 0,75,76
 595 279 595 279 583.5 250.5 c 128,-1,77
 572 222 572 222 553 200.5 c 128,-1,78
 534 179 534 179 509 166.5 c 128,-1,79
 484 154 484 154 457 154 c 0,80,81
 410 154 410 154 380.5 182 c 128,-1,82
 351 210 351 210 351 262 c 0,83,84
 351 296 351 296 362.5 325 c 128,-1,85
 374 354 374 354 393 375 c 128,-1,86
 412 396 412 396 437.5 408 c 128,-1,87
 463 420 463 420 490 420 c 0,88,89
 535 420 535 420 565 390 c 128,-1,90
 595 360 595 360 595 312 c 0,75,76
EndSplineSet
EndChar

StartChar: A
Encoding: 65 65 36
Width: 790
Flags: W
LayerCount: 2
Fore
SplineSet
452 705 m 1,0,-1
 338 705 l 1,1,-1
 30 0 l 1,2,-1
 156 0 l 1,3,-1
 228 169 l 1,4,-1
 559 169 l 1,5,-1
 630 0 l 1,6,-1
 760 0 l 1,7,-1
 452 705 l 1,0,-1
514 278 m 1,8,-1
 273 278 l 1,9,-1
 393 558 l 1,10,-1
 514 278 l 1,8,-1
EndSplineSet
EndChar

StartChar: B
Encoding: 66 66 37
Width: 722
Flags: W
LayerCount: 2
Fore
SplineSet
404 700 m 2,0,-1
 90 700 l 1,1,-1
 90 0 l 1,2,-1
 414 0 l 2,3,4
 472 0 472 0 520 12.5 c 128,-1,5
 568 25 568 25 602 49.5 c 128,-1,6
 636 74 636 74 654.5 110 c 128,-1,7
 673 146 673 146 673 193 c 0,8,9
 673 229 673 229 663 256.5 c 128,-1,10
 653 284 653 284 634.5 304 c 128,-1,11
 616 324 616 324 590.5 338.5 c 128,-1,12
 565 353 565 353 534 364 c 1,13,14
 553 374 553 374 571.5 388 c 128,-1,15
 590 402 590 402 603.5 420.5 c 128,-1,16
 617 439 617 439 625.5 464 c 128,-1,17
 634 489 634 489 634 521 c 0,18,19
 634 604 634 604 572 652 c 128,-1,20
 510 700 510 700 404 700 c 2,0,-1
379 405 m 2,21,-1
 211 405 l 1,22,-1
 211 591 l 1,23,-1
 388 591 l 2,24,25
 448 591 448 591 479.5 567.5 c 128,-1,26
 511 544 511 544 511 501 c 0,27,28
 511 452 511 452 475 428.5 c 128,-1,29
 439 405 439 405 379 405 c 2,21,-1
415 109 m 2,30,-1
 211 109 l 1,31,-1
 211 301 l 1,32,-1
 406 301 l 2,33,34
 479 301 479 301 514.5 276 c 128,-1,35
 550 251 550 251 550 206 c 0,36,37
 550 158 550 158 514 133.5 c 128,-1,38
 478 109 478 109 415 109 c 2,30,-1
EndSplineSet
EndChar

StartChar: C
Encoding: 67 67 38
Width: 738
Flags: W
LayerCount: 2
Fore
SplineSet
699 112 m 1,0,-1
 620 192 l 1,1,2
 575 150 575 150 529 125.5 c 128,-1,3
 483 101 483 101 419 101 c 0,4,5
 369 101 369 101 326.5 120.5 c 128,-1,6
 284 140 284 140 253 174 c 128,-1,7
 222 208 222 208 205 253.5 c 128,-1,8
 188 299 188 299 188 351 c 256,9,10
 188 403 188 403 205 448 c 128,-1,11
 222 493 222 493 253 526.5 c 128,-1,12
 284 560 284 560 326.5 579.5 c 128,-1,13
 369 599 369 599 419 599 c 0,14,15
 479 599 479 599 526 575 c 128,-1,16
 573 551 573 551 615 512 c 1,17,-1
 694 603 l 1,18,19
 669 627 669 627 641 647 c 128,-1,20
 613 667 613 667 580 681.5 c 128,-1,21
 547 696 547 696 507.5 704 c 128,-1,22
 468 712 468 712 420 712 c 0,23,24
 340 712 340 712 274 683.5 c 128,-1,25
 208 655 208 655 160 605.5 c 128,-1,26
 112 556 112 556 85.5 490 c 128,-1,27
 59 424 59 424 59 349 c 0,28,29
 59 273 59 273 86 207 c 128,-1,30
 113 141 113 141 160.5 92.5 c 128,-1,31
 208 44 208 44 273 16 c 128,-1,32
 338 -12 338 -12 415 -12 c 0,33,34
 464 -12 464 -12 504.5 -3.5 c 128,-1,35
 545 5 545 5 579 21.5 c 128,-1,36
 613 38 613 38 642.5 60.5 c 128,-1,37
 672 83 672 83 699 112 c 1,0,-1
EndSplineSet
EndChar

StartChar: D
Encoding: 68 68 39
Width: 782
Flags: W
LayerCount: 2
Fore
SplineSet
723 351 m 256,0,1
 723 425 723 425 696 489 c 128,-1,2
 669 553 669 553 619.5 600 c 128,-1,3
 570 647 570 647 501.5 673.5 c 128,-1,4
 433 700 433 700 351 700 c 2,5,-1
 90 700 l 1,6,-1
 90 0 l 1,7,-1
 351 0 l 2,8,9
 433 0 433 0 501.5 27 c 128,-1,10
 570 54 570 54 619.5 101 c 128,-1,11
 669 148 669 148 696 212.5 c 128,-1,12
 723 277 723 277 723 351 c 256,0,1
594 349 m 256,13,14
 594 297 594 297 576.5 253.5 c 128,-1,15
 559 210 559 210 527.5 178.5 c 128,-1,16
 496 147 496 147 451 129.5 c 128,-1,17
 406 112 406 112 351 112 c 2,18,-1
 213 112 l 1,19,-1
 213 588 l 1,20,-1
 351 588 l 2,21,22
 406 588 406 588 451 570 c 128,-1,23
 496 552 496 552 527.5 520 c 128,-1,24
 559 488 559 488 576.5 444.5 c 128,-1,25
 594 401 594 401 594 349 c 256,13,14
EndSplineSet
EndChar

StartChar: E
Encoding: 69 69 40
Width: 670
Flags: W
LayerCount: 2
Fore
SplineSet
609 700 m 1,0,-1
 90 700 l 1,1,-1
 90 0 l 1,2,-1
 614 0 l 1,3,-1
 614 110 l 1,4,-1
 213 110 l 1,5,-1
 213 298 l 1,6,-1
 564 298 l 1,7,-1
 564 408 l 1,8,-1
 213 408 l 1,9,-1
 213 590 l 1,10,-1
 609 590 l 1,11,-1
 609 700 l 1,0,-1
EndSplineSet
EndChar

StartChar: F
Encoding: 70 70 41
Width: 656
Flags: W
LayerCount: 2
Fore
SplineSet
611 700 m 1,0,-1
 90 700 l 1,1,-1
 90 0 l 1,2,-1
 213 0 l 1,3,-1
 213 285 l 1,4,-1
 566 285 l 1,5,-1
 566 397 l 1,6,-1
 213 397 l 1,7,-1
 213 588 l 1,8,-1
 611 588 l 1,9,-1
 611 700 l 1,0,-1
EndSplineSet
EndChar

StartChar: G
Encoding: 71 71 42
Width: 784
Flags: W
LayerCount: 2
Fore
SplineSet
714 97 m 1,0,-1
 714 391 l 1,1,-1
 416 391 l 1,2,-1
 416 284 l 1,3,-1
 595 284 l 1,4,-1
 595 153 l 1,5,6
 563 129 563 129 519.5 114.5 c 128,-1,7
 476 100 476 100 426 100 c 0,8,9
 372 100 372 100 328.5 119 c 128,-1,10
 285 138 285 138 253.5 171.5 c 128,-1,11
 222 205 222 205 205 251 c 128,-1,12
 188 297 188 297 188 351 c 0,13,14
 188 402 188 402 205.5 447 c 128,-1,15
 223 492 223 492 253.5 526 c 128,-1,16
 284 560 284 560 325.5 579.5 c 128,-1,17
 367 599 367 599 415 599 c 0,18,19
 448 599 448 599 475.5 593.5 c 128,-1,20
 503 588 503 588 526 578.5 c 128,-1,21
 549 569 549 569 570 555 c 128,-1,22
 591 541 591 541 611 524 c 1,23,-1
 689 617 l 1,24,25
 662 640 662 640 633.5 657.5 c 128,-1,26
 605 675 605 675 573 687 c 128,-1,27
 541 699 541 699 503.5 705.5 c 128,-1,28
 466 712 466 712 420 712 c 0,29,30
 341 712 341 712 274.5 683 c 128,-1,31
 208 654 208 654 160 604.5 c 128,-1,32
 112 555 112 555 85.5 489 c 128,-1,33
 59 423 59 423 59 349 c 0,34,35
 59 272 59 272 85 206 c 128,-1,36
 111 140 111 140 158.5 91.5 c 128,-1,37
 206 43 206 43 273 15.5 c 128,-1,38
 340 -12 340 -12 422 -12 c 0,39,40
 468 -12 468 -12 510 -3.5 c 128,-1,41
 552 5 552 5 588.5 20 c 128,-1,42
 625 35 625 35 656.5 55 c 128,-1,43
 688 75 688 75 714 97 c 1,0,-1
EndSplineSet
EndChar

StartChar: H
Encoding: 72 72 43
Width: 760
Flags: W
LayerCount: 2
Fore
SplineSet
547 295 m 1,0,-1
 547 0 l 1,1,-1
 670 0 l 1,2,-1
 670 700 l 1,3,-1
 547 700 l 1,4,-1
 547 409 l 1,5,-1
 213 409 l 1,6,-1
 213 700 l 1,7,-1
 90 700 l 1,8,-1
 90 0 l 1,9,-1
 213 0 l 1,10,-1
 213 295 l 1,11,-1
 547 295 l 1,0,-1
EndSplineSet
EndChar

StartChar: I
Encoding: 73 73 44
Width: 317
Flags: W
LayerCount: 2
Fore
SplineSet
97 700 m 1,0,-1
 97 0 l 1,1,-1
 220 0 l 1,2,-1
 220 700 l 1,3,-1
 97 700 l 1,0,-1
EndSplineSet
EndChar

StartChar: J
Encoding: 74 74 45
Width: 559
Flags: W
LayerCount: 2
Fore
SplineSet
480 238 m 2,0,-1
 480 700 l 1,1,-1
 354 700 l 1,2,-1
 354 241 l 2,3,4
 354 171 354 171 323.5 137.5 c 128,-1,5
 293 104 293 104 243 104 c 0,6,7
 198 104 198 104 165.5 125.5 c 128,-1,8
 133 147 133 147 102 186 c 1,9,-1
 21 103 l 1,10,11
 56 55 56 55 110 22.5 c 128,-1,12
 164 -10 164 -10 245 -10 c 0,13,14
 297 -10 297 -10 340 5.5 c 128,-1,15
 383 21 383 21 414 52 c 128,-1,16
 445 83 445 83 462.5 129.5 c 128,-1,17
 480 176 480 176 480 238 c 2,0,-1
EndSplineSet
EndChar

StartChar: K
Encoding: 75 75 46
Width: 725
Flags: W
LayerCount: 2
Fore
SplineSet
406 399 m 1,0,-1
 697 700 l 1,1,-1
 546 700 l 1,2,-1
 213 348 l 1,3,-1
 213 700 l 1,4,-1
 90 700 l 1,5,-1
 90 0 l 1,6,-1
 213 0 l 1,7,-1
 213 203 l 1,8,-1
 322 315 l 1,9,-1
 561 0 l 1,10,-1
 710 0 l 1,11,-1
 406 399 l 1,0,-1
EndSplineSet
EndChar

StartChar: L
Encoding: 76 76 47
Width: 619
Flags: W
LayerCount: 2
Fore
SplineSet
90 0 m 1,0,-1
 581 0 l 1,1,-1
 581 112 l 1,2,-1
 213 112 l 1,3,-1
 213 700 l 1,4,-1
 90 700 l 1,5,-1
 90 0 l 1,0,-1
EndSplineSet
EndChar

StartChar: M
Encoding: 77 77 48
Width: 868
Flags: W
LayerCount: 2
Fore
SplineSet
655 502 m 1,0,-1
 655 0 l 1,1,-1
 778 0 l 1,2,-1
 778 700 l 1,3,-1
 647 700 l 1,4,-1
 434 369 l 1,5,-1
 221 700 l 1,6,-1
 90 700 l 1,7,-1
 90 0 l 1,8,-1
 211 0 l 1,9,-1
 211 500 l 1,10,-1
 430 172 l 1,11,-1
 434 172 l 1,12,-1
 655 502 l 1,0,-1
EndSplineSet
EndChar

StartChar: N
Encoding: 78 78 49
Width: 790
Flags: W
LayerCount: 2
Fore
SplineSet
579 216 m 1,0,-1
 204 700 l 1,1,-1
 90 700 l 1,2,-1
 90 0 l 1,3,-1
 211 0 l 1,4,-1
 211 498 l 1,5,-1
 597 0 l 1,6,-1
 700 0 l 1,7,-1
 700 700 l 1,8,-1
 579 700 l 1,9,-1
 579 216 l 1,0,-1
EndSplineSet
EndChar

StartChar: O
Encoding: 79 79 50
Width: 850
Flags: W
LayerCount: 2
Fore
SplineSet
791 351 m 256,0,1
 791 425 791 425 764 491 c 128,-1,2
 737 557 737 557 689 606 c 128,-1,3
 641 655 641 655 574 683.5 c 128,-1,4
 507 712 507 712 426 712 c 256,5,6
 345 712 345 712 278 683 c 128,-1,7
 211 654 211 654 162 604.5 c 128,-1,8
 113 555 113 555 86 489 c 128,-1,9
 59 423 59 423 59 349 c 256,10,11
 59 275 59 275 86 209 c 128,-1,12
 113 143 113 143 161 94 c 128,-1,13
 209 45 209 45 276 16.5 c 128,-1,14
 343 -12 343 -12 424 -12 c 256,15,16
 505 -12 505 -12 572 17 c 128,-1,17
 639 46 639 46 688 95.5 c 128,-1,18
 737 145 737 145 764 211 c 128,-1,19
 791 277 791 277 791 351 c 256,0,1
662 349 m 256,20,21
 662 298 662 298 644.5 252.5 c 128,-1,22
 627 207 627 207 596 173.5 c 128,-1,23
 565 140 565 140 521.5 120.5 c 128,-1,24
 478 101 478 101 426 101 c 256,25,26
 374 101 374 101 330 121 c 128,-1,27
 286 141 286 141 254.5 175 c 128,-1,28
 223 209 223 209 205.5 254.5 c 128,-1,29
 188 300 188 300 188 351 c 256,30,31
 188 402 188 402 205.5 447.5 c 128,-1,32
 223 493 223 493 254 526.5 c 128,-1,33
 285 560 285 560 328.5 579.5 c 128,-1,34
 372 599 372 599 424 599 c 256,35,36
 476 599 476 599 520 579 c 128,-1,37
 564 559 564 559 595.5 525 c 128,-1,38
 627 491 627 491 644.5 445.5 c 128,-1,39
 662 400 662 400 662 349 c 256,20,21
EndSplineSet
EndChar

StartChar: P
Encoding: 80 80 51
Width: 668
Flags: W
LayerCount: 2
Fore
SplineSet
632 465 m 0,0,1
 632 519 632 519 613.5 562 c 128,-1,2
 595 605 595 605 560.5 636 c 128,-1,3
 526 667 526 667 476.5 683.5 c 128,-1,4
 427 700 427 700 366 700 c 2,5,-1
 90 700 l 1,6,-1
 90 0 l 1,7,-1
 213 0 l 1,8,-1
 213 225 l 1,9,-1
 352 225 l 2,10,11
 410 225 410 225 461 240.5 c 128,-1,12
 512 256 512 256 550 286 c 128,-1,13
 588 316 588 316 610 361 c 128,-1,14
 632 406 632 406 632 465 c 0,0,1
507 462 m 0,15,16
 507 405 507 405 466.5 370.5 c 128,-1,17
 426 336 426 336 356 336 c 2,18,-1
 213 336 l 1,19,-1
 213 588 l 1,20,-1
 356 588 l 2,21,22
 425 588 425 588 466 556.5 c 128,-1,23
 507 525 507 525 507 462 c 0,15,16
EndSplineSet
EndChar

StartChar: Q
Encoding: 81 81 52
Width: 850
Flags: W
LayerCount: 2
Fore
SplineSet
720 135 m 1,0,1
 754 181 754 181 772.5 236 c 128,-1,2
 791 291 791 291 791 351 c 0,3,4
 791 425 791 425 764 491 c 128,-1,5
 737 557 737 557 689 606 c 128,-1,6
 641 655 641 655 574 683.5 c 128,-1,7
 507 712 507 712 426 712 c 256,8,9
 345 712 345 712 278 683 c 128,-1,10
 211 654 211 654 162 604.5 c 128,-1,11
 113 555 113 555 86 489 c 128,-1,12
 59 423 59 423 59 349 c 256,13,14
 59 275 59 275 86 209 c 128,-1,15
 113 143 113 143 161 94 c 128,-1,16
 209 45 209 45 276 16.5 c 128,-1,17
 343 -12 343 -12 424 -12 c 0,18,19
 486 -12 486 -12 539 5.5 c 128,-1,20
 592 23 592 23 637 54 c 1,21,-1
 721 -21 l 1,22,-1
 800 67 l 1,23,-1
 720 135 l 1,0,1
546 135 m 1,24,25
 521 119 521 119 491 110 c 128,-1,26
 461 101 461 101 426 101 c 0,27,28
 374 101 374 101 330 121 c 128,-1,29
 286 141 286 141 254.5 175 c 128,-1,30
 223 209 223 209 205.5 254.5 c 128,-1,31
 188 300 188 300 188 351 c 256,32,33
 188 402 188 402 205.5 447.5 c 128,-1,34
 223 493 223 493 254 526.5 c 128,-1,35
 285 560 285 560 328.5 579.5 c 128,-1,36
 372 599 372 599 424 599 c 256,37,38
 476 599 476 599 520 579 c 128,-1,39
 564 559 564 559 595.5 525 c 128,-1,40
 627 491 627 491 644.5 445.5 c 128,-1,41
 662 400 662 400 662 349 c 0,42,43
 662 312 662 312 653 278.5 c 128,-1,44
 644 245 644 245 626 217 c 1,45,-1
 505 327 l 1,46,-1
 426 237 l 1,47,-1
 546 135 l 1,24,25
EndSplineSet
EndChar

StartChar: R
Encoding: 82 82 53
Width: 723
Flags: W
LayerCount: 2
Fore
SplineSet
684 0 m 1,0,-1
 495 265 l 1,1,2
 532 275 532 275 562.5 293.5 c 128,-1,3
 593 312 593 312 615 338.5 c 128,-1,4
 637 365 637 365 649.5 399.5 c 128,-1,5
 662 434 662 434 662 478 c 0,6,7
 662 529 662 529 644 570.5 c 128,-1,8
 626 612 626 612 592.5 640.5 c 128,-1,9
 559 669 559 669 510.5 684.5 c 128,-1,10
 462 700 462 700 402 700 c 2,11,-1
 90 700 l 1,12,-1
 90 0 l 1,13,-1
 213 0 l 1,14,-1
 213 244 l 1,15,-1
 367 244 l 1,16,-1
 539 0 l 1,17,-1
 684 0 l 1,0,-1
537 471 m 0,18,19
 537 417 537 417 498 385 c 128,-1,20
 459 353 459 353 393 353 c 2,21,-1
 213 353 l 1,22,-1
 213 588 l 1,23,-1
 392 588 l 2,24,25
 461 588 461 588 499 558.5 c 128,-1,26
 537 529 537 529 537 471 c 0,18,19
EndSplineSet
EndChar

StartChar: S
Encoding: 83 83 54
Width: 640
Flags: W
LayerCount: 2
Fore
SplineSet
194 517 m 0,0,1
 194 552 194 552 224 576.5 c 128,-1,2
 254 601 254 601 308 601 c 0,3,4
 356 601 356 601 403 582.5 c 128,-1,5
 450 564 450 564 498 529 c 1,6,-1
 564 622 l 1,7,8
 510 665 510 665 448.5 687.5 c 128,-1,9
 387 710 387 710 310 710 c 0,10,11
 258 710 258 710 214 695.5 c 128,-1,12
 170 681 170 681 138.5 654 c 128,-1,13
 107 627 107 627 89 589.5 c 128,-1,14
 71 552 71 552 71 506 c 0,15,16
 71 457 71 457 86.5 423 c 128,-1,17
 102 389 102 389 131.5 365 c 128,-1,18
 161 341 161 341 204.5 325 c 128,-1,19
 248 309 248 309 304 296 c 0,20,21
 353 284 353 284 383.5 273 c 128,-1,22
 414 262 414 262 431.5 249.5 c 128,-1,23
 449 237 449 237 455.5 222 c 128,-1,24
 462 207 462 207 462 188 c 0,25,26
 462 147 462 147 428.5 123 c 128,-1,27
 395 99 395 99 338 99 c 0,28,29
 272 99 272 99 220 122.5 c 128,-1,30
 168 146 168 146 117 190 c 1,31,-1
 43 102 l 1,32,33
 106 45 106 45 180 17.5 c 128,-1,34
 254 -10 254 -10 335 -10 c 0,35,36
 390 -10 390 -10 436 4 c 128,-1,37
 482 18 482 18 515 45 c 128,-1,38
 548 72 548 72 566.5 111 c 128,-1,39
 585 150 585 150 585 200 c 0,40,41
 585 244 585 244 570.5 276.5 c 128,-1,42
 556 309 556 309 528 333.5 c 128,-1,43
 500 358 500 358 457.5 375 c 128,-1,44
 415 392 415 392 360 406 c 0,45,46
 310 418 310 418 277.5 429 c 128,-1,47
 245 440 245 440 226.5 453 c 128,-1,48
 208 466 208 466 201 481 c 128,-1,49
 194 496 194 496 194 517 c 0,0,1
EndSplineSet
EndChar

StartChar: T
Encoding: 84 84 55
Width: 648
Flags: W
LayerCount: 2
Fore
SplineSet
386 586 m 1,0,-1
 608 586 l 1,1,-1
 608 700 l 1,2,-1
 40 700 l 1,3,-1
 40 586 l 1,4,-1
 262 586 l 1,5,-1
 262 0 l 1,6,-1
 386 0 l 1,7,-1
 386 586 l 1,0,-1
EndSplineSet
EndChar

StartChar: U
Encoding: 85 85 56
Width: 757
Flags: W
LayerCount: 2
Fore
SplineSet
678 700 m 1,0,-1
 555 700 l 1,1,-1
 555 297 l 2,2,3
 555 200 555 200 508 151 c 128,-1,4
 461 102 461 102 379 102 c 0,5,6
 296 102 296 102 249 153 c 128,-1,7
 202 204 202 204 202 302 c 2,8,-1
 202 700 l 1,9,-1
 79 700 l 1,10,-1
 79 297 l 2,11,12
 79 221 79 221 100 163.5 c 128,-1,13
 121 106 121 106 160 67 c 128,-1,14
 199 28 199 28 254 8.5 c 128,-1,15
 309 -11 309 -11 377 -11 c 0,16,17
 446 -11 446 -11 501.5 8.5 c 128,-1,18
 557 28 557 28 596 67.5 c 128,-1,19
 635 107 635 107 656.5 166 c 128,-1,20
 678 225 678 225 678 303 c 2,21,-1
 678 700 l 1,0,-1
EndSplineSet
EndChar

StartChar: V
Encoding: 86 86 57
Width: 750
Flags: W
LayerCount: 2
Fore
SplineSet
377 162 m 1,0,-1
 166 700 l 1,1,-1
 30 700 l 1,2,-1
 321 -5 l 1,3,-1
 429 -5 l 1,4,-1
 720 700 l 1,5,-1
 587 700 l 1,6,-1
 377 162 l 1,0,-1
EndSplineSet
EndChar

StartChar: W
Encoding: 87 87 58
Width: 1116
Flags: W
LayerCount: 2
Fore
SplineSet
336 181 m 1,0,-1
 169 700 l 1,1,-1
 36 700 l 1,2,-1
 280 -5 l 1,3,-1
 386 -5 l 1,4,-1
 558 498 l 1,5,-1
 730 -5 l 1,6,-1
 836 -5 l 1,7,-1
 1080 700 l 1,8,-1
 951 700 l 1,9,-1
 784 181 l 1,10,-1
 612 702 l 1,11,-1
 508 702 l 1,12,-1
 336 181 l 1,0,-1
EndSplineSet
EndChar

StartChar: X
Encoding: 88 88 59
Width: 729
Flags: W
LayerCount: 2
Fore
SplineSet
692 0 m 1,0,-1
 438 358 l 1,1,-1
 682 700 l 1,2,-1
 541 700 l 1,3,-1
 366 449 l 1,4,-1
 192 700 l 1,5,-1
 47 700 l 1,6,-1
 292 356 l 1,7,-1
 37 0 l 1,8,-1
 178 0 l 1,9,-1
 363 265 l 1,10,-1
 547 0 l 1,11,-1
 692 0 l 1,0,-1
EndSplineSet
EndChar

StartChar: Y
Encoding: 89 89 60
Width: 716
Flags: W
LayerCount: 2
Fore
SplineSet
420 279 m 1,0,-1
 698 700 l 1,1,-1
 557 700 l 1,2,-1
 359 390 l 1,3,-1
 163 700 l 1,4,-1
 18 700 l 1,5,-1
 296 276 l 1,6,-1
 296 0 l 1,7,-1
 420 0 l 1,8,-1
 420 279 l 1,0,-1
EndSplineSet
EndChar

StartChar: Z
Encoding: 90 90 61
Width: 702
Flags: W
LayerCount: 2
Fore
SplineSet
478 591 m 1,0,-1
 65 91 l 1,1,-1
 65 0 l 1,2,-1
 638 0 l 1,3,-1
 638 109 l 1,4,-1
 225 109 l 1,5,-1
 638 609 l 1,6,-1
 638 700 l 1,7,-1
 78 700 l 1,8,-1
 78 591 l 1,9,-1
 478 591 l 1,0,-1
EndSplineSet
EndChar

StartChar: bracketleft
Encoding: 91 91 62
Width: 454
Flags: W
LayerCount: 2
Fore
SplineSet
395 700 m 1,0,-1
 88 700 l 1,1,-1
 88 -130 l 1,2,-1
 395 -130 l 1,3,-1
 395 -35 l 1,4,-1
 203 -35 l 1,5,-1
 203 605 l 1,6,-1
 395 605 l 1,7,-1
 395 700 l 1,0,-1
EndSplineSet
EndChar

StartChar: backslash
Encoding: 92 92 63
Width: 521
Flags: W
LayerCount: 2
Fore
SplineSet
94 798 m 1,0,-1
 -11 798 l 1,1,-1
 441 -128 l 1,2,-1
 546 -128 l 1,3,-1
 94 798 l 1,0,-1
EndSplineSet
EndChar

StartChar: bracketright
Encoding: 93 93 64
Width: 454
Flags: W
LayerCount: 2
Fore
SplineSet
59 700 m 1,0,-1
 59 605 l 1,1,-1
 251 605 l 1,2,-1
 251 -35 l 1,3,-1
 59 -35 l 1,4,-1
 59 -130 l 1,5,-1
 367 -130 l 1,6,-1
 367 700 l 1,7,-1
 59 700 l 1,0,-1
EndSplineSet
EndChar

StartChar: asciicircum
Encoding: 94 94 65
Width: 500
Flags: W
LayerCount: 2
Fore
SplineSet
249 625 m 1,0,-1
 351 493 l 1,1,-1
 444 493 l 1,2,-1
 293 701 l 1,3,-1
 207 701 l 1,4,-1
 56 493 l 1,5,-1
 147 493 l 1,6,-1
 249 625 l 1,0,-1
EndSplineSet
EndChar

StartChar: underscore
Encoding: 95 95 66
Width: 600
Flags: W
LayerCount: 2
Fore
SplineSet
-2 -66 m 1,0,-1
 -2 -160 l 1,1,-1
 602 -160 l 1,2,-1
 602 -66 l 1,3,-1
 -2 -66 l 1,0,-1
EndSplineSet
EndChar

StartChar: grave
Encoding: 96 96 67
Width: 500
Flags: W
LayerCount: 2
Fore
SplineSet
246 595 m 1,0,-1
 340 595 l 1,1,-1
 234 759 l 1,2,-1
 124 710 l 1,3,-1
 246 595 l 1,0,-1
EndSplineSet
EndChar

StartChar: a
Encoding: 97 97 68
Width: 587
Flags: W
LayerCount: 2
Fore
SplineSet
519 0 m 1,0,-1
 519 313 l 2,1,2
 519 419 519 419 462 477.5 c 128,-1,3
 405 536 405 536 287 536 c 0,4,5
 222 536 222 536 176 524 c 128,-1,6
 130 512 130 512 86 492 c 1,7,-1
 119 395 l 1,8,9
 155 410 155 410 190 419 c 128,-1,10
 225 428 225 428 270 428 c 0,11,12
 333 428 333 428 366.5 399 c 128,-1,13
 400 370 400 370 400 315 c 2,14,-1
 400 302 l 1,15,16
 369 312 369 312 335.5 318 c 128,-1,17
 302 324 302 324 254 324 c 0,18,19
 208 324 208 324 168.5 313.5 c 128,-1,20
 129 303 129 303 100.5 282 c 128,-1,21
 72 261 72 261 56 229 c 128,-1,22
 40 197 40 197 40 154 c 2,23,-1
 40 152 l 2,24,25
 40 112 40 112 55.5 81.5 c 128,-1,26
 71 51 71 51 96.5 30.5 c 128,-1,27
 122 10 122 10 156 -0.5 c 128,-1,28
 190 -11 190 -11 228 -11 c 0,29,30
 288 -11 288 -11 330 11 c 128,-1,31
 372 33 372 33 399 65 c 1,32,-1
 399 0 l 1,33,-1
 519 0 l 1,0,-1
402 191 m 2,34,35
 402 166 402 166 391.5 145.5 c 128,-1,36
 381 125 381 125 362 110.5 c 128,-1,37
 343 96 343 96 317.5 88 c 128,-1,38
 292 80 292 80 262 80 c 0,39,40
 219 80 219 80 189.5 100 c 128,-1,41
 160 120 160 120 160 158 c 2,42,-1
 160 160 l 2,43,44
 160 201 160 201 192 223 c 128,-1,45
 224 245 224 245 281 245 c 0,46,47
 316 245 316 245 347.5 239 c 128,-1,48
 379 233 379 233 402 224 c 1,49,-1
 402 191 l 2,34,35
EndSplineSet
EndChar

StartChar: b
Encoding: 98 98 69
Width: 670
Flags: W
LayerCount: 2
Fore
SplineSet
622 264 m 256,0,1
 622 330 622 330 601 381 c 128,-1,2
 580 432 580 432 545.5 467.5 c 128,-1,3
 511 503 511 503 467 521 c 128,-1,4
 423 539 423 539 376 539 c 0,5,6
 312 539 312 539 269 510.5 c 128,-1,7
 226 482 226 482 197 440 c 1,8,-1
 197 730 l 1,9,-1
 76 730 l 1,10,-1
 76 0 l 1,11,-1
 197 0 l 1,12,-1
 197 82 l 1,13,14
 225 45 225 45 268 17 c 128,-1,15
 311 -11 311 -11 376 -11 c 0,16,17
 423 -11 423 -11 467.5 7 c 128,-1,18
 512 25 512 25 546.5 60.5 c 128,-1,19
 581 96 581 96 601.5 147 c 128,-1,20
 622 198 622 198 622 264 c 256,0,1
499 264 m 256,21,22
 499 225 499 225 487 193.5 c 128,-1,23
 475 162 475 162 454.5 140 c 128,-1,24
 434 118 434 118 406.5 106 c 128,-1,25
 379 94 379 94 348 94 c 256,26,27
 317 94 317 94 289 106 c 128,-1,28
 261 118 261 118 240 140.5 c 128,-1,29
 219 163 219 163 206.5 194 c 128,-1,30
 194 225 194 225 194 264 c 256,31,32
 194 303 194 303 206.5 334 c 128,-1,33
 219 365 219 365 240 387.5 c 128,-1,34
 261 410 261 410 289 422 c 128,-1,35
 317 434 317 434 348 434 c 256,36,37
 379 434 379 434 406.5 422 c 128,-1,38
 434 410 434 410 454.5 388 c 128,-1,39
 475 366 475 366 487 334.5 c 128,-1,40
 499 303 499 303 499 264 c 256,21,22
EndSplineSet
EndChar

StartChar: c
Encoding: 99 99 70
Width: 571
Flags: W
LayerCount: 2
Fore
SplineSet
536 87 m 1,0,-1
 463 159 l 1,1,2
 434 130 434 130 401.5 111.5 c 128,-1,3
 369 93 369 93 326 93 c 0,4,5
 291 93 291 93 262 106.5 c 128,-1,6
 233 120 233 120 212 143 c 128,-1,7
 191 166 191 166 179.5 197 c 128,-1,8
 168 228 168 228 168 264 c 0,9,10
 168 299 168 299 179.5 329.5 c 128,-1,11
 191 360 191 360 211 383 c 128,-1,12
 231 406 231 406 259 419.5 c 128,-1,13
 287 433 287 433 320 433 c 0,14,15
 366 433 366 433 397.5 414.5 c 128,-1,16
 429 396 429 396 457 367 c 1,17,-1
 532 448 l 1,18,19
 495 489 495 489 445.5 514 c 128,-1,20
 396 539 396 539 321 539 c 0,21,22
 262 539 262 539 211.5 517 c 128,-1,23
 161 495 161 495 124.5 457 c 128,-1,24
 88 419 88 419 67.5 369 c 128,-1,25
 47 319 47 319 47 262 c 256,26,27
 47 205 47 205 67.5 155.5 c 128,-1,28
 88 106 88 106 124.5 68.5 c 128,-1,29
 161 31 161 31 211 9.5 c 128,-1,30
 261 -12 261 -12 320 -12 c 0,31,32
 397 -12 397 -12 447 15.5 c 128,-1,33
 497 43 497 43 536 87 c 1,0,-1
EndSplineSet
EndChar

StartChar: d
Encoding: 100 100 71
Width: 670
Flags: W
LayerCount: 2
Fore
SplineSet
595 0 m 1,0,-1
 595 730 l 1,1,-1
 474 730 l 1,2,-1
 474 446 l 1,3,4
 445 483 445 483 402 511 c 128,-1,5
 359 539 359 539 294 539 c 0,6,7
 247 539 247 539 202.5 521 c 128,-1,8
 158 503 158 503 124 467.5 c 128,-1,9
 90 432 90 432 69.5 381 c 128,-1,10
 49 330 49 330 49 264 c 256,11,12
 49 198 49 198 70 147 c 128,-1,13
 91 96 91 96 125 60.5 c 128,-1,14
 159 25 159 25 203 7 c 128,-1,15
 247 -11 247 -11 294 -11 c 0,16,17
 358 -11 358 -11 401.5 18 c 128,-1,18
 445 47 445 47 474 88 c 1,19,-1
 474 0 l 1,20,-1
 595 0 l 1,0,-1
476 264 m 256,21,22
 476 225 476 225 463.5 194 c 128,-1,23
 451 163 451 163 430 140.5 c 128,-1,24
 409 118 409 118 381 106 c 128,-1,25
 353 94 353 94 323 94 c 0,26,27
 292 94 292 94 264.5 106 c 128,-1,28
 237 118 237 118 216 140 c 128,-1,29
 195 162 195 162 183 193.5 c 128,-1,30
 171 225 171 225 171 264 c 0,31,32
 171 304 171 304 183 335.5 c 128,-1,33
 195 367 195 367 216 389 c 128,-1,34
 237 411 237 411 264.5 422.5 c 128,-1,35
 292 434 292 434 323 434 c 0,36,37
 353 434 353 434 381 422 c 128,-1,38
 409 410 409 410 430 387.5 c 128,-1,39
 451 365 451 365 463.5 334 c 128,-1,40
 476 303 476 303 476 264 c 256,21,22
EndSplineSet
EndChar

StartChar: e
Encoding: 101 101 72
Width: 604
Flags: W
LayerCount: 2
Fore
SplineSet
168 221 m 1,0,-1
 556 221 l 1,1,2
 557 230 557 230 557.5 238 c 128,-1,3
 558 246 558 246 558 254 c 0,4,5
 558 311 558 311 542 363 c 128,-1,6
 526 415 526 415 494.5 454 c 128,-1,7
 463 493 463 493 415.5 516 c 128,-1,8
 368 539 368 539 305 539 c 0,9,10
 248 539 248 539 201 517 c 128,-1,11
 154 495 154 495 119.5 457.5 c 128,-1,12
 85 420 85 420 66 370 c 128,-1,13
 47 320 47 320 47 263 c 0,14,15
 47 201 47 201 68 150.5 c 128,-1,16
 89 100 89 100 125.5 64 c 128,-1,17
 162 28 162 28 211.5 8 c 128,-1,18
 261 -12 261 -12 318 -12 c 0,19,20
 391 -12 391 -12 443.5 15 c 128,-1,21
 496 42 496 42 534 87 c 1,22,-1
 463 150 l 1,23,24
 431 119 431 119 398 103 c 128,-1,25
 365 87 365 87 320 87 c 0,26,27
 261 87 261 87 220 121.5 c 128,-1,28
 179 156 179 156 168 221 c 1,0,-1
167 301 m 1,29,30
 175 363 175 363 211.5 401.5 c 128,-1,31
 248 440 248 440 304 440 c 0,32,33
 334 440 334 440 357.5 429 c 128,-1,34
 381 418 381 418 398 399.5 c 128,-1,35
 415 381 415 381 425 355.5 c 128,-1,36
 435 330 435 330 438 301 c 1,37,-1
 167 301 l 1,29,30
EndSplineSet
EndChar

StartChar: f
Encoding: 102 102 73
Width: 376
Flags: W
LayerCount: 2
Fore
SplineSet
222 524 m 1,0,-1
 222 553 l 2,1,2
 222 633 222 633 292 633 c 0,3,4
 312 633 312 633 328.5 629.5 c 128,-1,5
 345 626 345 626 363 620 c 1,6,-1
 363 722 l 1,7,8
 343 728 343 728 320 732 c 128,-1,9
 297 736 297 736 265 736 c 0,10,11
 187 736 187 736 145 693.5 c 128,-1,12
 103 651 103 651 103 563 c 2,13,-1
 103 525 l 1,14,-1
 36 525 l 1,15,-1
 36 424 l 1,16,-1
 103 424 l 1,17,-1
 103 0 l 1,18,-1
 224 0 l 1,19,-1
 224 424 l 1,20,-1
 362 424 l 1,21,-1
 362 524 l 1,22,-1
 222 524 l 1,0,-1
EndSplineSet
EndChar

StartChar: g
Encoding: 103 103 74
Width: 670
Flags: W
LayerCount: 2
Fore
SplineSet
595 108 m 2,0,-1
 595 528 l 1,1,-1
 474 528 l 1,2,-1
 474 449 l 1,3,4
 443 486 443 486 399.5 512.5 c 128,-1,5
 356 539 356 539 289 539 c 0,6,7
 243 539 243 539 199.5 522 c 128,-1,8
 156 505 156 505 122.5 473 c 128,-1,9
 89 441 89 441 69 395 c 128,-1,10
 49 349 49 349 49 290 c 256,11,12
 49 231 49 231 69 185 c 128,-1,13
 89 139 89 139 122.5 107 c 128,-1,14
 156 75 156 75 199 58.5 c 128,-1,15
 242 42 242 42 289 42 c 0,16,17
 354 42 354 42 398 69 c 128,-1,18
 442 96 442 96 475 139 c 1,19,-1
 475 98 l 2,20,21
 475 18 475 18 432 -23 c 128,-1,22
 389 -64 389 -64 308 -64 c 0,23,24
 254 -64 254 -64 208 -49 c 128,-1,25
 162 -34 162 -34 120 -8 c 1,26,-1
 75 -99 l 1,27,28
 179 -162 179 -162 311 -162 c 0,29,30
 447 -162 447 -162 521 -97 c 128,-1,31
 595 -32 595 -32 595 108 c 2,0,-1
476 290 m 256,32,33
 476 257 476 257 463.5 230.5 c 128,-1,34
 451 204 451 204 430 184.5 c 128,-1,35
 409 165 409 165 380.5 154.5 c 128,-1,36
 352 144 352 144 321 144 c 256,37,38
 290 144 290 144 262.5 154.5 c 128,-1,39
 235 165 235 165 215 184.5 c 128,-1,40
 195 204 195 204 183 231 c 128,-1,41
 171 258 171 258 171 291 c 256,42,43
 171 324 171 324 182.5 351 c 128,-1,44
 194 378 194 378 214.5 397 c 128,-1,45
 235 416 235 416 262 426.5 c 128,-1,46
 289 437 289 437 321 437 c 0,47,48
 352 437 352 437 380.5 426.5 c 128,-1,49
 409 416 409 416 430 397 c 128,-1,50
 451 378 451 378 463.5 350.5 c 128,-1,51
 476 323 476 323 476 290 c 256,32,33
EndSplineSet
EndChar

StartChar: h
Encoding: 104 104 75
Width: 620
Flags: W
LayerCount: 2
Fore
SplineSet
197 298 m 2,0,1
 197 360 197 360 230 394.5 c 128,-1,2
 263 429 263 429 316 429 c 0,3,4
 370 429 370 429 399.5 395.5 c 128,-1,5
 429 362 429 362 429 300 c 2,6,-1
 429 0 l 1,7,-1
 550 0 l 1,8,-1
 550 336 l 2,9,10
 550 429 550 429 501 484 c 128,-1,11
 452 539 452 539 362 539 c 0,12,13
 331 539 331 539 306.5 531.5 c 128,-1,14
 282 524 282 524 261.5 511 c 128,-1,15
 241 498 241 498 225.5 481.5 c 128,-1,16
 210 465 210 465 197 446 c 1,17,-1
 197 730 l 1,18,-1
 76 730 l 1,19,-1
 76 0 l 1,20,-1
 197 0 l 1,21,-1
 197 298 l 2,0,1
EndSplineSet
EndChar

StartChar: i
Encoding: 105 105 76
Width: 286
Flags: W
LayerCount: 2
Fore
SplineSet
208 609 m 1,0,-1
 208 724 l 1,1,-1
 78 724 l 1,2,-1
 78 609 l 1,3,-1
 208 609 l 1,0,-1
204 0 m 1,4,-1
 204 528 l 1,5,-1
 83 528 l 1,6,-1
 83 0 l 1,7,-1
 204 0 l 1,4,-1
EndSplineSet
EndChar

StartChar: j
Encoding: 106 106 77
Width: 286
Flags: W
LayerCount: 2
Fore
SplineSet
208 609 m 1,0,-1
 208 724 l 1,1,-1
 78 724 l 1,2,-1
 78 609 l 1,3,-1
 208 609 l 1,0,-1
83 528 m 1,4,-1
 83 0 l 2,5,6
 83 -35 83 -35 67.5 -49.5 c 128,-1,7
 52 -64 52 -64 26 -64 c 0,8,9
 10 -64 10 -64 -8 -61 c 1,10,-1
 -8 -158 l 1,11,12
 6 -160 6 -160 19.5 -161.5 c 128,-1,13
 33 -163 33 -163 50 -163 c 0,14,15
 125 -163 125 -163 164.5 -125.5 c 128,-1,16
 204 -88 204 -88 204 -7 c 2,17,-1
 204 528 l 1,18,-1
 83 528 l 1,4,-1
EndSplineSet
EndChar

StartChar: k
Encoding: 107 107 78
Width: 582
Flags: W
LayerCount: 2
Fore
SplineSet
353 313 m 1,0,-1
 563 528 l 1,1,-1
 416 528 l 1,2,-1
 197 294 l 1,3,-1
 197 730 l 1,4,-1
 76 730 l 1,5,-1
 76 0 l 1,6,-1
 197 0 l 1,7,-1
 197 151 l 1,8,-1
 271 228 l 1,9,-1
 430 0 l 1,10,-1
 570 0 l 1,11,-1
 353 313 l 1,0,-1
EndSplineSet
EndChar

StartChar: l
Encoding: 108 108 79
Width: 286
Flags: W
LayerCount: 2
Fore
SplineSet
204 0 m 1,0,-1
 204 730 l 1,1,-1
 83 730 l 1,2,-1
 83 0 l 1,3,-1
 204 0 l 1,0,-1
EndSplineSet
EndChar

StartChar: m
Encoding: 109 109 80
Width: 950
Flags: W
LayerCount: 2
Fore
SplineSet
515 446 m 1,0,1
 494 488 494 488 454.5 513.5 c 128,-1,2
 415 539 415 539 358 539 c 0,3,4
 328 539 328 539 303.5 531.5 c 128,-1,5
 279 524 279 524 259.5 511 c 128,-1,6
 240 498 240 498 225 482 c 128,-1,7
 210 466 210 466 197 448 c 1,8,-1
 197 528 l 1,9,-1
 76 528 l 1,10,-1
 76 0 l 1,11,-1
 197 0 l 1,12,-1
 197 297 l 2,13,14
 197 359 197 359 228 394 c 128,-1,15
 259 429 259 429 310 429 c 256,16,17
 361 429 361 429 389 396 c 128,-1,18
 417 363 417 363 417 301 c 2,19,-1
 417 0 l 1,20,-1
 538 0 l 1,21,-1
 538 298 l 2,22,23
 538 362 538 362 569.5 395.5 c 128,-1,24
 601 429 601 429 651 429 c 0,25,26
 702 429 702 429 730 396 c 128,-1,27
 758 363 758 363 758 300 c 2,28,-1
 758 0 l 1,29,-1
 879 0 l 1,30,-1
 879 337 l 2,31,32
 879 434 879 434 830 486.5 c 128,-1,33
 781 539 781 539 694 539 c 0,34,35
 634 539 634 539 590.5 513.5 c 128,-1,36
 547 488 547 488 515 446 c 1,0,1
EndSplineSet
EndChar

StartChar: n
Encoding: 110 110 81
Width: 620
Flags: W
LayerCount: 2
Fore
SplineSet
197 298 m 2,0,1
 197 360 197 360 230 394.5 c 128,-1,2
 263 429 263 429 316 429 c 0,3,4
 370 429 370 429 399.5 395.5 c 128,-1,5
 429 362 429 362 429 300 c 2,6,-1
 429 0 l 1,7,-1
 550 0 l 1,8,-1
 550 336 l 2,9,10
 550 429 550 429 501 484 c 128,-1,11
 452 539 452 539 362 539 c 0,12,13
 331 539 331 539 306.5 531.5 c 128,-1,14
 282 524 282 524 261.5 511 c 128,-1,15
 241 498 241 498 225.5 481.5 c 128,-1,16
 210 465 210 465 197 446 c 1,17,-1
 197 528 l 1,18,-1
 76 528 l 1,19,-1
 76 0 l 1,20,-1
 197 0 l 1,21,-1
 197 298 l 2,0,1
EndSplineSet
EndChar

StartChar: o
Encoding: 111 111 82
Width: 657
Flags: W
LayerCount: 2
Fore
SplineSet
610 264 m 256,0,1
 610 321 610 321 589 371 c 128,-1,2
 568 421 568 421 530.5 458.5 c 128,-1,3
 493 496 493 496 441.5 517.5 c 128,-1,4
 390 539 390 539 329 539 c 256,5,6
 268 539 268 539 216.5 517 c 128,-1,7
 165 495 165 495 127.5 457.5 c 128,-1,8
 90 420 90 420 68.5 369.5 c 128,-1,9
 47 319 47 319 47 262 c 256,10,11
 47 205 47 205 68 155.5 c 128,-1,12
 89 106 89 106 126.5 68.5 c 128,-1,13
 164 31 164 31 215.5 9.5 c 128,-1,14
 267 -12 267 -12 327 -12 c 0,15,16
 388 -12 388 -12 440 10 c 128,-1,17
 492 32 492 32 529.5 69.5 c 128,-1,18
 567 107 567 107 588.5 157 c 128,-1,19
 610 207 610 207 610 264 c 256,0,1
489 262 m 256,20,21
 489 227 489 227 478 196.5 c 128,-1,22
 467 166 467 166 446 143 c 128,-1,23
 425 120 425 120 395.5 106.5 c 128,-1,24
 366 93 366 93 329 93 c 0,25,26
 294 93 294 93 264.5 106.5 c 128,-1,27
 235 120 235 120 213.5 143 c 128,-1,28
 192 166 192 166 180 197.5 c 128,-1,29
 168 229 168 229 168 264 c 256,30,31
 168 299 168 299 179 329.5 c 128,-1,32
 190 360 190 360 211 383 c 128,-1,33
 232 406 232 406 261.5 419.5 c 128,-1,34
 291 433 291 433 327 433 c 256,35,36
 363 433 363 433 392.5 419.5 c 128,-1,37
 422 406 422 406 443.5 382.5 c 128,-1,38
 465 359 465 359 477 328 c 128,-1,39
 489 297 489 297 489 262 c 256,20,21
EndSplineSet
EndChar

StartChar: p
Encoding: 112 112 83
Width: 670
Flags: W
LayerCount: 2
Fore
SplineSet
622 264 m 256,0,1
 622 330 622 330 601 381 c 128,-1,2
 580 432 580 432 545.5 467.5 c 128,-1,3
 511 503 511 503 467 521 c 128,-1,4
 423 539 423 539 376 539 c 0,5,6
 312 539 312 539 269 510.5 c 128,-1,7
 226 482 226 482 197 440 c 1,8,-1
 197 528 l 1,9,-1
 76 528 l 1,10,-1
 76 -160 l 1,11,-1
 197 -160 l 1,12,-1
 197 82 l 1,13,14
 225 45 225 45 268 17 c 128,-1,15
 311 -11 311 -11 376 -11 c 0,16,17
 423 -11 423 -11 467.5 7 c 128,-1,18
 512 25 512 25 546.5 60.5 c 128,-1,19
 581 96 581 96 601.5 147 c 128,-1,20
 622 198 622 198 622 264 c 256,0,1
499 264 m 256,21,22
 499 225 499 225 487 193.5 c 128,-1,23
 475 162 475 162 454.5 140 c 128,-1,24
 434 118 434 118 406.5 106 c 128,-1,25
 379 94 379 94 348 94 c 256,26,27
 317 94 317 94 289 106 c 128,-1,28
 261 118 261 118 240 140.5 c 128,-1,29
 219 163 219 163 206.5 194 c 128,-1,30
 194 225 194 225 194 264 c 256,31,32
 194 303 194 303 206.5 334 c 128,-1,33
 219 365 219 365 240 387.5 c 128,-1,34
 261 410 261 410 289 422 c 128,-1,35
 317 434 317 434 348 434 c 256,36,37
 379 434 379 434 406.5 422 c 128,-1,38
 434 410 434 410 454.5 388 c 128,-1,39
 475 366 475 366 487 334.5 c 128,-1,40
 499 303 499 303 499 264 c 256,21,22
EndSplineSet
EndChar

StartChar: q
Encoding: 113 113 84
Width: 670
Flags: W
LayerCount: 2
Fore
SplineSet
595 -160 m 1,0,-1
 595 528 l 1,1,-1
 474 528 l 1,2,-1
 474 446 l 1,3,4
 445 483 445 483 402 511 c 128,-1,5
 359 539 359 539 294 539 c 0,6,7
 247 539 247 539 202.5 521 c 128,-1,8
 158 503 158 503 124 467.5 c 128,-1,9
 90 432 90 432 69.5 381 c 128,-1,10
 49 330 49 330 49 264 c 256,11,12
 49 198 49 198 70 147 c 128,-1,13
 91 96 91 96 125 60.5 c 128,-1,14
 159 25 159 25 203 7 c 128,-1,15
 247 -11 247 -11 294 -11 c 0,16,17
 358 -11 358 -11 401.5 18 c 128,-1,18
 445 47 445 47 474 88 c 1,19,-1
 474 -160 l 1,20,-1
 595 -160 l 1,0,-1
476 264 m 256,21,22
 476 225 476 225 463.5 194 c 128,-1,23
 451 163 451 163 430 140.5 c 128,-1,24
 409 118 409 118 381 106 c 128,-1,25
 353 94 353 94 323 94 c 0,26,27
 292 94 292 94 264.5 106 c 128,-1,28
 237 118 237 118 216 140 c 128,-1,29
 195 162 195 162 183 193.5 c 128,-1,30
 171 225 171 225 171 264 c 0,31,32
 171 304 171 304 183 335.5 c 128,-1,33
 195 367 195 367 216 389 c 128,-1,34
 237 411 237 411 264.5 422.5 c 128,-1,35
 292 434 292 434 323 434 c 0,36,37
 353 434 353 434 381 422 c 128,-1,38
 409 410 409 410 430 387.5 c 128,-1,39
 451 365 451 365 463.5 334 c 128,-1,40
 476 303 476 303 476 264 c 256,21,22
EndSplineSet
EndChar

StartChar: r
Encoding: 114 114 85
Width: 413
Flags: W
LayerCount: 2
Fore
SplineSet
197 201 m 2,0,1
 197 253 197 253 210 292.5 c 128,-1,2
 223 332 223 332 247 358 c 128,-1,3
 271 384 271 384 304 397 c 128,-1,4
 337 410 337 410 377 410 c 2,5,-1
 384 410 l 1,6,-1
 384 538 l 1,7,8
 314 541 314 541 268 505 c 128,-1,9
 222 469 222 469 197 409 c 1,10,-1
 197 528 l 1,11,-1
 76 528 l 1,12,-1
 76 0 l 1,13,-1
 197 0 l 1,14,-1
 197 201 l 2,0,1
EndSplineSet
EndChar

StartChar: s
Encoding: 115 115 86
Width: 500
Flags: W
LayerCount: 2
Fore
SplineSet
453 156 m 2,0,-1
 453 158 l 2,1,2
 453 194 453 194 438 219 c 128,-1,3
 423 244 423 244 399.5 261.5 c 128,-1,4
 376 279 376 279 347 291 c 128,-1,5
 318 303 318 303 289 312 c 0,6,7
 266 319 266 319 244.5 326.5 c 128,-1,8
 223 334 223 334 206.5 342.5 c 128,-1,9
 190 351 190 351 180 361.5 c 128,-1,10
 170 372 170 372 170 386 c 2,11,-1
 170 388 l 2,12,13
 170 411 170 411 189.5 426 c 128,-1,14
 209 441 209 441 244 441 c 0,15,16
 277 441 277 441 316 427.5 c 128,-1,17
 355 414 355 414 393 391 c 1,18,-1
 441 477 l 1,19,20
 399 505 399 505 348 521 c 128,-1,21
 297 537 297 537 247 537 c 0,22,23
 208 537 208 537 173.5 526 c 128,-1,24
 139 515 139 515 113.5 494 c 128,-1,25
 88 473 88 473 73.5 443 c 128,-1,26
 59 413 59 413 59 376 c 2,27,-1
 59 374 l 2,28,29
 59 336 59 336 74 310.5 c 128,-1,30
 89 285 89 285 112.5 267.5 c 128,-1,31
 136 250 136 250 165.5 239 c 128,-1,32
 195 228 195 228 224 219 c 0,33,34
 247 212 247 212 268.5 205.5 c 128,-1,35
 290 199 290 199 306.5 190.5 c 128,-1,36
 323 182 323 182 332.5 171 c 128,-1,37
 342 160 342 160 342 145 c 2,38,-1
 342 143 l 2,39,40
 342 117 342 117 320.5 101.5 c 128,-1,41
 299 86 299 86 260 86 c 0,42,43
 219 86 219 86 174.5 102.5 c 128,-1,44
 130 119 130 119 87 151 c 1,45,-1
 33 69 l 1,46,47
 83 30 83 30 141.5 10 c 128,-1,48
 200 -10 200 -10 257 -10 c 0,49,50
 298 -10 298 -10 334 0.5 c 128,-1,51
 370 11 370 11 396.5 31.5 c 128,-1,52
 423 52 423 52 438 83 c 128,-1,53
 453 114 453 114 453 156 c 2,0,-1
EndSplineSet
EndChar

StartChar: t
Encoding: 116 116 87
Width: 410
Flags: W
LayerCount: 2
Fore
SplineSet
222 424 m 1,0,-1
 364 424 l 1,1,-1
 364 528 l 1,2,-1
 222 528 l 1,3,-1
 222 673 l 1,4,-1
 101 673 l 1,5,-1
 101 528 l 1,6,-1
 34 528 l 1,7,-1
 34 424 l 1,8,-1
 101 424 l 1,9,-1
 101 146 l 2,10,11
 101 102 101 102 112 72.5 c 128,-1,12
 123 43 123 43 143.5 25 c 128,-1,13
 164 7 164 7 192 -1 c 128,-1,14
 220 -9 220 -9 253 -9 c 0,15,16
 287 -9 287 -9 313 -2 c 128,-1,17
 339 5 339 5 362 18 c 1,18,-1
 362 117 l 1,19,20
 326 99 326 99 287 99 c 0,21,22
 256 99 256 99 239 114.5 c 128,-1,23
 222 130 222 130 222 165 c 2,24,-1
 222 424 l 1,0,-1
EndSplineSet
EndChar

StartChar: u
Encoding: 117 117 88
Width: 620
Flags: W
LayerCount: 2
Fore
SplineSet
423 230 m 2,0,1
 423 168 423 168 390 133.5 c 128,-1,2
 357 99 357 99 304 99 c 0,3,4
 250 99 250 99 220.5 132.5 c 128,-1,5
 191 166 191 166 191 228 c 2,6,-1
 191 528 l 1,7,-1
 70 528 l 1,8,-1
 70 192 l 2,9,10
 70 99 70 99 119 44 c 128,-1,11
 168 -11 168 -11 258 -11 c 0,12,13
 319 -11 319 -11 358 16.5 c 128,-1,14
 397 44 397 44 423 82 c 1,15,-1
 423 0 l 1,16,-1
 544 0 l 1,17,-1
 544 528 l 1,18,-1
 423 528 l 1,19,-1
 423 230 l 2,0,1
EndSplineSet
EndChar

StartChar: v
Encoding: 118 118 89
Width: 595
Flags: W
LayerCount: 2
Fore
SplineSet
298 140 m 1,0,-1
 156 528 l 1,1,-1
 26 528 l 1,2,-1
 243 -4 l 1,3,-1
 352 -4 l 1,4,-1
 568 528 l 1,5,-1
 441 528 l 1,6,-1
 298 140 l 1,0,-1
EndSplineSet
EndChar

StartChar: w
Encoding: 119 119 90
Width: 861
Flags: W
LayerCount: 2
Fore
SplineSet
482 530 m 1,0,-1
 379 530 l 1,1,-1
 262 166 l 1,2,-1
 156 528 l 1,3,-1
 32 528 l 1,4,-1
 203 -4 l 1,5,-1
 311 -4 l 1,6,-1
 430 357 l 1,7,-1
 548 -4 l 1,8,-1
 656 -4 l 1,9,-1
 829 528 l 1,10,-1
 708 528 l 1,11,-1
 600 166 l 1,12,-1
 482 530 l 1,0,-1
EndSplineSet
EndChar

StartChar: x
Encoding: 120 120 91
Width: 580
Flags: W
LayerCount: 2
Fore
SplineSet
355 271 m 1,0,-1
 542 528 l 1,1,-1
 413 528 l 1,2,-1
 291 354 l 1,3,-1
 169 528 l 1,4,-1
 37 528 l 1,5,-1
 224 268 l 1,6,-1
 30 0 l 1,7,-1
 159 0 l 1,8,-1
 288 185 l 1,9,-1
 418 0 l 1,10,-1
 550 0 l 1,11,-1
 355 271 l 1,0,-1
EndSplineSet
EndChar

StartChar: y
Encoding: 121 121 92
Width: 596
Flags: W
LayerCount: 2
Fore
SplineSet
568 528 m 1,0,-1
 442 528 l 1,1,-1
 305 136 l 1,2,-1
 155 528 l 1,3,-1
 26 528 l 1,4,-1
 246 0 l 1,5,6
 231 -35 231 -35 214 -48 c 128,-1,7
 197 -61 197 -61 171 -61 c 0,8,9
 152 -61 152 -61 134.5 -55.5 c 128,-1,10
 117 -50 117 -50 100 -41 c 1,11,-1
 59 -131 l 1,12,13
 87 -146 87 -146 116.5 -154.5 c 128,-1,14
 146 -163 146 -163 184 -163 c 0,15,16
 216 -163 216 -163 241 -155 c 128,-1,17
 266 -147 266 -147 287 -129.5 c 128,-1,18
 308 -112 308 -112 325 -84 c 128,-1,19
 342 -56 342 -56 358 -15 c 2,20,-1
 568 528 l 1,0,-1
EndSplineSet
EndChar

StartChar: z
Encoding: 122 122 93
Width: 560
Flags: W
LayerCount: 2
Fore
SplineSet
357 429 m 1,0,-1
 52 83 l 1,1,-1
 52 0 l 1,2,-1
 511 0 l 1,3,-1
 511 99 l 1,4,-1
 206 99 l 1,5,-1
 511 445 l 1,6,-1
 511 528 l 1,7,-1
 63 528 l 1,8,-1
 63 429 l 1,9,-1
 357 429 l 1,0,-1
EndSplineSet
EndChar

StartChar: braceleft
Encoding: 123 123 94
Width: 487
Flags: W
LayerCount: 2
Fore
SplineSet
437 635 m 1,0,-1
 416 715 l 1,1,2
 348 703 348 703 304 684.5 c 128,-1,3
 260 666 260 666 234.5 641 c 128,-1,4
 209 616 209 616 199 585 c 128,-1,5
 189 554 189 554 189 515 c 0,6,7
 189 509 189 509 189.5 499.5 c 128,-1,8
 190 490 190 490 190 479 c 0,9,10
 190 469 190 469 190.5 459 c 128,-1,11
 191 449 191 449 191 443 c 0,12,13
 191 384 191 384 166 358.5 c 128,-1,14
 141 333 141 333 78 333 c 2,15,-1
 52 333 l 1,16,-1
 52 241 l 1,17,-1
 78 241 l 2,18,19
 141 241 141 241 166 215.5 c 128,-1,20
 191 190 191 190 191 131 c 0,21,22
 191 125 191 125 190.5 115 c 128,-1,23
 190 105 190 105 190 94 c 0,24,25
 190 84 190 84 189.5 74.5 c 128,-1,26
 189 65 189 65 189 59 c 0,27,28
 189 20 189 20 199 -11.5 c 128,-1,29
 209 -43 209 -43 234.5 -67.5 c 128,-1,30
 260 -92 260 -92 304 -110.5 c 128,-1,31
 348 -129 348 -129 416 -141 c 1,32,-1
 437 -61 l 1,33,34
 392 -49 392 -49 365 -36 c 128,-1,35
 338 -23 338 -23 324 -7.5 c 128,-1,36
 310 8 310 8 305.5 28.5 c 128,-1,37
 301 49 301 49 301 76 c 0,38,39
 301 91 301 91 302 112.5 c 128,-1,40
 303 134 303 134 303 150 c 0,41,42
 303 209 303 209 276.5 239.5 c 128,-1,43
 250 270 250 270 199 287 c 1,44,45
 249 303 249 303 276 334 c 128,-1,46
 303 365 303 365 303 424 c 0,47,48
 303 440 303 440 302 461.5 c 128,-1,49
 301 483 301 483 301 498 c 0,50,51
 301 525 301 525 305.5 545.5 c 128,-1,52
 310 566 310 566 324 581.5 c 128,-1,53
 338 597 338 597 365 610 c 128,-1,54
 392 623 392 623 437 635 c 1,0,-1
EndSplineSet
EndChar

StartChar: bar
Encoding: 124 124 95
Width: 331
Flags: W
LayerCount: 2
Fore
SplineSet
214 -128 m 1,0,-1
 214 798 l 1,1,-1
 117 798 l 1,2,-1
 117 -128 l 1,3,-1
 214 -128 l 1,0,-1
EndSplineSet
EndChar

StartChar: braceright
Encoding: 125 125 96
Width: 487
Flags: W
LayerCount: 2
Fore
SplineSet
50 -61 m 1,0,-1
 71 -141 l 1,1,2
 139 -129 139 -129 183 -110.5 c 128,-1,3
 227 -92 227 -92 252.5 -67.5 c 128,-1,4
 278 -43 278 -43 288 -11.5 c 128,-1,5
 298 20 298 20 298 59 c 0,6,7
 298 65 298 65 297.5 74.5 c 128,-1,8
 297 84 297 84 297 94 c 0,9,10
 297 105 297 105 296.5 115 c 128,-1,11
 296 125 296 125 296 131 c 0,12,13
 296 190 296 190 321 215.5 c 128,-1,14
 346 241 346 241 409 241 c 2,15,-1
 435 241 l 1,16,-1
 435 333 l 1,17,-1
 409 333 l 2,18,19
 346 333 346 333 321 358.5 c 128,-1,20
 296 384 296 384 296 443 c 0,21,22
 296 449 296 449 296.5 459 c 128,-1,23
 297 469 297 469 297 479 c 0,24,25
 297 490 297 490 297.5 499.5 c 128,-1,26
 298 509 298 509 298 515 c 0,27,28
 298 554 298 554 288 585 c 128,-1,29
 278 616 278 616 252.5 641 c 128,-1,30
 227 666 227 666 183 684.5 c 128,-1,31
 139 703 139 703 71 715 c 1,32,-1
 50 635 l 1,33,34
 95 623 95 623 122 610 c 128,-1,35
 149 597 149 597 163 581.5 c 128,-1,36
 177 566 177 566 181.5 545.5 c 128,-1,37
 186 525 186 525 186 498 c 0,38,39
 186 483 186 483 185 461.5 c 128,-1,40
 184 440 184 440 184 424 c 0,41,42
 184 365 184 365 210.5 334.5 c 128,-1,43
 237 304 237 304 288 287 c 1,44,45
 238 271 238 271 211 240 c 128,-1,46
 184 209 184 209 184 150 c 0,47,48
 184 134 184 134 185 112.5 c 128,-1,49
 186 91 186 91 186 76 c 0,50,51
 186 49 186 49 181.5 28.5 c 128,-1,52
 177 8 177 8 163 -7.5 c 128,-1,53
 149 -23 149 -23 122 -36 c 128,-1,54
 95 -49 95 -49 50 -61 c 1,0,-1
EndSplineSet
EndChar

StartChar: asciitilde
Encoding: 126 126 97
Width: 495
Flags: W
LayerCount: 2
Fore
SplineSet
436 364 m 1,0,-1
 369 384 l 1,1,2
 358 358 358 358 347 346 c 128,-1,3
 336 334 336 334 314 334 c 0,4,5
 301 334 301 334 284.5 340 c 128,-1,6
 268 346 268 346 250 353.5 c 128,-1,7
 232 361 232 361 212 367.5 c 128,-1,8
 192 374 192 374 171 374 c 0,9,10
 125 374 125 374 100.5 342 c 128,-1,11
 76 310 76 310 59 250 c 1,12,-1
 126 229 l 1,13,14
 137 255 137 255 148 267 c 128,-1,15
 159 279 159 279 181 279 c 0,16,17
 194 279 194 279 210.5 272.5 c 128,-1,18
 227 266 227 266 245 258.5 c 128,-1,19
 263 251 263 251 283 245 c 128,-1,20
 303 239 303 239 324 239 c 0,21,22
 370 239 370 239 394.5 271 c 128,-1,23
 419 303 419 303 436 364 c 1,0,-1
EndSplineSet
EndChar

StartChar: Aring
Encoding: 197 197 99
Width: 790
Flags: W
LayerCount: 2
Fore
SplineSet
328 684 m 1,0,-1
 30 0 l 1,1,-1
 156 0 l 1,2,-1
 228 169 l 1,3,-1
 559 169 l 1,4,-1
 630 0 l 1,5,-1
 760 0 l 1,6,-1
 462 684 l 1,7,8
 482 699 482 699 495.5 721.5 c 128,-1,9
 509 744 509 744 509 772 c 0,10,11
 509 794 509 794 499.5 814 c 128,-1,12
 490 834 490 834 474.5 849 c 128,-1,13
 459 864 459 864 438 873 c 128,-1,14
 417 882 417 882 395 882 c 0,15,16
 372 882 372 882 351.5 873 c 128,-1,17
 331 864 331 864 315.5 849 c 128,-1,18
 300 834 300 834 290.5 814 c 128,-1,19
 281 794 281 794 281 772 c 0,20,21
 281 744 281 744 294.5 721.5 c 128,-1,22
 308 699 308 699 328 684 c 1,0,-1
457 772 m 256,23,24
 457 746 457 746 439 728 c 128,-1,25
 421 710 421 710 395 710 c 256,26,27
 369 710 369 710 351 728 c 128,-1,28
 333 746 333 746 333 772 c 256,29,30
 333 798 333 798 351 816 c 128,-1,31
 369 834 369 834 395 834 c 256,32,33
 421 834 421 834 439 816 c 128,-1,34
 457 798 457 798 457 772 c 256,23,24
514 278 m 1,35,-1
 273 278 l 1,36,-1
 393 558 l 1,37,-1
 514 278 l 1,35,-1
EndSplineSet
EndChar

StartChar: Ccedilla
Encoding: 199 199 100
Width: 738
Flags: W
LayerCount: 2
Fore
SplineSet
345 -5 m 1,0,-1
 266 -121 l 1,1,-1
 371 -165 l 1,2,-1
 437 -11 l 1,3,4
 482 -9 482 -9 519 0.5 c 128,-1,5
 556 10 556 10 587.5 26 c 128,-1,6
 619 42 619 42 646 63.5 c 128,-1,7
 673 85 673 85 699 112 c 1,8,-1
 620 192 l 1,9,10
 575 150 575 150 529 125.5 c 128,-1,11
 483 101 483 101 419 101 c 0,12,13
 369 101 369 101 326.5 120.5 c 128,-1,14
 284 140 284 140 253 174 c 128,-1,15
 222 208 222 208 205 253.5 c 128,-1,16
 188 299 188 299 188 351 c 256,17,18
 188 403 188 403 205 448 c 128,-1,19
 222 493 222 493 253 526.5 c 128,-1,20
 284 560 284 560 326.5 579.5 c 128,-1,21
 369 599 369 599 419 599 c 0,22,23
 479 599 479 599 526 575 c 128,-1,24
 573 551 573 551 615 512 c 1,25,-1
 694 603 l 1,26,27
 669 627 669 627 641 647 c 128,-1,28
 613 667 613 667 580 681.5 c 128,-1,29
 547 696 547 696 507.5 704 c 128,-1,30
 468 712 468 712 420 712 c 0,31,32
 340 712 340 712 274 683.5 c 128,-1,33
 208 655 208 655 160 605.5 c 128,-1,34
 112 556 112 556 85.5 490 c 128,-1,35
 59 424 59 424 59 349 c 0,36,37
 59 282 59 282 80 223 c 128,-1,38
 101 164 101 164 139 117 c 128,-1,39
 177 70 177 70 229.5 38.5 c 128,-1,40
 282 7 282 7 345 -5 c 1,0,-1
EndSplineSet
EndChar

StartChar: ccedilla
Encoding: 231 231 111
Width: 571
Flags: W
LayerCount: 2
Fore
SplineSet
250 -3 m 1,0,-1
 170 -121 l 1,1,-1
 276 -165 l 1,2,-1
 341 -11 l 1,3,4
 409 -7 409 -7 454 20 c 128,-1,5
 499 47 499 47 536 87 c 1,6,-1
 463 159 l 1,7,8
 434 130 434 130 401.5 111.5 c 128,-1,9
 369 93 369 93 326 93 c 0,10,11
 291 93 291 93 262 106.5 c 128,-1,12
 233 120 233 120 212 143 c 128,-1,13
 191 166 191 166 179.5 197 c 128,-1,14
 168 228 168 228 168 264 c 0,15,16
 168 299 168 299 179.5 329.5 c 128,-1,17
 191 360 191 360 211 383 c 128,-1,18
 231 406 231 406 259 419.5 c 128,-1,19
 287 433 287 433 320 433 c 0,20,21
 366 433 366 433 397.5 414.5 c 128,-1,22
 429 396 429 396 457 367 c 1,23,-1
 532 448 l 1,24,25
 495 489 495 489 445.5 514 c 128,-1,26
 396 539 396 539 321 539 c 0,27,28
 262 539 262 539 211.5 517 c 128,-1,29
 161 495 161 495 124.5 457 c 128,-1,30
 88 419 88 419 67.5 369 c 128,-1,31
 47 319 47 319 47 262 c 0,32,33
 47 214 47 214 62 171 c 128,-1,34
 77 128 77 128 103.5 93 c 128,-1,35
 130 58 130 58 167.5 33 c 128,-1,36
 205 8 205 8 250 -3 c 1,0,-1
EndSplineSet
EndChar

StartChar: dagger
Encoding: 8224 8224 130
Width: 410
Flags: W
LayerCount: 2
Fore
SplineSet
232 513 m 1,0,-1
 354 504 l 1,1,-1
 354 575 l 1,2,-1
 233 566 l 1,3,-1
 245 700 l 1,4,-1
 165 700 l 1,5,-1
 177 566 l 1,6,-1
 56 575 l 1,7,-1
 56 504 l 1,8,-1
 178 513 l 1,9,-1
 169 238 l 1,10,-1
 241 238 l 1,11,-1
 232 513 l 1,0,-1
EndSplineSet
EndChar

StartChar: degree
Encoding: 176 176 131
Width: 471
Flags: W
LayerCount: 2
Fore
SplineSet
402 544 m 256,0,1
 402 577 402 577 388.5 606 c 128,-1,2
 375 635 375 635 351.5 657.5 c 128,-1,3
 328 680 328 680 298 693 c 128,-1,4
 268 706 268 706 235 706 c 256,5,6
 202 706 202 706 172 693 c 128,-1,7
 142 680 142 680 119 657.5 c 128,-1,8
 96 635 96 635 82.5 606 c 128,-1,9
 69 577 69 577 69 544 c 256,10,11
 69 511 69 511 82.5 481.5 c 128,-1,12
 96 452 96 452 119 429.5 c 128,-1,13
 142 407 142 407 172 394 c 128,-1,14
 202 381 202 381 235 381 c 256,15,16
 268 381 268 381 298 394 c 128,-1,17
 328 407 328 407 351.5 429.5 c 128,-1,18
 375 452 375 452 388.5 481.5 c 128,-1,19
 402 511 402 511 402 544 c 256,0,1
330 544 m 0,20,21
 330 524 330 524 323 506.5 c 128,-1,22
 316 489 316 489 303 476 c 128,-1,23
 290 463 290 463 273 455 c 128,-1,24
 256 447 256 447 235 447 c 0,25,26
 215 447 215 447 197.5 455 c 128,-1,27
 180 463 180 463 167.5 476 c 128,-1,28
 155 489 155 489 148 506.5 c 128,-1,29
 141 524 141 524 141 544 c 0,30,31
 141 563 141 563 148 580.5 c 128,-1,32
 155 598 155 598 167.5 611 c 128,-1,33
 180 624 180 624 197.5 632 c 128,-1,34
 215 640 215 640 235 640 c 0,35,36
 256 640 256 640 273 632 c 128,-1,37
 290 624 290 624 303 611 c 128,-1,38
 316 598 316 598 323 580.5 c 128,-1,39
 330 563 330 563 330 544 c 0,20,21
EndSplineSet
EndChar

StartChar: cent
Encoding: 162 162 132
Width: 581
Flags: W
LayerCount: 2
Fore
SplineSet
538 181 m 1,0,-1
 468 250 l 1,1,2
 442 224 442 224 410.5 206 c 128,-1,3
 379 188 379 188 341 186 c 0,4,5
 334 186 334 186 331 187 c 2,6,-1
 394 510 l 1,7,8
 414 502 414 502 430.5 489.5 c 128,-1,9
 447 477 447 477 464 461 c 1,10,-1
 537 539 l 1,11,12
 513 565 513 565 485 585.5 c 128,-1,13
 457 606 457 606 419 617 c 1,14,-1
 437 706 l 1,15,-1
 349 706 l 1,16,-1
 334 630 l 1,17,-1
 325 630 l 2,18,19
 266 630 266 630 216 608 c 128,-1,20
 166 586 166 586 129.5 548.5 c 128,-1,21
 93 511 93 511 72.5 461 c 128,-1,22
 52 411 52 411 52 354 c 0,23,24
 52 309 52 309 65 268.5 c 128,-1,25
 78 228 78 228 101.5 194 c 128,-1,26
 125 160 125 160 158 134.5 c 128,-1,27
 191 109 191 109 230 95 c 1,28,-1
 210 -6 l 1,29,-1
 298 -6 l 1,30,-1
 314 81 l 1,31,32
 318 80 318 80 326 80 c 0,33,34
 398 81 398 81 448.5 108.5 c 128,-1,35
 499 136 499 136 538 181 c 1,0,-1
317 525 m 1,36,-1
 255 203 l 1,37,38
 216 224 216 224 193 264.5 c 128,-1,39
 170 305 170 305 170 356 c 0,40,41
 170 390 170 390 181 420 c 128,-1,42
 192 450 192 450 211 473 c 128,-1,43
 230 496 230 496 256.5 509.5 c 128,-1,44
 283 523 283 523 315 525 c 2,45,-1
 317 525 l 1,36,-1
EndSplineSet
EndChar

StartChar: sterling
Encoding: 163 163 133
Width: 644
Flags: W
LayerCount: 2
Fore
SplineSet
142 382 m 1,0,-1
 63 382 l 1,1,-1
 63 278 l 1,2,-1
 142 278 l 1,3,-1
 142 102 l 1,4,-1
 63 78 l 1,5,-1
 63 0 l 1,6,-1
 591 0 l 1,7,-1
 591 107 l 1,8,-1
 266 107 l 1,9,-1
 266 278 l 1,10,-1
 515 278 l 1,11,-1
 515 382 l 1,12,-1
 266 382 l 1,13,-1
 266 471 l 2,14,15
 266 529 266 529 294 562.5 c 128,-1,16
 322 596 322 596 373 596 c 0,17,18
 415 596 415 596 443.5 577 c 128,-1,19
 472 558 472 558 499 523 c 1,20,-1
 593 598 l 1,21,22
 575 622 575 622 554 642.5 c 128,-1,23
 533 663 533 663 506.5 678 c 128,-1,24
 480 693 480 693 447 701.5 c 128,-1,25
 414 710 414 710 372 710 c 0,26,27
 262 710 262 710 202 646.5 c 128,-1,28
 142 583 142 583 142 474 c 2,29,-1
 142 382 l 1,0,-1
EndSplineSet
EndChar

StartChar: section
Encoding: 167 167 134
Width: 632
Flags: W
LayerCount: 2
Fore
SplineSet
574 350 m 0,0,1
 574 405 574 405 524 438 c 128,-1,2
 474 471 474 471 358 497 c 0,3,4
 317 506 317 506 291.5 514.5 c 128,-1,5
 266 523 266 523 251.5 531 c 128,-1,6
 237 539 237 539 231.5 548 c 128,-1,7
 226 557 226 557 226 568 c 0,8,9
 226 590 226 590 245.5 604 c 128,-1,10
 265 618 265 618 307 618 c 0,11,12
 355 618 355 618 394 598.5 c 128,-1,13
 433 579 433 579 468 547 c 1,14,-1
 537 615 l 1,15,16
 495 660 495 660 437.5 685 c 128,-1,17
 380 710 380 710 306 710 c 0,18,19
 213 710 213 710 161.5 670 c 128,-1,20
 110 630 110 630 110 563 c 0,21,22
 110 502 110 502 165 467 c 1,23,24
 117 454 117 454 87.5 426 c 128,-1,25
 58 398 58 398 58 350 c 0,26,27
 58 322 58 322 70 300.5 c 128,-1,28
 82 279 82 279 108 262 c 128,-1,29
 134 245 134 245 175 230.5 c 128,-1,30
 216 216 216 216 274 203 c 0,31,32
 314 194 314 194 340 185.5 c 128,-1,33
 366 177 366 177 380.5 169 c 128,-1,34
 395 161 395 161 400.5 152 c 128,-1,35
 406 143 406 143 406 132 c 0,36,37
 406 110 406 110 386.5 96 c 128,-1,38
 367 82 367 82 325 82 c 0,39,40
 277 82 277 82 238 101.5 c 128,-1,41
 199 121 199 121 164 153 c 1,42,-1
 95 85 l 1,43,44
 137 40 137 40 194.5 15 c 128,-1,45
 252 -10 252 -10 326 -10 c 0,46,47
 419 -10 419 -10 470.5 30 c 128,-1,48
 522 70 522 70 522 137 c 0,49,50
 522 198 522 198 467 233 c 1,51,52
 515 246 515 246 544.5 274 c 128,-1,53
 574 302 574 302 574 350 c 0,0,1
465 333 m 256,54,55
 465 310 465 310 444.5 294 c 128,-1,56
 424 278 424 278 388 278 c 0,57,58
 371 278 371 278 346.5 282 c 128,-1,59
 322 286 322 286 284 296 c 0,60,61
 220 312 220 312 193.5 328 c 128,-1,62
 167 344 167 344 167 367 c 256,63,64
 167 390 167 390 187.5 406 c 128,-1,65
 208 422 208 422 244 422 c 0,66,67
 261 422 261 422 285 418 c 128,-1,68
 309 414 309 414 348 404 c 0,69,70
 412 388 412 388 438.5 372 c 128,-1,71
 465 356 465 356 465 333 c 256,54,55
EndSplineSet
EndChar

StartChar: bullet
Encoding: 8226 8226 135
Width: 491
Flags: W
LayerCount: 2
Fore
SplineSet
387 352 m 256,0,1
 387 381 387 381 376 407 c 128,-1,2
 365 433 365 433 345.5 452 c 128,-1,3
 326 471 326 471 300 482 c 128,-1,4
 274 493 274 493 245 493 c 256,5,6
 216 493 216 493 190.5 482 c 128,-1,7
 165 471 165 471 145.5 452 c 128,-1,8
 126 433 126 433 115 407 c 128,-1,9
 104 381 104 381 104 352 c 256,10,11
 104 323 104 323 115 297 c 128,-1,12
 126 271 126 271 145.5 252 c 128,-1,13
 165 233 165 233 190.5 222 c 128,-1,14
 216 211 216 211 245 211 c 256,15,16
 274 211 274 211 300 222 c 128,-1,17
 326 233 326 233 345.5 252 c 128,-1,18
 365 271 365 271 376 297 c 128,-1,19
 387 323 387 323 387 352 c 256,0,1
EndSplineSet
EndChar

StartChar: paragraph
Encoding: 182 182 136
Width: 557
Flags: W
LayerCount: 2
Fore
SplineSet
311 700 m 2,0,1
 251 700 251 700 201 684.5 c 128,-1,2
 151 669 151 669 115.5 639.5 c 128,-1,3
 80 610 80 610 60 568 c 128,-1,4
 40 526 40 526 40 472 c 0,5,6
 40 416 40 416 62 373 c 128,-1,7
 84 330 84 330 122.5 301.5 c 128,-1,8
 161 273 161 273 213.5 258.5 c 128,-1,9
 266 244 266 244 328 244 c 2,10,-1
 346 244 l 1,11,-1
 346 0 l 1,12,-1
 470 0 l 1,13,-1
 470 700 l 1,14,-1
 311 700 l 2,0,1
EndSplineSet
EndChar

StartChar: germandbls
Encoding: 223 223 137
Width: 620
Flags: W
LayerCount: 2
Fore
SplineSet
529 548 m 0,0,1
 529 588 529 588 514.5 622.5 c 128,-1,2
 500 657 500 657 472.5 682.5 c 128,-1,3
 445 708 445 708 405 722.5 c 128,-1,4
 365 737 365 737 314 737 c 0,5,6
 259 737 259 737 215 720.5 c 128,-1,7
 171 704 171 704 140 673.5 c 128,-1,8
 109 643 109 643 92.5 599.5 c 128,-1,9
 76 556 76 556 76 502 c 2,10,-1
 76 0 l 1,11,-1
 196 0 l 1,12,-1
 196 506 l 2,13,14
 196 565 196 565 227 599.5 c 128,-1,15
 258 634 258 634 308 634 c 0,16,17
 354 634 354 634 381.5 608 c 128,-1,18
 409 582 409 582 409 537 c 0,19,20
 409 487 409 487 376.5 453.5 c 128,-1,21
 344 420 344 420 296 397 c 1,22,-1
 296 315 l 1,23,24
 365 307 365 307 407.5 278.5 c 128,-1,25
 450 250 450 250 450 200 c 0,26,27
 450 148 450 148 409.5 120.5 c 128,-1,28
 369 93 369 93 296 91 c 1,29,-1
 296 -2 l 1,30,31
 359 -4 359 -4 410 8.5 c 128,-1,32
 461 21 461 21 496.5 46.5 c 128,-1,33
 532 72 532 72 551.5 110 c 128,-1,34
 571 148 571 148 571 197 c 0,35,36
 571 235 571 235 558.5 264 c 128,-1,37
 546 293 546 293 525 314.5 c 128,-1,38
 504 336 504 336 476.5 351 c 128,-1,39
 449 366 449 366 419 376 c 1,40,41
 441 388 441 388 461 403.5 c 128,-1,42
 481 419 481 419 496 440 c 128,-1,43
 511 461 511 461 520 487.5 c 128,-1,44
 529 514 529 514 529 548 c 0,0,1
EndSplineSet
EndChar

StartChar: registered
Encoding: 174 174 138
Width: 830
Flags: W
LayerCount: 2
Fore
SplineSet
777 351 m 256,0,1
 777 425 777 425 749 491 c 128,-1,2
 721 557 721 557 672.5 606 c 128,-1,3
 624 655 624 655 558 683.5 c 128,-1,4
 492 712 492 712 416 712 c 256,5,6
 340 712 340 712 273.5 683 c 128,-1,7
 207 654 207 654 158 604.5 c 128,-1,8
 109 555 109 555 81 489 c 128,-1,9
 53 423 53 423 53 349 c 256,10,11
 53 275 53 275 81 209 c 128,-1,12
 109 143 109 143 157.5 94 c 128,-1,13
 206 45 206 45 272 16.5 c 128,-1,14
 338 -12 338 -12 414 -12 c 256,15,16
 490 -12 490 -12 556.5 17 c 128,-1,17
 623 46 623 46 672 95.5 c 128,-1,18
 721 145 721 145 749 211 c 128,-1,19
 777 277 777 277 777 351 c 256,0,1
739 351 m 0,20,21
 739 283 739 283 714 223.5 c 128,-1,22
 689 164 689 164 645.5 120 c 128,-1,23
 602 76 602 76 542.5 50 c 128,-1,24
 483 24 483 24 414 24 c 256,25,26
 345 24 345 24 286 49.5 c 128,-1,27
 227 75 227 75 183.5 119 c 128,-1,28
 140 163 140 163 115.5 222 c 128,-1,29
 91 281 91 281 91 349 c 0,30,31
 91 416 91 416 116 476 c 128,-1,32
 141 536 141 536 184.5 580 c 128,-1,33
 228 624 228 624 287.5 650 c 128,-1,34
 347 676 347 676 416 676 c 256,35,36
 485 676 485 676 544 650.5 c 128,-1,37
 603 625 603 625 646.5 581 c 128,-1,38
 690 537 690 537 714.5 477.5 c 128,-1,39
 739 418 739 418 739 351 c 0,20,21
584 429 m 0,40,41
 584 486 584 486 544 518 c 128,-1,42
 504 550 504 550 438 550 c 2,43,-1
 269 550 l 1,44,-1
 269 171 l 1,45,-1
 341 171 l 1,46,-1
 341 302 l 1,47,-1
 420 302 l 1,48,-1
 512 171 l 1,49,-1
 598 171 l 1,50,-1
 496 314 l 1,51,52
 535 325 535 325 559.5 353.5 c 128,-1,53
 584 382 584 382 584 429 c 0,40,41
510 425 m 0,54,55
 510 397 510 397 490 381 c 128,-1,56
 470 365 470 365 435 365 c 2,57,-1
 341 365 l 1,58,-1
 341 485 l 1,59,-1
 435 485 l 2,60,61
 470 485 470 485 490 469.5 c 128,-1,62
 510 454 510 454 510 425 c 0,54,55
EndSplineSet
EndChar

StartChar: copyright
Encoding: 169 169 139
Width: 830
Flags: W
LayerCount: 2
Fore
SplineSet
777 351 m 256,0,1
 777 425 777 425 749 491 c 128,-1,2
 721 557 721 557 672.5 606 c 128,-1,3
 624 655 624 655 558 683.5 c 128,-1,4
 492 712 492 712 416 712 c 256,5,6
 340 712 340 712 273.5 683 c 128,-1,7
 207 654 207 654 158 604.5 c 128,-1,8
 109 555 109 555 81 489 c 128,-1,9
 53 423 53 423 53 349 c 256,10,11
 53 275 53 275 81 209 c 128,-1,12
 109 143 109 143 157.5 94 c 128,-1,13
 206 45 206 45 272 16.5 c 128,-1,14
 338 -12 338 -12 414 -12 c 256,15,16
 490 -12 490 -12 556.5 17 c 128,-1,17
 623 46 623 46 672 95.5 c 128,-1,18
 721 145 721 145 749 211 c 128,-1,19
 777 277 777 277 777 351 c 256,0,1
739 351 m 0,20,21
 739 283 739 283 714 223.5 c 128,-1,22
 689 164 689 164 645.5 120 c 128,-1,23
 602 76 602 76 542.5 50 c 128,-1,24
 483 24 483 24 414 24 c 256,25,26
 345 24 345 24 286 49.5 c 128,-1,27
 227 75 227 75 183.5 119 c 128,-1,28
 140 163 140 163 115.5 222 c 128,-1,29
 91 281 91 281 91 349 c 0,30,31
 91 416 91 416 116 476 c 128,-1,32
 141 536 141 536 184.5 580 c 128,-1,33
 228 624 228 624 287.5 650 c 128,-1,34
 347 676 347 676 416 676 c 256,35,36
 485 676 485 676 544 650.5 c 128,-1,37
 603 625 603 625 646.5 581 c 128,-1,38
 690 537 690 537 714.5 477.5 c 128,-1,39
 739 418 739 418 739 351 c 0,20,21
573 227 m 1,40,-1
 525 274 l 1,41,42
 502 252 502 252 478.5 239.5 c 128,-1,43
 455 227 455 227 421 227 c 0,44,45
 395 227 395 227 373.5 237 c 128,-1,46
 352 247 352 247 336.5 264.5 c 128,-1,47
 321 282 321 282 312 305.5 c 128,-1,48
 303 329 303 329 303 355 c 0,49,50
 303 382 303 382 311.5 405 c 128,-1,51
 320 428 320 428 336 445.5 c 128,-1,52
 352 463 352 463 373.5 473 c 128,-1,53
 395 483 395 483 421 483 c 0,54,55
 451 483 451 483 476 470.5 c 128,-1,56
 501 458 501 458 523 438 c 1,57,-1
 570 492 l 1,58,59
 543 518 543 518 509 534.5 c 128,-1,60
 475 551 475 551 421 551 c 0,61,62
 378 551 378 551 342.5 535.5 c 128,-1,63
 307 520 307 520 281.5 493 c 128,-1,64
 256 466 256 466 241.5 430 c 128,-1,65
 227 394 227 394 227 354 c 0,66,67
 227 313 227 313 241.5 277.5 c 128,-1,68
 256 242 256 242 281.5 215.5 c 128,-1,69
 307 189 307 189 342.5 174 c 128,-1,70
 378 159 378 159 419 159 c 0,71,72
 473 159 473 159 508 177 c 128,-1,73
 543 195 543 195 573 227 c 1,40,-1
EndSplineSet
EndChar

StartChar: trademark
Encoding: 8482 8482 140
Width: 690
Flags: W
LayerCount: 2
Fore
SplineSet
594 611 m 1,0,-1
 594 392 l 1,1,-1
 651 392 l 1,2,-1
 651 700 l 1,3,-1
 590 700 l 1,4,-1
 497 554 l 1,5,-1
 404 700 l 1,6,-1
 341 700 l 1,7,-1
 341 392 l 1,8,-1
 398 392 l 1,9,-1
 398 611 l 1,10,-1
 493 463 l 1,11,-1
 499 463 l 1,12,-1
 594 611 l 1,0,-1
180 646 m 1,13,-1
 275 646 l 1,14,-1
 275 700 l 1,15,-1
 26 700 l 1,16,-1
 26 646 l 1,17,-1
 121 646 l 1,18,-1
 121 392 l 1,19,-1
 180 392 l 1,20,-1
 180 646 l 1,13,-1
EndSplineSet
EndChar

StartChar: acute
Encoding: 180 180 141
Width: 500
Flags: W
LayerCount: 2
Fore
SplineSet
254 595 m 1,0,-1
 376 710 l 1,1,-1
 266 759 l 1,2,-1
 160 595 l 1,3,-1
 254 595 l 1,0,-1
EndSplineSet
EndChar

StartChar: dieresis
Encoding: 168 168 142
Width: 500
Flags: W
LayerCount: 2
Fore
SplineSet
411 595 m 1,0,-1
 411 713 l 1,1,-1
 288 713 l 1,2,-1
 288 595 l 1,3,-1
 411 595 l 1,0,-1
212 595 m 1,4,-1
 212 713 l 1,5,-1
 89 713 l 1,6,-1
 89 595 l 1,7,-1
 212 595 l 1,4,-1
EndSplineSet
EndChar

StartChar: AE
Encoding: 198 198 143
Width: 1045
Flags: W
LayerCount: 2
Fore
SplineSet
232 169 m 1,0,-1
 487 169 l 1,1,-1
 487 0 l 1,2,-1
 989 0 l 1,3,-1
 989 110 l 1,4,-1
 610 110 l 1,5,-1
 610 298 l 1,6,-1
 939 298 l 1,7,-1
 939 408 l 1,8,-1
 610 408 l 1,9,-1
 610 590 l 1,10,-1
 984 590 l 1,11,-1
 984 700 l 1,12,-1
 403 700 l 1,13,-1
 12 0 l 1,14,-1
 139 0 l 1,15,-1
 232 169 l 1,0,-1
467 593 m 1,16,-1
 487 593 l 1,17,-1
 487 278 l 1,18,-1
 291 278 l 1,19,-1
 467 593 l 1,16,-1
EndSplineSet
EndChar

StartChar: Oslash
Encoding: 216 216 144
Width: 850
Flags: W
LayerCount: 2
Fore
SplineSet
791 351 m 0,0,1
 791 421 791 421 767.5 483 c 128,-1,2
 744 545 744 545 700 593 c 1,3,-1
 799 705 l 1,4,-1
 678 705 l 1,5,-1
 630 652 l 1,6,7
 587 681 587 681 536 696.5 c 128,-1,8
 485 712 485 712 426 712 c 0,9,10
 345 712 345 712 278 683 c 128,-1,11
 211 654 211 654 162 604.5 c 128,-1,12
 113 555 113 555 86 489 c 128,-1,13
 59 423 59 423 59 349 c 0,14,15
 59 279 59 279 82.5 217 c 128,-1,16
 106 155 106 155 150 107 c 1,17,-1
 51 -5 l 1,18,-1
 172 -5 l 1,19,-1
 220 48 l 1,20,21
 263 19 263 19 314 3.5 c 128,-1,22
 365 -12 365 -12 424 -12 c 0,23,24
 505 -12 505 -12 572 17 c 128,-1,25
 639 46 639 46 688 95.5 c 128,-1,26
 737 145 737 145 764 211 c 128,-1,27
 791 277 791 277 791 351 c 0,0,1
552 562 m 1,28,-1
 232 201 l 1,29,30
 209 233 209 233 197 271 c 128,-1,31
 185 309 185 309 185 351 c 0,32,33
 185 402 185 402 202.5 447.5 c 128,-1,34
 220 493 220 493 252 527 c 128,-1,35
 284 561 284 561 327.5 581 c 128,-1,36
 371 601 371 601 424 601 c 0,37,38
 461 601 461 601 493.5 590.5 c 128,-1,39
 526 580 526 580 552 562 c 1,28,-1
665 349 m 0,40,41
 665 298 665 298 647.5 252.5 c 128,-1,42
 630 207 630 207 598 173 c 128,-1,43
 566 139 566 139 522 119 c 128,-1,44
 478 99 478 99 426 99 c 0,45,46
 389 99 389 99 356.5 109.5 c 128,-1,47
 324 120 324 120 298 138 c 1,48,-1
 618 499 l 1,49,50
 641 467 641 467 653 429 c 128,-1,51
 665 391 665 391 665 349 c 0,40,41
EndSplineSet
EndChar

StartChar: plusminus
Encoding: 177 177 145
Width: 610
Flags: W
LayerCount: 2
Fore
SplineSet
560 200 m 0,0,1
 560 232 560 232 550.5 257 c 128,-1,2
 541 282 541 282 524.5 301.5 c 128,-1,3
 508 321 508 321 485.5 335 c 128,-1,4
 463 349 463 349 437 359 c 1,5,6
 458 369 458 369 477 384 c 128,-1,7
 496 399 496 399 510.5 419 c 128,-1,8
 525 439 525 439 533 465 c 128,-1,9
 541 491 541 491 541 524 c 0,10,11
 541 565 541 565 523.5 599.5 c 128,-1,12
 506 634 506 634 474.5 659 c 128,-1,13
 443 684 443 684 398.5 698 c 128,-1,14
 354 712 354 712 300 712 c 0,15,16
 256 712 256 712 220.5 703 c 128,-1,17
 185 694 185 694 155.5 677 c 128,-1,18
 126 660 126 660 100.5 636 c 128,-1,19
 75 612 75 612 53 583 c 1,20,-1
 139 513 l 1,21,22
 174 554 174 554 210.5 577.5 c 128,-1,23
 247 601 247 601 298 601 c 0,24,25
 355 601 355 601 387 574.5 c 128,-1,26
 419 548 419 548 419 506 c 0,27,28
 419 460 419 460 383.5 432.5 c 128,-1,29
 348 405 348 405 287 405 c 2,30,-1
 209 405 l 1,31,-1
 209 301 l 1,32,-1
 284 301 l 2,33,34
 357 301 357 301 397.5 275.5 c 128,-1,35
 438 250 438 250 438 201 c 0,36,37
 438 154 438 154 404.5 126.5 c 128,-1,38
 371 99 371 99 313 99 c 0,39,40
 252 99 252 99 206.5 123 c 128,-1,41
 161 147 161 147 124 189 c 1,42,-1
 39 110 l 1,43,44
 87 55 87 55 156 21.5 c 128,-1,45
 225 -12 225 -12 311 -12 c 0,46,47
 369 -12 369 -12 415.5 4 c 128,-1,48
 462 20 462 20 494 48.5 c 128,-1,49
 526 77 526 77 543 116 c 128,-1,50
 560 155 560 155 560 200 c 0,0,1
EndSplineSet
EndChar

StartChar: yen
Encoding: 165 165 146
Width: 686
Flags: W
LayerCount: 2
Fore
SplineSet
402 264 m 1,0,-1
 595 264 l 1,1,-1
 595 353 l 1,2,-1
 435 353 l 1,3,-1
 667 700 l 1,4,-1
 528 700 l 1,5,-1
 345 407 l 1,6,-1
 162 700 l 1,7,-1
 19 700 l 1,8,-1
 250 353 l 1,9,-1
 91 353 l 1,10,-1
 91 264 l 1,11,-1
 284 264 l 1,12,-1
 284 191 l 1,13,-1
 91 191 l 1,14,-1
 91 102 l 1,15,-1
 284 102 l 1,16,-1
 284 0 l 1,17,-1
 402 0 l 1,18,-1
 402 102 l 1,19,-1
 595 102 l 1,20,-1
 595 191 l 1,21,-1
 402 191 l 1,22,-1
 402 264 l 1,0,-1
EndSplineSet
EndChar

StartChar: mu
Encoding: 181 181 147
AltUni2: 0003bc.ffffffff.0
Width: 850
Flags: W
LayerCount: 2
Fore
SplineSet
791 351 m 0,0,1
 791 425 791 425 764 491 c 128,-1,2
 737 557 737 557 689 606 c 128,-1,3
 641 655 641 655 574 683.5 c 128,-1,4
 507 712 507 712 426 712 c 256,5,6
 345 712 345 712 278 683 c 128,-1,7
 211 654 211 654 162 604.5 c 128,-1,8
 113 555 113 555 86 489 c 128,-1,9
 59 423 59 423 59 349 c 256,10,11
 59 275 59 275 86 209 c 128,-1,12
 113 143 113 143 161 94 c 128,-1,13
 209 45 209 45 276 16.5 c 128,-1,14
 343 -12 343 -12 424 -12 c 0,15,16
 489 -12 489 -12 550 10 c 1,17,-1
 666 -101 l 1,18,-1
 846 -101 l 1,19,-1
 846 -93 l 1,20,-1
 671 81 l 1,21,22
 728 132 728 132 759.5 201.5 c 128,-1,23
 791 271 791 271 791 351 c 0,0,1
662 349 m 256,24,25
 662 298 662 298 644.5 252.5 c 128,-1,26
 627 207 627 207 596 173.5 c 128,-1,27
 565 140 565 140 521.5 120.5 c 128,-1,28
 478 101 478 101 426 101 c 256,29,30
 374 101 374 101 330 121 c 128,-1,31
 286 141 286 141 254.5 175 c 128,-1,32
 223 209 223 209 205.5 254.5 c 128,-1,33
 188 300 188 300 188 351 c 256,34,35
 188 402 188 402 205.5 447.5 c 128,-1,36
 223 493 223 493 254 526.5 c 128,-1,37
 285 560 285 560 328.5 579.5 c 128,-1,38
 372 599 372 599 424 599 c 256,39,40
 476 599 476 599 520 579 c 128,-1,41
 564 559 564 559 595.5 525 c 128,-1,42
 627 491 627 491 644.5 445.5 c 128,-1,43
 662 400 662 400 662 349 c 256,24,25
EndSplineSet
EndChar

StartChar: pi
Encoding: 960 960 148
Width: 830
Flags: W
LayerCount: 2
Fore
SplineSet
777 351 m 256,0,1
 777 425 777 425 749 491 c 128,-1,2
 721 557 721 557 672.5 606 c 128,-1,3
 624 655 624 655 558 683.5 c 128,-1,4
 492 712 492 712 416 712 c 256,5,6
 340 712 340 712 273.5 683 c 128,-1,7
 207 654 207 654 158 604.5 c 128,-1,8
 109 555 109 555 81 489 c 128,-1,9
 53 423 53 423 53 349 c 256,10,11
 53 275 53 275 81 209 c 128,-1,12
 109 143 109 143 157.5 94 c 128,-1,13
 206 45 206 45 272 16.5 c 128,-1,14
 338 -12 338 -12 414 -12 c 256,15,16
 490 -12 490 -12 556.5 17 c 128,-1,17
 623 46 623 46 672 95.5 c 128,-1,18
 721 145 721 145 749 211 c 128,-1,19
 777 277 777 277 777 351 c 256,0,1
739 351 m 0,20,21
 739 283 739 283 714 223.5 c 128,-1,22
 689 164 689 164 645.5 120 c 128,-1,23
 602 76 602 76 542.5 50 c 128,-1,24
 483 24 483 24 414 24 c 256,25,26
 345 24 345 24 286 49.5 c 128,-1,27
 227 75 227 75 183.5 119 c 128,-1,28
 140 163 140 163 115.5 222 c 128,-1,29
 91 281 91 281 91 349 c 0,30,31
 91 416 91 416 116 476 c 128,-1,32
 141 536 141 536 184.5 580 c 128,-1,33
 228 624 228 624 287.5 650 c 128,-1,34
 347 676 347 676 416 676 c 256,35,36
 485 676 485 676 544 650.5 c 128,-1,37
 603 625 603 625 646.5 581 c 128,-1,38
 690 537 690 537 714.5 477.5 c 128,-1,39
 739 418 739 418 739 351 c 0,20,21
586 418 m 0,40,41
 586 478 586 478 546.5 512.5 c 128,-1,42
 507 547 507 547 439 547 c 2,43,-1
 286 547 l 1,44,-1
 286 167 l 1,45,-1
 360 167 l 1,46,-1
 360 287 l 1,47,-1
 431 287 l 2,48,49
 462 287 462 287 490.5 295 c 128,-1,50
 519 303 519 303 540 319.5 c 128,-1,51
 561 336 561 336 573.5 360.5 c 128,-1,52
 586 385 586 385 586 418 c 0,40,41
511 417 m 0,53,54
 511 388 511 388 490 370 c 128,-1,55
 469 352 469 352 433 352 c 2,56,-1
 360 352 l 1,57,-1
 360 481 l 1,58,-1
 433 481 l 2,59,60
 469 481 469 481 490 465 c 128,-1,61
 511 449 511 449 511 417 c 0,53,54
EndSplineSet
EndChar

StartChar: ordfeminine
Encoding: 170 170 149
Width: 390
Flags: W
LayerCount: 2
Fore
SplineSet
319 409 m 1,0,-1
 319 581 l 2,1,2
 319 640 319 640 287.5 671.5 c 128,-1,3
 256 703 256 703 192 703 c 0,4,5
 156 703 156 703 131 696.5 c 128,-1,6
 106 690 106 690 80 678 c 1,7,-1
 99 624 l 1,8,9
 120 632 120 632 139.5 637.5 c 128,-1,10
 159 643 159 643 182 643 c 0,11,12
 252 643 252 643 252 582 c 2,13,-1
 252 577 l 1,14,15
 235 582 235 582 217.5 585 c 128,-1,16
 200 588 200 588 176 588 c 0,17,18
 122 588 122 588 89 565 c 128,-1,19
 56 542 56 542 56 494 c 0,20,21
 56 471 56 471 64.5 454 c 128,-1,22
 73 437 73 437 87 426 c 128,-1,23
 101 415 101 415 119.5 409 c 128,-1,24
 138 403 138 403 159 403 c 0,25,26
 191 403 191 403 213 414 c 128,-1,27
 235 425 235 425 251 443 c 1,28,-1
 251 409 l 1,29,-1
 319 409 l 1,0,-1
323 282 m 1,30,-1
 323 340 l 1,31,-1
 53 340 l 1,32,-1
 53 282 l 1,33,-1
 323 282 l 1,30,-1
252 514 m 2,34,35
 252 488 252 488 230.5 471 c 128,-1,36
 209 454 209 454 177 454 c 0,37,38
 154 454 154 454 139.5 465 c 128,-1,39
 125 476 125 476 125 497 c 0,40,41
 125 519 125 519 142 531 c 128,-1,42
 159 543 159 543 189 543 c 0,43,44
 209 543 209 543 224 540 c 128,-1,45
 239 537 239 537 252 532 c 1,46,-1
 252 514 l 2,34,35
EndSplineSet
EndChar

StartChar: ordmasculine
Encoding: 186 186 150
Width: 390
Flags: W
LayerCount: 2
Fore
SplineSet
346 554 m 0,0,1
 346 585 346 585 334.5 613 c 128,-1,2
 323 641 323 641 303 661 c 128,-1,3
 283 681 283 681 255.5 693 c 128,-1,4
 228 705 228 705 196 705 c 0,5,6
 163 705 163 705 135.5 693 c 128,-1,7
 108 681 108 681 87.5 660.5 c 128,-1,8
 67 640 67 640 55.5 612 c 128,-1,9
 44 584 44 584 44 553 c 0,10,11
 44 521 44 521 55.5 493.5 c 128,-1,12
 67 466 67 466 87 446 c 128,-1,13
 107 426 107 426 134.5 414 c 128,-1,14
 162 402 162 402 194 402 c 0,15,16
 227 402 227 402 254.5 414 c 128,-1,17
 282 426 282 426 302.5 446.5 c 128,-1,18
 323 467 323 467 334.5 494.5 c 128,-1,19
 346 522 346 522 346 554 c 0,0,1
339 282 m 1,20,-1
 339 340 l 1,21,-1
 51 340 l 1,22,-1
 51 282 l 1,23,-1
 339 282 l 1,20,-1
276 553 m 256,24,25
 276 516 276 516 254.5 490 c 128,-1,26
 233 464 233 464 196 464 c 0,27,28
 160 464 160 464 137 490.5 c 128,-1,29
 114 517 114 517 114 554 c 256,30,31
 114 591 114 591 135.5 617 c 128,-1,32
 157 643 157 643 194 643 c 0,33,34
 230 643 230 643 253 616.5 c 128,-1,35
 276 590 276 590 276 553 c 256,24,25
EndSplineSet
EndChar

StartChar: ae
Encoding: 230 230 151
Width: 952
Flags: W
LayerCount: 2
Fore
SplineSet
461 78 m 1,0,1
 497 36 497 36 550 12 c 128,-1,2
 603 -12 603 -12 665 -12 c 0,3,4
 739 -12 739 -12 791.5 15 c 128,-1,5
 844 42 844 42 882 87 c 1,6,-1
 811 150 l 1,7,8
 779 119 779 119 745.5 103 c 128,-1,9
 712 87 712 87 667 87 c 0,10,11
 609 87 609 87 568 121.5 c 128,-1,12
 527 156 527 156 516 221 c 1,13,-1
 904 221 l 1,14,15
 905 230 905 230 905 238 c 256,16,17
 905 246 905 246 905 254 c 0,18,19
 905 311 905 311 889.5 363 c 128,-1,20
 874 415 874 415 842.5 454 c 128,-1,21
 811 493 811 493 764 516 c 128,-1,22
 717 539 717 539 655 539 c 0,23,24
 596 539 596 539 549 515 c 128,-1,25
 502 491 502 491 470 449 c 1,26,27
 446 491 446 491 399.5 513.5 c 128,-1,28
 353 536 353 536 284 536 c 0,29,30
 221 536 221 536 175.5 524 c 128,-1,31
 130 512 130 512 86 492 c 1,32,-1
 119 395 l 1,33,34
 155 410 155 410 190 419 c 128,-1,35
 225 428 225 428 270 428 c 0,36,37
 333 428 333 428 366.5 399 c 128,-1,38
 400 370 400 370 400 315 c 2,39,-1
 400 302 l 1,40,41
 369 312 369 312 335.5 318 c 128,-1,42
 302 324 302 324 254 324 c 0,43,44
 208 324 208 324 168.5 313.5 c 128,-1,45
 129 303 129 303 100.5 282 c 128,-1,46
 72 261 72 261 56 229 c 128,-1,47
 40 197 40 197 40 155 c 0,48,49
 40 115 40 115 54.5 84 c 128,-1,50
 69 53 69 53 95.5 32 c 128,-1,51
 122 11 122 11 158.5 0 c 128,-1,52
 195 -11 195 -11 240 -11 c 0,53,54
 307 -11 307 -11 361.5 15 c 128,-1,55
 416 41 416 41 461 78 c 1,0,1
514 301 m 1,56,57
 522 363 522 363 558.5 401.5 c 128,-1,58
 595 440 595 440 652 440 c 0,59,60
 682 440 682 440 705.5 429 c 128,-1,61
 729 418 729 418 746 399.5 c 128,-1,62
 763 381 763 381 773 355.5 c 128,-1,63
 783 330 783 330 786 301 c 1,64,-1
 514 301 l 1,56,57
397 227 m 1,65,66
 399 204 399 204 404 184.5 c 128,-1,67
 409 165 409 165 417 146 c 1,68,69
 384 115 384 115 346 97.5 c 128,-1,70
 308 80 308 80 262 80 c 0,71,72
 219 80 219 80 189.5 100.5 c 128,-1,73
 160 121 160 121 160 160 c 0,74,75
 160 201 160 201 192 223 c 128,-1,76
 224 245 224 245 281 245 c 0,77,78
 316 245 316 245 345 240 c 128,-1,79
 374 235 374 235 397 227 c 1,65,66
EndSplineSet
EndChar

StartChar: oslash
Encoding: 248 248 152
Width: 657
Flags: W
LayerCount: 2
Fore
SplineSet
610 264 m 0,0,1
 610 316 610 316 593 361.5 c 128,-1,2
 576 407 576 407 544 443 c 1,3,-1
 625 534 l 1,4,-1
 515 534 l 1,5,-1
 480 496 l 1,6,7
 448 516 448 516 410 527.5 c 128,-1,8
 372 539 372 539 329 539 c 0,9,10
 268 539 268 539 216.5 517 c 128,-1,11
 165 495 165 495 127.5 457.5 c 128,-1,12
 90 420 90 420 68.5 369.5 c 128,-1,13
 47 319 47 319 47 262 c 0,14,15
 47 211 47 211 64 165.5 c 128,-1,16
 81 120 81 120 112 84 c 1,17,-1
 32 -5 l 1,18,-1
 142 -5 l 1,19,-1
 176 31 l 1,20,21
 208 11 208 11 246.5 -0.5 c 128,-1,22
 285 -12 285 -12 327 -12 c 0,23,24
 388 -12 388 -12 440 10 c 128,-1,25
 492 32 492 32 529.5 69.5 c 128,-1,26
 567 107 567 107 588.5 157 c 128,-1,27
 610 207 610 207 610 264 c 0,0,1
409 412 m 1,28,-1
 190 172 l 1,29,30
 165 213 165 213 165 264 c 0,31,32
 165 300 165 300 176.5 331.5 c 128,-1,33
 188 363 188 363 209.5 386 c 128,-1,34
 231 409 231 409 261 422.5 c 128,-1,35
 291 436 291 436 327 436 c 0,36,37
 374 436 374 436 409 412 c 1,28,-1
492 262 m 0,38,39
 492 226 492 226 480.5 195 c 128,-1,40
 469 164 469 164 447.5 140.5 c 128,-1,41
 426 117 426 117 396 103.5 c 128,-1,42
 366 90 366 90 329 90 c 0,43,44
 306 90 306 90 286 96.5 c 128,-1,45
 266 103 266 103 249 114 c 1,46,-1
 467 355 l 1,47,48
 492 314 492 314 492 262 c 0,38,39
EndSplineSet
EndChar

StartChar: questiondown
Encoding: 191 191 153
Width: 541
Flags: W
LayerCount: 2
Fore
SplineSet
229 700 m 1,0,-1
 229 563 l 1,1,-1
 363 563 l 1,2,-1
 363 700 l 1,3,-1
 229 700 l 1,0,-1
349 312 m 1,4,-1
 354 317 l 1,5,-1
 334 479 l 1,6,-1
 253 479 l 1,7,-1
 243 398 l 1,8,9
 201 391 201 391 164.5 376 c 128,-1,10
 128 361 128 361 101 337 c 128,-1,11
 74 313 74 313 58 278 c 128,-1,12
 42 243 42 243 42 195 c 0,13,14
 42 148 42 148 59 110 c 128,-1,15
 76 72 76 72 106.5 45.5 c 128,-1,16
 137 19 137 19 180 5 c 128,-1,17
 223 -9 223 -9 276 -9 c 0,18,19
 357 -9 357 -9 415 21.5 c 128,-1,20
 473 52 473 52 517 102 c 1,21,-1
 442 182 l 1,22,23
 406 144 406 144 366.5 123.5 c 128,-1,24
 327 103 327 103 279 103 c 0,25,26
 225 103 225 103 194.5 129.5 c 128,-1,27
 164 156 164 156 164 199 c 0,28,29
 164 250 164 250 208.5 279 c 128,-1,30
 253 308 253 308 349 312 c 1,4,-1
EndSplineSet
EndChar

StartChar: exclamdown
Encoding: 161 161 154
Width: 302
Flags: W
LayerCount: 2
Fore
SplineSet
85 700 m 1,0,-1
 85 563 l 1,1,-1
 218 563 l 1,2,-1
 218 700 l 1,3,-1
 85 700 l 1,0,-1
222 0 m 1,4,-1
 222 35 l 1,5,-1
 185 479 l 1,6,-1
 118 479 l 1,7,-1
 80 35 l 1,8,-1
 80 0 l 1,9,-1
 222 0 l 1,4,-1
EndSplineSet
EndChar

StartChar: radical
Encoding: 8730 8730 155
Width: 1038
Flags: W
LayerCount: 2
Fore
SplineSet
598 524 m 1,0,-1
 598 553 l 2,1,2
 598 633 598 633 668 633 c 0,3,4
 688 633 688 633 704.5 629.5 c 128,-1,5
 721 626 721 626 739 620 c 1,6,-1
 739 722 l 1,7,8
 719 728 719 728 695.5 732 c 128,-1,9
 672 736 672 736 640 736 c 0,10,11
 562 736 562 736 520.5 693.5 c 128,-1,12
 479 651 479 651 479 563 c 2,13,-1
 479 525 l 1,14,-1
 412 525 l 1,15,-1
 412 424 l 1,16,-1
 479 424 l 1,17,-1
 479 0 l 1,18,-1
 600 0 l 1,19,-1
 600 424 l 1,20,-1
 738 424 l 1,21,-1
 738 524 l 1,22,-1
 598 524 l 1,0,-1
222 524 m 1,23,-1
 222 553 l 2,24,25
 222 633 222 633 292 633 c 0,26,27
 312 633 312 633 328.5 629.5 c 128,-1,28
 345 626 345 626 363 620 c 1,29,-1
 363 722 l 1,30,31
 343 728 343 728 320 732 c 128,-1,32
 297 736 297 736 265 736 c 0,33,34
 187 736 187 736 145 693.5 c 128,-1,35
 103 651 103 651 103 563 c 2,36,-1
 103 525 l 1,37,-1
 36 525 l 1,38,-1
 36 424 l 1,39,-1
 103 424 l 1,40,-1
 103 0 l 1,41,-1
 224 0 l 1,42,-1
 224 424 l 1,43,-1
 362 424 l 1,44,-1
 362 524 l 1,45,-1
 222 524 l 1,23,-1
956 0 m 1,46,-1
 956 730 l 1,47,-1
 834 730 l 1,48,-1
 834 0 l 1,49,-1
 956 0 l 1,46,-1
EndSplineSet
EndChar

StartChar: florin
Encoding: 402 402 156
Width: 527
Flags: W
LayerCount: 2
Fore
SplineSet
491 592 m 1,0,-1
 491 694 l 1,1,2
 472 699 472 699 450 702 c 128,-1,3
 428 705 428 705 399 705 c 0,4,5
 318 705 318 705 278.5 665.5 c 128,-1,6
 239 626 239 626 224 550 c 2,7,-1
 206 457 l 1,8,-1
 109 457 l 1,9,-1
 109 356 l 1,10,-1
 189 356 l 1,11,-1
 154 163 l 2,12,13
 147 127 147 127 130 111.5 c 128,-1,14
 113 96 113 96 81 96 c 0,15,16
 62 96 62 96 41 99 c 1,17,-1
 41 0 l 1,18,19
 53 -3 53 -3 66 -4 c 128,-1,20
 79 -5 79 -5 97 -5 c 0,21,22
 175 -5 175 -5 217 29.5 c 128,-1,23
 259 64 259 64 273 145 c 2,24,-1
 311 356 l 1,25,-1
 456 356 l 1,26,-1
 456 457 l 1,27,-1
 329 457 l 1,28,-1
 341 525 l 2,29,30
 349 566 349 566 368 584 c 128,-1,31
 387 602 387 602 422 602 c 0,32,33
 438 602 438 602 455.5 599.5 c 128,-1,34
 473 597 473 597 491 592 c 1,0,-1
EndSplineSet
EndChar

StartChar: approxequal
Encoding: 8776 8776 157
Width: 1038
Flags: W
LayerCount: 2
Fore
SplineSet
960 609 m 1,0,-1
 960 724 l 1,1,-1
 830 724 l 1,2,-1
 830 609 l 1,3,-1
 960 609 l 1,0,-1
598 524 m 1,4,-1
 598 553 l 2,5,6
 598 633 598 633 668 633 c 0,7,8
 688 633 688 633 704.5 629.5 c 128,-1,9
 721 626 721 626 739 620 c 1,10,-1
 739 722 l 1,11,12
 719 728 719 728 695.5 732 c 128,-1,13
 672 736 672 736 640 736 c 0,14,15
 562 736 562 736 520.5 693.5 c 128,-1,16
 479 651 479 651 479 563 c 2,17,-1
 479 525 l 1,18,-1
 412 525 l 1,19,-1
 412 424 l 1,20,-1
 479 424 l 1,21,-1
 479 0 l 1,22,-1
 600 0 l 1,23,-1
 600 424 l 1,24,-1
 738 424 l 1,25,-1
 738 524 l 1,26,-1
 598 524 l 1,4,-1
222 524 m 1,27,-1
 222 553 l 2,28,29
 222 633 222 633 292 633 c 0,30,31
 312 633 312 633 328.5 629.5 c 128,-1,32
 345 626 345 626 363 620 c 1,33,-1
 363 722 l 1,34,35
 343 728 343 728 320 732 c 128,-1,36
 297 736 297 736 265 736 c 0,37,38
 187 736 187 736 145 693.5 c 128,-1,39
 103 651 103 651 103 563 c 2,40,-1
 103 525 l 1,41,-1
 36 525 l 1,42,-1
 36 424 l 1,43,-1
 103 424 l 1,44,-1
 103 0 l 1,45,-1
 224 0 l 1,46,-1
 224 424 l 1,47,-1
 362 424 l 1,48,-1
 362 524 l 1,49,-1
 222 524 l 1,27,-1
956 0 m 1,50,-1
 956 528 l 1,51,-1
 834 528 l 1,52,-1
 834 0 l 1,53,-1
 956 0 l 1,50,-1
EndSplineSet
EndChar

StartChar: guillemotleft
Encoding: 171 171 158
Width: 606
Flags: W
LayerCount: 2
Fore
SplineSet
461 488 m 1,0,-1
 296 268 l 1,1,-1
 296 260 l 1,2,-1
 461 41 l 1,3,-1
 553 88 l 1,4,-1
 421 265 l 1,5,-1
 553 441 l 1,6,-1
 461 488 l 1,0,-1
210 488 m 1,7,-1
 44 268 l 1,8,-1
 44 260 l 1,9,-1
 210 41 l 1,10,-1
 302 88 l 1,11,-1
 170 265 l 1,12,-1
 302 441 l 1,13,-1
 210 488 l 1,7,-1
EndSplineSet
EndChar

StartChar: guillemotright
Encoding: 187 187 159
Width: 606
Flags: W
LayerCount: 2
Fore
SplineSet
396 41 m 1,0,-1
 562 260 l 1,1,-1
 562 268 l 1,2,-1
 396 488 l 1,3,-1
 304 440 l 1,4,-1
 436 263 l 1,5,-1
 304 87 l 1,6,-1
 396 41 l 1,0,-1
145 41 m 1,7,-1
 310 260 l 1,8,-1
 310 268 l 1,9,-1
 145 488 l 1,10,-1
 53 440 l 1,11,-1
 185 263 l 1,12,-1
 53 87 l 1,13,-1
 145 41 l 1,7,-1
EndSplineSet
EndChar

StartChar: ellipsis
Encoding: 8230 8230 160
Width: 792
Flags: W
LayerCount: 2
Fore
SplineSet
724 0 m 1,0,-1
 724 134 l 1,1,-1
 594 134 l 1,2,-1
 594 0 l 1,3,-1
 724 0 l 1,0,-1
461 0 m 1,4,-1
 461 134 l 1,5,-1
 331 134 l 1,6,-1
 331 0 l 1,7,-1
 461 0 l 1,4,-1
198 0 m 1,8,-1
 198 134 l 1,9,-1
 68 134 l 1,10,-1
 68 0 l 1,11,-1
 198 0 l 1,8,-1
EndSplineSet
EndChar

StartChar: OE
Encoding: 338 338 165
Width: 1098
Flags: W
LayerCount: 2
Fore
SplineSet
1042 0 m 1,0,-1
 1042 110 l 1,1,-1
 663 110 l 1,2,-1
 663 298 l 1,3,-1
 992 298 l 1,4,-1
 992 408 l 1,5,-1
 663 408 l 1,6,-1
 663 590 l 1,7,-1
 1037 590 l 1,8,-1
 1037 700 l 1,9,-1
 431 700 l 2,10,11
 348 700 348 700 280 673 c 128,-1,12
 212 646 212 646 162.5 598.5 c 128,-1,13
 113 551 113 551 86 487 c 128,-1,14
 59 423 59 423 59 349 c 256,15,16
 59 275 59 275 86 211 c 128,-1,17
 113 147 113 147 162.5 100 c 128,-1,18
 212 53 212 53 280 26.5 c 128,-1,19
 348 0 348 0 431 0 c 2,20,-1
 1042 0 l 1,0,-1
540 112 m 1,21,-1
 431 112 l 2,22,23
 376 112 376 112 331 130 c 128,-1,24
 286 148 286 148 254.5 180 c 128,-1,25
 223 212 223 212 205.5 255.5 c 128,-1,26
 188 299 188 299 188 351 c 256,27,28
 188 403 188 403 205.5 446.5 c 128,-1,29
 223 490 223 490 254.5 521.5 c 128,-1,30
 286 553 286 553 331 570.5 c 128,-1,31
 376 588 376 588 431 588 c 2,32,-1
 540 588 l 1,33,-1
 540 112 l 1,21,-1
EndSplineSet
EndChar

StartChar: oe
Encoding: 339 339 166
Width: 1040
Flags: W
LayerCount: 2
Fore
SplineSet
539 102 m 1,0,1
 572 48 572 48 628 18 c 128,-1,2
 684 -12 684 -12 754 -12 c 0,3,4
 826 -12 826 -12 879 15 c 128,-1,5
 932 42 932 42 970 87 c 1,6,-1
 899 150 l 1,7,8
 867 119 867 119 833.5 103 c 128,-1,9
 800 87 800 87 755 87 c 0,10,11
 697 87 697 87 655.5 121.5 c 128,-1,12
 614 156 614 156 603 221 c 1,13,-1
 991 221 l 1,14,15
 992 230 992 230 992.5 238 c 128,-1,16
 993 246 993 246 993 254 c 0,17,18
 993 311 993 311 977 363 c 128,-1,19
 961 415 961 415 929.5 454 c 128,-1,20
 898 493 898 493 851.5 516 c 128,-1,21
 805 539 805 539 743 539 c 0,22,23
 677 539 677 539 625 508 c 128,-1,24
 573 477 573 477 541 426 c 1,25,26
 506 477 506 477 450.5 508 c 128,-1,27
 395 539 395 539 326 539 c 0,28,29
 267 539 267 539 216 517 c 128,-1,30
 165 495 165 495 127.5 457.5 c 128,-1,31
 90 420 90 420 68.5 369.5 c 128,-1,32
 47 319 47 319 47 262 c 256,33,34
 47 205 47 205 68.5 155.5 c 128,-1,35
 90 106 90 106 127 68.5 c 128,-1,36
 164 31 164 31 214 9.5 c 128,-1,37
 264 -12 264 -12 321 -12 c 0,38,39
 391 -12 391 -12 447.5 19.5 c 128,-1,40
 504 51 504 51 539 102 c 1,0,1
602 301 m 1,41,42
 610 363 610 363 646.5 401.5 c 128,-1,43
 683 440 683 440 740 440 c 0,44,45
 770 440 770 440 793.5 429 c 128,-1,46
 817 418 817 418 833.5 399.5 c 128,-1,47
 850 381 850 381 860.5 355.5 c 128,-1,48
 871 330 871 330 874 301 c 1,49,-1
 602 301 l 1,41,42
482 262 m 256,50,51
 482 227 482 227 471 196.5 c 128,-1,52
 460 166 460 166 439.5 143 c 128,-1,53
 419 120 419 120 390.5 106.5 c 128,-1,54
 362 93 362 93 326 93 c 0,55,56
 291 93 291 93 262 106.5 c 128,-1,57
 233 120 233 120 212 143 c 128,-1,58
 191 166 191 166 179.5 197.5 c 128,-1,59
 168 229 168 229 168 264 c 256,60,61
 168 299 168 299 179 329.5 c 128,-1,62
 190 360 190 360 210.5 383 c 128,-1,63
 231 406 231 406 259.5 419.5 c 128,-1,64
 288 433 288 433 324 433 c 0,65,66
 358 433 358 433 387 419.5 c 128,-1,67
 416 406 416 406 437 382.5 c 128,-1,68
 458 359 458 359 470 328 c 128,-1,69
 482 297 482 297 482 262 c 256,50,51
EndSplineSet
EndChar

StartChar: endash
Encoding: 8211 8211 167
Width: 528
Flags: W
LayerCount: 2
Fore
SplineSet
472 249 m 1,0,-1
 472 364 l 1,1,-1
 56 364 l 1,2,-1
 56 249 l 1,3,-1
 472 249 l 1,0,-1
EndSplineSet
EndChar

StartChar: emdash
Encoding: 8212 8212 168
Width: 898
Flags: W
LayerCount: 2
Fore
SplineSet
842 249 m 1,0,-1
 842 364 l 1,1,-1
 56 364 l 1,2,-1
 56 249 l 1,3,-1
 842 249 l 1,0,-1
EndSplineSet
EndChar

StartChar: quotedblleft
Encoding: 8220 8220 169
Width: 501
Flags: W
LayerCount: 2
Fore
SplineSet
462 653 m 1,0,-1
 449 705 l 1,1,2
 373 699 373 699 334 661 c 128,-1,3
 295 623 295 623 295 539 c 2,4,-1
 295 422 l 1,5,-1
 428 422 l 1,6,-1
 428 560 l 1,7,-1
 376 560 l 1,8,9
 370 636 370 636 462 653 c 1,0,-1
230 653 m 1,10,-1
 217 705 l 1,11,12
 141 699 141 699 102 661 c 128,-1,13
 63 623 63 623 63 539 c 2,14,-1
 63 422 l 1,15,-1
 196 422 l 1,16,-1
 196 560 l 1,17,-1
 145 560 l 1,18,19
 138 636 138 636 230 653 c 1,10,-1
EndSplineSet
EndChar

StartChar: quotedblright
Encoding: 8221 8221 170
Width: 501
Flags: W
LayerCount: 2
Fore
SplineSet
271 469 m 1,0,-1
 284 417 l 1,1,2
 360 423 360 423 399 461 c 128,-1,3
 438 499 438 499 438 583 c 2,4,-1
 438 700 l 1,5,-1
 305 700 l 1,6,-1
 305 563 l 1,7,-1
 356 563 l 1,8,9
 363 486 363 486 271 469 c 1,0,-1
39 469 m 1,10,-1
 52 417 l 1,11,12
 128 423 128 423 167 461 c 128,-1,13
 206 499 206 499 206 583 c 2,14,-1
 206 700 l 1,15,-1
 73 700 l 1,16,-1
 73 563 l 1,17,-1
 124 563 l 1,18,19
 131 486 131 486 39 469 c 1,10,-1
EndSplineSet
EndChar

StartChar: quoteleft
Encoding: 8216 8216 171
Width: 269
Flags: W
LayerCount: 2
Fore
SplineSet
230 653 m 1,0,-1
 217 705 l 1,1,2
 141 699 141 699 102 661 c 128,-1,3
 63 623 63 623 63 539 c 2,4,-1
 63 422 l 1,5,-1
 196 422 l 1,6,-1
 196 560 l 1,7,-1
 145 560 l 1,8,9
 138 636 138 636 230 653 c 1,0,-1
EndSplineSet
EndChar

StartChar: quoteright
Encoding: 8217 8217 172
Width: 269
Flags: W
LayerCount: 2
Fore
SplineSet
39 469 m 1,0,-1
 52 417 l 1,1,2
 128 423 128 423 167 461 c 128,-1,3
 206 499 206 499 206 583 c 2,4,-1
 206 700 l 1,5,-1
 73 700 l 1,6,-1
 73 563 l 1,7,-1
 124 563 l 1,8,9
 131 486 131 486 39 469 c 1,0,-1
EndSplineSet
EndChar

StartChar: currency
Encoding: 164 164 175
Width: 720
Flags: W
LayerCount: 2
Fore
SplineSet
130 395 m 1,0,1
 128 384 128 384 128 372 c 256,2,3
 128 360 128 360 128 349 c 0,4,5
 128 339 128 339 128 329 c 0,6,7
 128 320 128 320 129 310 c 1,8,-1
 52 310 l 1,9,-1
 52 225 l 1,10,-1
 143 225 l 1,11,12
 157 172 157 172 183.5 128.5 c 128,-1,13
 210 85 210 85 247 53.5 c 128,-1,14
 284 22 284 22 331 5 c 128,-1,15
 378 -12 378 -12 434 -12 c 0,16,17
 477 -12 477 -12 512 -1.5 c 128,-1,18
 547 9 547 9 576.5 27.5 c 128,-1,19
 606 46 606 46 630.5 72 c 128,-1,20
 655 98 655 98 676 129 c 1,21,-1
 588 193 l 1,22,23
 571 170 571 170 554 152.5 c 128,-1,24
 537 135 537 135 519 123 c 128,-1,25
 501 111 501 111 480.5 104.5 c 128,-1,26
 460 98 460 98 435 98 c 0,27,28
 376 98 376 98 334 132 c 128,-1,29
 292 166 292 166 272 225 c 1,30,-1
 488 225 l 1,31,-1
 488 310 l 1,32,-1
 254 310 l 1,33,34
 253 321 253 321 252.5 330.5 c 128,-1,35
 252 340 252 340 252 351 c 256,36,37
 252 362 252 362 252.5 373 c 128,-1,38
 253 384 253 384 254 395 c 1,39,-1
 488 395 l 1,40,-1
 488 480 l 1,41,-1
 274 480 l 1,42,43
 294 537 294 537 333.5 569.5 c 128,-1,44
 373 602 373 602 427 602 c 0,45,46
 479 602 479 602 514 578.5 c 128,-1,47
 549 555 549 555 581 511 c 1,48,-1
 674 580 l 1,49,50
 654 608 654 608 630.5 632.5 c 128,-1,51
 607 657 607 657 578 674.5 c 128,-1,52
 549 692 549 692 512.5 702 c 128,-1,53
 476 712 476 712 430 712 c 0,54,55
 377 712 377 712 331.5 694.5 c 128,-1,56
 286 677 286 677 250 646.5 c 128,-1,57
 214 616 214 616 187.5 573.5 c 128,-1,58
 161 531 161 531 146 480 c 1,59,-1
 52 480 l 1,60,-1
 52 395 l 1,61,-1
 130 395 l 1,0,1
EndSplineSet
EndChar

StartChar: guilsinglleft
Encoding: 8249 8249 176
Width: 354
Flags: W
LayerCount: 2
Fore
SplineSet
210 488 m 1,0,-1
 44 268 l 1,1,-1
 44 260 l 1,2,-1
 210 41 l 1,3,-1
 302 88 l 1,4,-1
 170 265 l 1,5,-1
 302 441 l 1,6,-1
 210 488 l 1,0,-1
EndSplineSet
EndChar

StartChar: guilsinglright
Encoding: 8250 8250 177
Width: 354
Flags: W
LayerCount: 2
Fore
SplineSet
145 41 m 1,0,-1
 310 260 l 1,1,-1
 310 268 l 1,2,-1
 145 488 l 1,3,-1
 53 440 l 1,4,-1
 185 263 l 1,5,-1
 53 87 l 1,6,-1
 145 41 l 1,0,-1
EndSplineSet
EndChar

StartChar: fi
Encoding: 64257 64257 178
Width: 662
Flags: W
LayerCount: 2
Fore
SplineSet
584 609 m 1,0,-1
 584 724 l 1,1,-1
 454 724 l 1,2,-1
 454 609 l 1,3,-1
 584 609 l 1,0,-1
222 524 m 1,4,-1
 222 553 l 2,5,6
 222 633 222 633 292 633 c 0,7,8
 312 633 312 633 328.5 629.5 c 128,-1,9
 345 626 345 626 363 620 c 1,10,-1
 363 722 l 1,11,12
 343 728 343 728 320 732 c 128,-1,13
 297 736 297 736 265 736 c 0,14,15
 187 736 187 736 145 693.5 c 128,-1,16
 103 651 103 651 103 563 c 2,17,-1
 103 525 l 1,18,-1
 36 525 l 1,19,-1
 36 424 l 1,20,-1
 103 424 l 1,21,-1
 103 0 l 1,22,-1
 224 0 l 1,23,-1
 224 424 l 1,24,-1
 362 424 l 1,25,-1
 362 524 l 1,26,-1
 222 524 l 1,4,-1
580 0 m 1,27,-1
 580 528 l 1,28,-1
 459 528 l 1,29,-1
 459 0 l 1,30,-1
 580 0 l 1,27,-1
EndSplineSet
EndChar

StartChar: fl
Encoding: 64258 64258 179
Width: 662
Flags: W
LayerCount: 2
Fore
SplineSet
222 524 m 1,0,-1
 222 553 l 2,1,2
 222 633 222 633 292 633 c 0,3,4
 312 633 312 633 328.5 629.5 c 128,-1,5
 345 626 345 626 363 620 c 1,6,-1
 363 722 l 1,7,8
 343 728 343 728 320 732 c 128,-1,9
 297 736 297 736 265 736 c 0,10,11
 187 736 187 736 145 693.5 c 128,-1,12
 103 651 103 651 103 563 c 2,13,-1
 103 525 l 1,14,-1
 36 525 l 1,15,-1
 36 424 l 1,16,-1
 103 424 l 1,17,-1
 103 0 l 1,18,-1
 224 0 l 1,19,-1
 224 424 l 1,20,-1
 362 424 l 1,21,-1
 362 524 l 1,22,-1
 222 524 l 1,0,-1
580 0 m 1,23,-1
 580 730 l 1,24,-1
 459 730 l 1,25,-1
 459 0 l 1,26,-1
 580 0 l 1,23,-1
EndSplineSet
EndChar

StartChar: daggerdbl
Encoding: 8225 8225 180
Width: 430
Flags: W
LayerCount: 2
Fore
SplineSet
364 125 m 1,0,-1
 364 196 l 1,1,-1
 243 187 l 1,2,-1
 251 350 l 1,3,-1
 243 513 l 1,4,-1
 364 504 l 1,5,-1
 364 575 l 1,6,-1
 243 566 l 1,7,-1
 255 700 l 1,8,-1
 175 700 l 1,9,-1
 187 566 l 1,10,-1
 66 575 l 1,11,-1
 66 504 l 1,12,-1
 187 513 l 1,13,-1
 179 350 l 1,14,-1
 187 187 l 1,15,-1
 66 196 l 1,16,-1
 66 125 l 1,17,-1
 187 134 l 1,18,-1
 175 0 l 1,19,-1
 255 0 l 1,20,-1
 243 134 l 1,21,-1
 364 125 l 1,0,-1
EndSplineSet
EndChar

StartChar: periodcentered
Encoding: 183 183 181
Width: 269
Flags: W
LayerCount: 2
Fore
SplineSet
201 238 m 1,0,-1
 201 375 l 1,1,-1
 68 375 l 1,2,-1
 68 238 l 1,3,-1
 201 238 l 1,0,-1
EndSplineSet
EndChar

StartChar: quotesinglbase
Encoding: 8218 8218 182
Width: 269
Flags: W
LayerCount: 2
Fore
SplineSet
34 -94 m 1,0,-1
 47 -145 l 1,1,2
 123 -139 123 -139 162 -101 c 128,-1,3
 201 -63 201 -63 201 21 c 2,4,-1
 201 137 l 1,5,-1
 68 137 l 1,6,-1
 68 0 l 1,7,-1
 119 0 l 1,8,9
 126 -76 126 -76 34 -94 c 1,0,-1
EndSplineSet
EndChar

StartChar: quotedblbase
Encoding: 8222 8222 183
Width: 501
Flags: W
LayerCount: 2
Fore
SplineSet
266 -94 m 1,0,-1
 279 -145 l 1,1,2
 355 -139 355 -139 394 -101 c 128,-1,3
 433 -63 433 -63 433 21 c 2,4,-1
 433 137 l 1,5,-1
 300 137 l 1,6,-1
 300 0 l 1,7,-1
 351 0 l 1,8,9
 358 -76 358 -76 266 -94 c 1,0,-1
34 -94 m 1,10,-1
 47 -145 l 1,11,12
 123 -139 123 -139 162 -101 c 128,-1,13
 201 -63 201 -63 201 21 c 2,14,-1
 201 137 l 1,15,-1
 68 137 l 1,16,-1
 68 0 l 1,17,-1
 119 0 l 1,18,19
 126 -76 126 -76 34 -94 c 1,10,-1
EndSplineSet
EndChar

StartChar: perthousand
Encoding: 8240 8240 184
Width: 1228
Flags: W
LayerCount: 2
Fore
SplineSet
378 530 m 0,0,1
 378 566 378 566 366 598.5 c 128,-1,2
 354 631 354 631 332.5 655.5 c 128,-1,3
 311 680 311 680 281 694 c 128,-1,4
 251 708 251 708 214 708 c 256,5,6
 177 708 177 708 146.5 693.5 c 128,-1,7
 116 679 116 679 94 654.5 c 128,-1,8
 72 630 72 630 60 597.5 c 128,-1,9
 48 565 48 565 48 528 c 0,10,11
 48 492 48 492 60 459.5 c 128,-1,12
 72 427 72 427 93.5 402.5 c 128,-1,13
 115 378 115 378 145 364 c 128,-1,14
 175 350 175 350 212 350 c 256,15,16
 249 350 249 350 279.5 364.5 c 128,-1,17
 310 379 310 379 332 403.5 c 128,-1,18
 354 428 354 428 366 460.5 c 128,-1,19
 378 493 378 493 378 530 c 0,0,1
631 700 m 1,20,-1
 119 0 l 1,21,-1
 218 0 l 1,22,-1
 730 700 l 1,23,-1
 631 700 l 1,20,-1
1180 172 m 0,24,25
 1180 208 1180 208 1168 240.5 c 128,-1,26
 1156 273 1156 273 1134.5 297.5 c 128,-1,27
 1113 322 1113 322 1083 336 c 128,-1,28
 1053 350 1053 350 1016 350 c 0,29,30
 978 350 978 350 947.5 335.5 c 128,-1,31
 917 321 917 321 895.5 296.5 c 128,-1,32
 874 272 874 272 862 239.5 c 128,-1,33
 850 207 850 207 850 170 c 0,34,35
 850 134 850 134 861.5 101.5 c 128,-1,36
 873 69 873 69 894.5 44.5 c 128,-1,37
 916 20 916 20 946.5 6 c 128,-1,38
 977 -8 977 -8 1014 -8 c 256,39,40
 1051 -8 1051 -8 1081.5 6.5 c 128,-1,41
 1112 21 1112 21 1134 45.5 c 128,-1,42
 1156 70 1156 70 1168 102.5 c 128,-1,43
 1180 135 1180 135 1180 172 c 0,24,25
801 172 m 0,44,45
 801 208 801 208 789 240.5 c 128,-1,46
 777 273 777 273 755.5 297.5 c 128,-1,47
 734 322 734 322 704 336 c 128,-1,48
 674 350 674 350 637 350 c 256,49,50
 600 350 600 350 569.5 335.5 c 128,-1,51
 539 321 539 321 517 296.5 c 128,-1,52
 495 272 495 272 483 239.5 c 128,-1,53
 471 207 471 207 471 170 c 0,54,55
 471 134 471 134 483 101.5 c 128,-1,56
 495 69 495 69 516.5 44.5 c 128,-1,57
 538 20 538 20 568 6 c 128,-1,58
 598 -8 598 -8 635 -8 c 256,59,60
 672 -8 672 -8 702.5 6.5 c 128,-1,61
 733 21 733 21 755 45.5 c 128,-1,62
 777 70 777 70 789 102.5 c 128,-1,63
 801 135 801 135 801 172 c 0,44,45
289 528 m 0,64,65
 289 486 289 486 269 456.5 c 128,-1,66
 249 427 249 427 214 427 c 0,67,68
 180 427 180 427 158.5 456.5 c 128,-1,69
 137 486 137 486 137 530 c 0,70,71
 137 572 137 572 157 601.5 c 128,-1,72
 177 631 177 631 212 631 c 0,73,74
 246 631 246 631 267.5 601.5 c 128,-1,75
 289 572 289 572 289 528 c 0,64,65
1091 170 m 0,76,77
 1091 128 1091 128 1071 98.5 c 128,-1,78
 1051 69 1051 69 1016 69 c 0,79,80
 982 69 982 69 960.5 98.5 c 128,-1,81
 939 128 939 128 939 172 c 0,82,83
 939 214 939 214 959 243.5 c 128,-1,84
 979 273 979 273 1014 273 c 0,85,86
 1048 273 1048 273 1069.5 243.5 c 128,-1,87
 1091 214 1091 214 1091 170 c 0,76,77
712 170 m 0,88,89
 712 128 712 128 692 98.5 c 128,-1,90
 672 69 672 69 637 69 c 0,91,92
 603 69 603 69 581.5 98.5 c 128,-1,93
 560 128 560 128 560 172 c 0,94,95
 560 214 560 214 580 243.5 c 128,-1,96
 600 273 600 273 635 273 c 0,97,98
 669 273 669 273 690.5 243.5 c 128,-1,99
 712 214 712 214 712 170 c 0,88,89
EndSplineSet
EndChar

StartChar: apple
Encoding: 63743 63743 196
Width: 967
Flags: W
LayerCount: 2
Fore
SplineSet
868 0 m 1,0,-1
 868 750 l 1,1,-1
 101 750 l 1,2,-1
 101 0 l 1,3,-1
 868 0 l 1,0,-1
859 -104 m 1,4,-1
 853 -70 l 1,5,-1
 852 -70 l 1,6,-1
 839 -96 l 1,7,-1
 826 -70 l 1,8,-1
 825 -70 l 1,9,-1
 819 -104 l 1,10,-1
 825 -104 l 1,11,-1
 828 -84 l 1,12,-1
 838 -105 l 1,13,-1
 840 -105 l 1,14,-1
 850 -84 l 1,15,-1
 853 -104 l 1,16,-1
 859 -104 l 1,4,-1
806 -87 m 0,17,18
 806 -80 806 -80 801.5 -75 c 128,-1,19
 797 -70 797 -70 790 -70 c 0,20,21
 782 -70 782 -70 777 -75 c 128,-1,22
 772 -80 772 -80 772 -88 c 0,23,24
 772 -95 772 -95 776.5 -100 c 128,-1,25
 781 -105 781 -105 789 -105 c 256,26,27
 797 -105 797 -105 801.5 -100 c 128,-1,28
 806 -95 806 -95 806 -87 c 0,17,18
758 -96 m 1,29,30
 752 -100 752 -100 748 -100 c 0,31,32
 735 -100 735 -100 735 -87 c 0,33,34
 735 -82 735 -82 738.5 -78.5 c 128,-1,35
 742 -75 742 -75 747 -75 c 0,36,37
 753 -75 753 -75 756 -78 c 2,38,-1
 758 -73 l 1,39,40
 753 -70 753 -70 747 -70 c 0,41,42
 739 -70 739 -70 734 -75 c 128,-1,43
 729 -80 729 -80 729 -88 c 0,44,45
 729 -105 729 -105 747 -105 c 0,46,47
 754 -105 754 -105 757 -102 c 2,48,-1
 758 -96 l 1,29,30
702 -71 m 1,49,-1
 695 -71 l 1,50,-1
 686 -85 l 1,51,-1
 675 -70 l 1,52,-1
 669 -71 l 1,53,-1
 683 -90 l 1,54,-1
 683 -104 l 1,55,-1
 689 -104 l 1,56,-1
 689 -90 l 1,57,-1
 702 -71 l 1,49,-1
656 -104 m 1,58,-1
 656 -71 l 1,59,-1
 650 -71 l 1,60,-1
 650 -84 l 1,61,-1
 634 -84 l 1,62,-1
 634 -71 l 1,63,-1
 628 -71 l 1,64,-1
 628 -104 l 1,65,-1
 634 -104 l 1,66,-1
 634 -89 l 1,67,-1
 650 -89 l 1,68,-1
 650 -104 l 1,69,-1
 656 -104 l 1,58,-1
612 -82 m 0,70,71
 612 -77 612 -77 607.5 -73 c 128,-1,72
 603 -69 603 -69 589 -71 c 1,73,-1
 589 -104 l 1,74,-1
 595 -104 l 1,75,-1
 595 -94 l 1,76,77
 612 -94 612 -94 612 -82 c 0,70,71
576 -104 m 1,78,-1
 560 -70 l 1,79,-1
 558 -70 l 1,80,-1
 543 -104 l 1,81,-1
 549 -104 l 1,82,-1
 552 -96 l 1,83,-1
 566 -96 l 1,84,-1
 570 -104 l 1,85,-1
 576 -104 l 1,78,-1
534 -104 m 1,86,-1
 524 -91 l 1,87,88
 531 -88 531 -88 531 -81 c 0,89,90
 531 -76 531 -76 526.5 -72.5 c 128,-1,91
 522 -69 522 -69 508 -71 c 1,92,-1
 508 -104 l 1,93,-1
 514 -104 l 1,94,-1
 514 -93 l 1,95,-1
 519 -93 l 1,96,-1
 527 -104 l 1,97,-1
 534 -104 l 1,86,-1
491 -101 m 1,98,-1
 491 -86 l 1,99,-1
 476 -86 l 1,100,-1
 476 -91 l 1,101,-1
 485 -91 l 1,102,-1
 485 -98 l 1,103,104
 481 -100 481 -100 479 -100 c 0,105,106
 466 -100 466 -100 466 -88 c 0,107,108
 466 -75 466 -75 478 -75 c 0,109,110
 485 -75 485 -75 489 -79 c 1,111,-1
 491 -74 l 1,112,113
 485 -70 485 -70 479 -70 c 0,114,115
 471 -70 471 -70 465.5 -75 c 128,-1,116
 460 -80 460 -80 460 -88 c 256,117,118
 460 -96 460 -96 465 -100.5 c 128,-1,119
 470 -105 470 -105 478 -105 c 0,120,121
 485 -105 485 -105 491 -101 c 1,98,-1
447 -87 m 0,122,123
 447 -80 447 -80 442.5 -75 c 128,-1,124
 438 -70 438 -70 431 -70 c 0,125,126
 423 -70 423 -70 418 -75 c 128,-1,127
 413 -80 413 -80 413 -88 c 0,128,129
 413 -95 413 -95 417.5 -100 c 128,-1,130
 422 -105 422 -105 430 -105 c 256,131,132
 438 -105 438 -105 442.5 -100 c 128,-1,133
 447 -95 447 -95 447 -87 c 0,122,123
400 -82 m 0,134,135
 400 -77 400 -77 395.5 -73 c 128,-1,136
 391 -69 391 -69 377 -71 c 1,137,-1
 377 -104 l 1,138,-1
 383 -104 l 1,139,-1
 383 -94 l 1,140,141
 400 -94 400 -94 400 -82 c 0,134,135
364 -71 m 1,142,-1
 357 -71 l 1,143,-1
 348 -85 l 1,144,-1
 337 -70 l 1,145,-1
 331 -71 l 1,146,-1
 345 -90 l 1,147,-1
 345 -104 l 1,148,-1
 351 -104 l 1,149,-1
 351 -90 l 1,150,-1
 364 -71 l 1,142,-1
323 -71 m 1,151,-1
 293 -71 l 1,152,-1
 293 -76 l 1,153,-1
 305 -76 l 1,154,-1
 305 -104 l 1,155,-1
 311 -104 l 1,156,-1
 311 -76 l 1,157,-1
 323 -76 l 1,158,-1
 323 -71 l 1,151,-1
267 -71 m 1,159,-1
 261 -71 l 1,160,-1
 254 -93 l 1,161,-1
 244 -70 l 1,162,-1
 243 -70 l 1,163,-1
 233 -93 l 1,164,-1
 226 -70 l 1,165,-1
 220 -71 l 1,166,-1
 232 -105 l 1,167,-1
 233 -105 l 1,168,-1
 243 -82 l 1,169,-1
 254 -105 l 1,170,-1
 255 -105 l 1,171,-1
 267 -71 l 1,159,-1
211 -71 m 1,172,-1
 205 -71 l 1,173,-1
 198 -93 l 1,174,-1
 188 -70 l 1,175,-1
 187 -70 l 1,176,-1
 177 -93 l 1,177,-1
 170 -70 l 1,178,-1
 164 -71 l 1,179,-1
 176 -105 l 1,180,-1
 177 -105 l 1,181,-1
 187 -82 l 1,182,-1
 198 -105 l 1,183,-1
 199 -105 l 1,184,-1
 211 -71 l 1,172,-1
155 -71 m 1,185,-1
 149 -71 l 1,186,-1
 142 -93 l 1,187,-1
 132 -70 l 1,188,-1
 131 -70 l 1,189,-1
 121 -93 l 1,190,-1
 114 -70 l 1,191,-1
 108 -71 l 1,192,-1
 120 -105 l 1,193,-1
 121 -105 l 1,194,-1
 131 -82 l 1,195,-1
 142 -105 l 1,196,-1
 143 -105 l 1,197,-1
 155 -71 l 1,185,-1
716 -101 m 256,198,199
 716 -97 716 -97 712 -97 c 256,200,201
 708 -97 708 -97 708 -101 c 256,202,203
 708 -105 708 -105 712 -105 c 256,204,205
 716 -105 716 -105 716 -101 c 256,198,199
284 -101 m 256,206,207
 284 -97 284 -97 280 -97 c 256,208,209
 276 -97 276 -97 276 -101 c 256,210,211
 276 -105 276 -105 280 -105 c 256,212,213
 284 -105 284 -105 284 -101 c 256,206,207
559 686 m 1,214,-1
 557 686 l 1,215,216
 557 686 557 686 554.5 690.5 c 128,-1,217
 552 695 552 695 547 695 c 0,218,219
 544 695 544 695 544 692 c 2,220,-1
 544 669 l 2,221,222
 544 664 544 664 546 664 c 0,223,224
 549 664 549 664 549 664 c 1,225,-1
 549 662 l 1,226,-1
 532 662 l 1,227,-1
 532 664 l 1,228,229
 532 664 532 664 534 664 c 0,230,231
 537 664 537 664 537 669 c 2,232,-1
 537 692 l 2,233,234
 537 695 537 695 534 695 c 0,235,236
 529 695 529 695 526.5 690.5 c 128,-1,237
 524 686 524 686 524 686 c 1,238,-1
 522 686 l 1,239,240
 522 686 522 686 522.5 690.5 c 128,-1,241
 523 695 523 695 523 698 c 1,242,243
 526 697 526 697 541 697 c 256,244,245
 556 697 556 697 558 698 c 1,246,247
 559 695 559 695 559 690 c 0,248,249
 559 686 559 686 559 686 c 1,214,-1
504 662 m 1,250,-1
 486 662 l 1,251,-1
 486 664 l 1,252,253
 486 664 486 664 488 664 c 0,254,255
 491 664 491 664 491 669 c 2,256,-1
 491 679 l 1,257,-1
 474 679 l 1,258,-1
 474 669 l 2,259,260
 474 665 474 665 476.5 664.5 c 128,-1,261
 479 664 479 664 479 664 c 1,262,-1
 479 662 l 1,263,-1
 462 662 l 1,264,-1
 462 664 l 1,265,266
 462 664 462 664 464.5 664.5 c 128,-1,267
 467 665 467 665 467 669 c 2,268,-1
 467 690 l 2,269,270
 467 695 467 695 464 695 c 0,271,272
 462 695 462 695 462 695 c 1,273,-1
 462 697 l 1,274,-1
 479 697 l 1,275,-1
 479 696 l 1,276,-1
 479 695 l 1,277,278
 479 695 479 695 476 695 c 0,279,280
 474 695 474 695 474 690 c 2,281,-1
 474 681 l 1,282,-1
 491 681 l 1,283,-1
 491 690 l 2,284,285
 491 695 491 695 488 695 c 0,286,287
 486 695 486 695 486 695 c 1,288,-1
 486 696 l 1,289,-1
 486 697 l 1,290,-1
 504 697 l 1,291,-1
 504 695 l 1,292,293
 504 695 504 695 501 695 c 256,294,295
 498 695 498 695 498 690 c 2,296,-1
 498 669 l 2,297,298
 498 664 498 664 501 664 c 256,299,300
 504 664 504 664 504 664 c 1,301,-1
 504 662 l 1,250,-1
439 664 m 1,302,-1
 439 662 l 1,303,-1
 409 662 l 1,304,-1
 407 673 l 1,305,-1
 409 674 l 1,306,307
 409 674 409 674 411.5 669.5 c 128,-1,308
 414 665 414 665 419 665 c 2,309,-1
 423 665 l 2,310,311
 427 665 427 665 427 668 c 2,312,-1
 427 679 l 1,313,-1
 423 679 l 2,314,315
 418 679 418 679 417.5 676 c 128,-1,316
 417 673 417 673 417 673 c 1,317,-1
 415 673 l 1,318,-1
 415 686 l 1,319,-1
 417 686 l 1,320,321
 417 686 417 686 417.5 683.5 c 128,-1,322
 418 681 418 681 423 681 c 2,323,-1
 427 681 l 1,324,-1
 427 691 l 2,325,326
 427 694 427 694 423 694 c 2,327,-1
 419 694 l 2,328,329
 414 694 414 694 412 690 c 128,-1,330
 410 686 410 686 410 686 c 1,331,-1
 408 687 l 1,332,-1
 410 697 l 1,333,-1
 439 697 l 1,334,-1
 439 695 l 1,335,336
 439 695 439 695 436 695 c 0,337,338
 434 695 434 695 434 690 c 2,339,-1
 434 669 l 2,340,341
 434 664 434 664 436 664 c 0,342,343
 439 664 439 664 439 664 c 1,302,-1
827 618 m 1,344,-1
 142 618 l 1,345,-1
 142 624 l 1,346,-1
 827 624 l 1,347,-1
 827 618 l 1,344,-1
696 540 m 0,348,349
 696 528 696 528 688 523 c 128,-1,350
 680 518 680 518 673 518 c 0,351,352
 659 518 659 518 647.5 529 c 128,-1,353
 636 540 636 540 636 556 c 0,354,355
 636 568 636 568 644 573 c 128,-1,356
 652 578 652 578 659 578 c 0,357,358
 673 578 673 578 684.5 566.5 c 128,-1,359
 696 555 696 555 696 540 c 0,348,349
589 537 m 0,360,361
 589 529 589 529 583 523.5 c 128,-1,362
 577 518 577 518 564 518 c 0,363,364
 548 518 548 518 548 531 c 0,365,366
 548 541 548 541 557 541 c 0,367,368
 564 541 564 541 564 536 c 256,369,370
 564 531 564 531 560 531 c 0,371,372
 558 531 558 531 557 532 c 128,-1,373
 556 533 556 533 555 533 c 0,374,375
 552 533 552 533 552 530 c 0,376,377
 552 521 552 521 564 521 c 256,378,379
 576 521 576 521 576 535 c 0,380,381
 576 545 576 545 570 550 c 1,382,383
 565 545 565 545 559 545 c 0,384,385
 551 545 551 545 551 551 c 0,386,387
 551 559 551 559 567 557 c 0,388,389
 569 559 569 559 569 563 c 0,390,391
 569 575 569 575 559 575 c 0,392,393
 552 575 552 575 552 570 c 0,394,395
 552 568 552 568 553.5 567.5 c 128,-1,396
 555 567 555 567 555 564 c 256,397,398
 555 561 555 561 551 561 c 0,399,400
 546 561 546 561 546 567 c 0,401,402
 546 578 546 578 559 578 c 0,403,404
 570 578 570 578 575 573 c 128,-1,405
 580 568 580 568 580 563 c 0,406,407
 580 557 580 557 575 554 c 1,408,409
 589 549 589 549 589 537 c 0,360,361
295 537 m 0,410,411
 295 529 295 529 289 523.5 c 128,-1,412
 283 518 283 518 270 518 c 0,413,414
 254 518 254 518 254 531 c 0,415,416
 254 541 254 541 263 541 c 0,417,418
 270 541 270 541 270 536 c 256,419,420
 270 531 270 531 266 531 c 0,421,422
 264 531 264 531 263 532 c 128,-1,423
 262 533 262 533 261 533 c 0,424,425
 258 533 258 533 258 530 c 0,426,427
 258 521 258 521 270 521 c 256,428,429
 282 521 282 521 282 535 c 0,430,431
 282 545 282 545 276 550 c 1,432,433
 271 545 271 545 265 545 c 0,434,435
 257 545 257 545 257 551 c 0,436,437
 257 559 257 559 273 557 c 0,438,439
 275 559 275 559 275 563 c 0,440,441
 275 575 275 575 265 575 c 0,442,443
 258 575 258 575 258 570 c 0,444,445
 258 568 258 568 259.5 567.5 c 128,-1,446
 261 567 261 567 261 564 c 256,447,448
 261 561 261 561 257 561 c 0,449,450
 252 561 252 561 252 567 c 0,451,452
 252 578 252 578 265 578 c 0,453,454
 276 578 276 578 281 573 c 128,-1,455
 286 568 286 568 286 563 c 0,456,457
 286 557 286 557 281 554 c 1,458,459
 295 549 295 549 295 537 c 0,410,411
820 522 m 1,460,-1
 821 519 l 1,461,-1
 792 519 l 1,462,-1
 791 522 l 1,463,464
 791 522 791 522 795.5 522.5 c 128,-1,465
 800 523 800 523 798 530 c 2,466,-1
 795 546 l 1,467,-1
 771 546 l 1,468,-1
 774 530 l 2,469,470
 776 523 776 523 780 522.5 c 128,-1,471
 784 522 784 522 784 522 c 1,472,-1
 785 519 l 1,473,-1
 756 519 l 1,474,-1
 755 522 l 1,475,476
 755 522 755 522 759.5 522.5 c 128,-1,477
 764 523 764 523 762 530 c 2,478,-1
 755 565 l 2,479,480
 753 572 753 572 749 572.5 c 128,-1,481
 745 573 745 573 745 573 c 1,482,-1
 744 576 l 1,483,-1
 773 576 l 1,484,-1
 774 573 l 1,485,486
 774 573 774 573 769.5 572.5 c 128,-1,487
 765 572 765 572 767 565 c 2,488,-1
 770 550 l 1,489,-1
 794 550 l 1,490,-1
 791 565 l 2,491,492
 789 572 789 572 785.5 572.5 c 128,-1,493
 782 573 782 573 782 573 c 1,494,-1
 781 576 l 1,495,-1
 809 576 l 1,496,-1
 810 573 l 1,497,498
 810 573 810 573 805.5 572.5 c 128,-1,499
 801 572 801 572 803 565 c 2,500,-1
 810 530 l 2,501,502
 812 523 812 523 816 522.5 c 128,-1,503
 820 522 820 522 820 522 c 1,460,-1
498 519 m 1,504,-1
 469 519 l 1,505,-1
 468 522 l 1,506,507
 468 522 468 522 472.5 522.5 c 128,-1,508
 477 523 477 523 475 530 c 2,509,-1
 472 547 l 1,510,-1
 468 547 l 2,511,512
 461 547 461 547 460.5 541.5 c 128,-1,513
 460 536 460 536 460 536 c 1,514,-1
 457 536 l 1,515,-1
 452 559 l 1,516,-1
 455 559 l 1,517,518
 455 559 455 559 457.5 554.5 c 128,-1,519
 460 550 460 550 467 550 c 2,520,-1
 471 550 l 1,521,-1
 468 566 l 2,522,523
 467 572 467 572 462 572 c 2,524,-1
 458 572 l 2,525,526
 447 572 447 572 446 565.5 c 128,-1,527
 445 559 445 559 445 559 c 1,528,-1
 441 559 l 1,529,530
 441 559 441 559 441.5 566 c 128,-1,531
 442 573 442 573 441 576 c 2,532,-1
 486 576 l 1,533,-1
 487 573 l 1,534,535
 487 573 487 573 482.5 572.5 c 128,-1,536
 478 572 478 572 480 565 c 2,537,-1
 487 530 l 2,538,539
 489 523 489 523 493 522.5 c 128,-1,540
 497 522 497 522 497 522 c 1,541,-1
 498 519 l 1,504,-1
202 522 m 1,542,-1
 203 519 l 1,543,-1
 174 519 l 1,544,-1
 173 522 l 1,545,546
 173 522 173 522 177.5 522.5 c 128,-1,547
 182 523 182 523 180 530 c 2,548,-1
 177 545 l 2,549,550
 173 545 173 545 172 542 c 2,551,-1
 160 519 l 1,552,-1
 141 519 l 1,553,-1
 140 522 l 1,554,555
 140 522 140 522 145 522.5 c 128,-1,556
 150 523 150 523 154 530 c 2,557,-1
 163 546 l 1,558,559
 155 547 155 547 149.5 551 c 128,-1,560
 144 555 144 555 144 561 c 0,561,562
 144 576 144 576 164 576 c 2,563,-1
 191 576 l 1,564,-1
 192 573 l 1,565,566
 192 573 192 573 187.5 572.5 c 128,-1,567
 183 572 183 572 185 565 c 2,568,-1
 192 530 l 2,569,570
 194 523 194 523 198 522.5 c 128,-1,571
 202 522 202 522 202 522 c 1,542,-1
400 521 m 0,572,573
 400 518 400 518 396 518 c 0,574,575
 387 518 387 518 384 525 c 1,576,577
 376 525 376 525 374 518.5 c 128,-1,578
 372 512 372 512 359 512 c 0,579,580
 354 512 354 512 349 515.5 c 128,-1,581
 344 519 344 519 344 524 c 0,582,583
 344 531 344 531 349 531 c 256,584,585
 354 531 354 531 354 526 c 0,586,587
 354 524 354 524 353 523.5 c 128,-1,588
 352 523 352 523 352 521 c 0,589,590
 352 517 352 517 357 517 c 256,591,592
 362 517 362 517 365.5 523.5 c 128,-1,593
 369 530 369 530 380 530 c 1,594,595
 374 536 374 536 371.5 543.5 c 128,-1,596
 369 551 369 551 368 558 c 128,-1,597
 367 565 367 565 365.5 570 c 128,-1,598
 364 575 364 575 359 575 c 256,599,600
 354 575 354 575 354 569 c 256,601,602
 354 563 354 563 350 563 c 0,603,604
 345 563 345 563 345 568 c 0,605,606
 345 571 345 571 349 574.5 c 128,-1,607
 353 578 353 578 358 578 c 0,608,609
 370 578 370 578 374.5 571.5 c 128,-1,610
 379 565 379 565 380.5 556.5 c 128,-1,611
 382 548 382 548 382.5 540.5 c 128,-1,612
 383 533 383 533 387 530 c 0,613,614
 394 529 394 529 397 526 c 128,-1,615
 400 523 400 523 400 521 c 0,572,573
827 475 m 1,616,-1
 142 475 l 1,617,-1
 142 481 l 1,618,-1
 827 481 l 1,619,-1
 827 475 l 1,616,-1
827 378 m 1,620,-1
 791 378 l 1,621,-1
 791 406 l 1,622,-1
 780 406 l 1,623,-1
 780 341 l 1,624,-1
 794 341 l 1,625,-1
 794 308 l 1,626,-1
 713 308 l 1,627,-1
 713 341 l 1,628,-1
 727 341 l 1,629,-1
 727 406 l 1,630,-1
 716 406 l 1,631,-1
 716 378 l 1,632,-1
 680 378 l 1,633,-1
 680 440 l 1,634,-1
 827 440 l 1,635,-1
 827 378 l 1,620,-1
648 406 m 1,636,-1
 634 406 l 1,637,-1
 597 361 l 1,638,-1
 597 341 l 1,639,-1
 612 341 l 1,640,-1
 612 308 l 1,641,-1
 531 308 l 1,642,-1
 531 341 l 1,643,-1
 545 341 l 1,644,-1
 545 360 l 1,645,-1
 508 406 l 1,646,-1
 496 406 l 1,647,-1
 496 440 l 1,648,-1
 558 440 l 1,649,-1
 558 406 l 1,650,-1
 548 406 l 1,651,-1
 563 383 l 1,652,-1
 578 406 l 1,653,-1
 567 406 l 1,654,-1
 567 440 l 1,655,-1
 648 440 l 1,656,-1
 648 406 l 1,636,-1
458 308 m 1,657,-1
 377 308 l 1,658,-1
 377 341 l 1,659,-1
 392 341 l 1,660,-1
 392 360 l 1,661,-1
 362 360 l 2,662,663
 340 360 340 360 327.5 371.5 c 128,-1,664
 315 383 315 383 315 400 c 256,665,666
 315 417 315 417 327.5 428.5 c 128,-1,667
 340 440 340 440 362 440 c 2,668,-1
 458 440 l 1,669,-1
 458 406 l 1,670,-1
 444 406 l 1,671,-1
 444 341 l 1,672,-1
 458 341 l 1,673,-1
 458 308 l 1,657,-1
283 308 m 1,674,-1
 142 308 l 1,675,-1
 142 369 l 1,676,-1
 183 369 l 1,677,-1
 183 341 l 1,678,-1
 216 341 l 1,679,-1
 216 362 l 1,680,-1
 192 362 l 1,681,-1
 192 386 l 1,682,-1
 216 386 l 1,683,-1
 216 406 l 1,684,-1
 183 406 l 1,685,-1
 183 378 l 1,686,-1
 142 378 l 1,687,-1
 142 440 l 1,688,-1
 283 440 l 1,689,-1
 283 406 l 1,690,-1
 269 406 l 1,691,-1
 269 341 l 1,692,-1
 283 341 l 1,693,-1
 283 308 l 1,674,-1
827 271 m 1,694,-1
 142 271 l 1,695,-1
 142 277 l 1,696,-1
 827 277 l 1,697,-1
 827 271 l 1,694,-1
728 192 m 0,698,699
 728 180 728 180 720 175 c 128,-1,700
 712 170 712 170 705 170 c 0,701,702
 691 170 691 170 679.5 181 c 128,-1,703
 668 192 668 192 668 208 c 0,704,705
 668 220 668 220 676 225 c 128,-1,706
 684 230 684 230 691 230 c 0,707,708
 705 230 705 230 716.5 218.5 c 128,-1,709
 728 207 728 207 728 192 c 0,698,699
203 217 m 1,710,-1
 201 215 l 2,711,712
 199 217 199 217 196.5 219.5 c 128,-1,713
 194 222 194 222 189 222 c 0,714,715
 180 222 180 222 180 209 c 0,716,717
 180 201 180 201 185 184 c 0,718,719
 187 176 187 176 191 175.5 c 128,-1,720
 195 175 195 175 195 175 c 1,721,-1
 196 171 l 1,722,-1
 168 171 l 1,723,-1
 167 175 l 1,724,725
 167 175 167 175 171.5 176 c 128,-1,726
 176 177 176 177 173 190 c 0,727,728
 170 202 170 202 164.5 212.5 c 128,-1,729
 159 223 159 223 149 223 c 0,730,731
 141 223 141 223 141 217 c 1,732,-1
 138 218 l 1,733,734
 138 224 138 224 141.5 227 c 128,-1,735
 145 230 145 230 150 230 c 0,736,737
 158 230 158 230 163 223.5 c 128,-1,738
 168 217 168 217 171 207 c 1,739,740
 170 230 170 230 185 230 c 0,741,742
 193 230 193 230 196.5 226 c 128,-1,743
 200 222 200 222 203 217 c 1,710,-1
823 171 m 1,744,-1
 794 171 l 1,745,-1
 793 174 l 1,746,747
 793 174 793 174 797.5 174.5 c 128,-1,748
 802 175 802 175 800 182 c 2,749,-1
 797 199 l 1,750,-1
 793 199 l 2,751,752
 786 199 786 199 785.5 193.5 c 128,-1,753
 785 188 785 188 785 188 c 1,754,-1
 782 188 l 1,755,-1
 777 211 l 1,756,-1
 780 211 l 1,757,758
 780 211 780 211 782.5 206.5 c 128,-1,759
 785 202 785 202 792 202 c 2,760,-1
 796 202 l 1,761,-1
 793 218 l 2,762,763
 792 224 792 224 787 224 c 2,764,-1
 783 224 l 2,765,766
 772 224 772 224 771 217.5 c 128,-1,767
 770 211 770 211 770 211 c 1,768,-1
 766 211 l 1,769,770
 766 211 766 211 766.5 218 c 128,-1,771
 767 225 767 225 766 228 c 2,772,-1
 811 228 l 1,773,-1
 812 225 l 1,774,775
 812 225 812 225 807.5 224.5 c 128,-1,776
 803 224 803 224 805 217 c 2,777,-1
 812 182 l 2,778,779
 814 175 814 175 818 174.5 c 128,-1,780
 822 174 822 174 822 174 c 1,781,-1
 823 171 l 1,744,-1
621 225 m 1,782,783
 621 225 621 225 616 224.5 c 128,-1,784
 611 224 611 224 613 216 c 2,785,-1
 618 194 l 2,786,787
 620 186 620 186 618 178 c 128,-1,788
 616 170 616 170 599 170 c 0,789,790
 585 170 585 170 579 179.5 c 128,-1,791
 573 189 573 189 571 197 c 2,792,-1
 567 216 l 2,793,794
 565 224 565 224 560.5 224.5 c 128,-1,795
 556 225 556 225 556 225 c 1,796,-1
 555 228 l 1,797,-1
 579 228 l 1,798,-1
 579 225 l 1,799,800
 579 225 579 225 574.5 224.5 c 128,-1,801
 570 224 570 224 572 216 c 2,802,-1
 576 197 l 2,803,804
 578 188 578 188 583 181.5 c 128,-1,805
 588 175 588 175 596 175 c 0,806,807
 607 175 607 175 608 180 c 128,-1,808
 609 185 609 185 607 195 c 2,809,-1
 602 216 l 2,810,811
 600 224 600 224 596 224.5 c 128,-1,812
 592 225 592 225 592 225 c 1,813,-1
 591 228 l 1,814,-1
 620 228 l 1,815,-1
 621 225 l 1,782,783
522 174 m 1,816,-1
 523 171 l 1,817,-1
 502 171 l 1,818,-1
 501 174 l 1,819,820
 501 174 501 174 505 175 c 128,-1,821
 509 176 509 176 507 184 c 2,822,-1
 501 214 l 1,823,-1
 471 170 l 1,824,-1
 468 171 l 1,825,-1
 460 216 l 2,826,827
 458 223 458 223 454.5 224 c 128,-1,828
 451 225 451 225 451 225 c 1,829,-1
 450 228 l 1,830,-1
 471 228 l 1,831,-1
 472 225 l 1,832,833
 472 225 472 225 467.5 224 c 128,-1,834
 463 223 463 223 465 216 c 2,835,-1
 470 186 l 1,836,-1
 499 228 l 1,837,-1
 513 228 l 1,838,-1
 514 225 l 1,839,840
 514 225 514 225 509 224.5 c 128,-1,841
 504 224 504 224 506 216 c 2,842,-1
 513 184 l 2,843,844
 515 176 515 176 518.5 175 c 128,-1,845
 522 174 522 174 522 174 c 1,816,-1
414 171 m 1,846,-1
 382 171 l 2,847,848
 369 171 369 171 358 180.5 c 128,-1,849
 347 190 347 190 347 206 c 0,850,851
 347 217 347 217 355 222.5 c 128,-1,852
 363 228 363 228 372 228 c 2,853,-1
 402 228 l 1,854,-1
 403 225 l 1,855,856
 392 224 392 224 395 215 c 2,857,-1
 403 184 l 2,858,859
 405 176 405 176 409 175.5 c 128,-1,860
 413 175 413 175 413 175 c 1,861,-1
 414 171 l 1,846,-1
306 174 m 1,862,-1
 307 171 l 1,863,-1
 278 171 l 1,864,-1
 277 174 l 1,865,866
 277 174 277 174 281.5 174.5 c 128,-1,867
 286 175 286 175 284 182 c 2,868,-1
 281 197 l 2,869,870
 277 197 277 197 276 194 c 2,871,-1
 264 171 l 1,872,-1
 245 171 l 1,873,-1
 244 174 l 1,874,875
 244 174 244 174 249 174.5 c 128,-1,876
 254 175 254 175 258 182 c 2,877,-1
 267 198 l 1,878,879
 259 199 259 199 253.5 203 c 128,-1,880
 248 207 248 207 248 213 c 0,881,882
 248 228 248 228 268 228 c 2,883,-1
 295 228 l 1,884,-1
 296 225 l 1,885,886
 296 225 296 225 291.5 224.5 c 128,-1,887
 287 224 287 224 289 217 c 2,888,-1
 296 182 l 2,889,890
 298 175 298 175 302 174.5 c 128,-1,891
 306 174 306 174 306 174 c 1,862,-1
827 127 m 1,892,-1
 142 127 l 1,893,-1
 142 133 l 1,894,-1
 827 133 l 1,895,-1
 827 127 l 1,892,-1
694 46 m 1,896,-1
 680 46 l 1,897,-1
 680 48 l 1,898,899
 680 48 680 48 682.5 49 c 128,-1,900
 685 50 685 50 685 53 c 2,901,-1
 685 73 l 1,902,-1
 660 45 l 1,903,-1
 657 45 l 1,904,-1
 657 73 l 2,905,906
 657 77 657 77 654 78 c 128,-1,907
 651 79 651 79 651 79 c 1,908,-1
 651 81 l 1,909,-1
 666 81 l 1,910,-1
 666 79 l 1,911,912
 666 79 666 79 663 78 c 128,-1,913
 660 77 660 77 660 73 c 2,914,-1
 660 55 l 1,915,-1
 684 81 l 1,916,-1
 694 81 l 1,917,-1
 694 79 l 1,918,919
 694 79 694 79 691 77 c 128,-1,920
 688 75 688 75 688 73 c 2,921,-1
 688 53 l 2,922,923
 688 50 688 50 691 49 c 128,-1,924
 694 48 694 48 694 48 c 1,925,-1
 694 46 l 1,896,-1
633 48 m 1,926,-1
 633 46 l 1,927,-1
 603 46 l 1,928,-1
 601 57 l 1,929,-1
 603 58 l 1,930,931
 603 58 603 58 605.5 53.5 c 128,-1,932
 608 49 608 49 613 49 c 2,933,-1
 617 49 l 2,934,935
 621 49 621 49 621 52 c 2,936,-1
 621 63 l 1,937,-1
 617 63 l 2,938,939
 612 63 612 63 611.5 60 c 128,-1,940
 611 57 611 57 611 57 c 1,941,-1
 609 57 l 1,942,-1
 609 70 l 1,943,-1
 611 70 l 1,944,945
 611 70 611 70 611.5 67.5 c 128,-1,946
 612 65 612 65 617 65 c 2,947,-1
 621 65 l 1,948,-1
 621 75 l 2,949,950
 621 78 621 78 617 78 c 2,951,-1
 613 78 l 2,952,953
 608 78 608 78 606 74 c 128,-1,954
 604 70 604 70 604 70 c 1,955,-1
 602 71 l 1,956,-1
 604 81 l 1,957,-1
 633 81 l 1,958,-1
 633 79 l 1,959,960
 633 79 633 79 630 79 c 0,961,962
 628 79 628 79 628 74 c 2,963,-1
 628 53 l 2,964,965
 628 48 628 48 630 48 c 0,966,967
 633 48 633 48 633 48 c 1,926,-1
583 81 m 1,968,-1
 583 79 l 1,969,970
 583 79 583 79 580.5 78.5 c 128,-1,971
 578 78 578 78 576 73 c 2,972,-1
 564 46 l 1,973,-1
 563 46 l 1,974,-1
 554 62 l 1,975,-1
 546 46 l 2,976,977
 546 45 546 45 545.5 45.5 c 128,-1,978
 545 46 545 46 545 46 c 1,979,-1
 544 46 l 1,980,-1
 531 73 l 2,981,982
 529 77 529 77 527 78 c 128,-1,983
 525 79 525 79 525 79 c 1,984,-1
 525 81 l 1,985,-1
 538 81 l 1,986,-1
 538 79 l 1,987,988
 538 79 538 79 536 78 c 128,-1,989
 534 77 534 77 536 73 c 2,990,-1
 544 55 l 1,991,-1
 551 68 l 1,992,-1
 548 73 l 2,993,994
 545 78 545 78 543 78.5 c 128,-1,995
 541 79 541 79 541 79 c 1,996,-1
 540 81 l 1,997,-1
 566 81 l 1,998,-1
 566 79 l 1,999,1000
 566 79 566 79 564 77.5 c 128,-1,1001
 562 76 562 76 560 73 c 2,1002,-1
 556 65 l 1,1003,-1
 561 55 l 1,1004,-1
 570 74 l 2,1005,1006
 572 77 572 77 570 78 c 128,-1,1007
 568 79 568 79 568 79 c 1,1008,-1
 568 81 l 1,1009,-1
 583 81 l 1,968,-1
480 79 m 1,1010,1011
 480 79 480 79 477.5 78.5 c 128,-1,1012
 475 78 475 78 473 74 c 2,1013,-1
 465 62 l 1,1014,-1
 465 54 l 2,1015,1016
 465 49 465 49 467.5 48.5 c 128,-1,1017
 470 48 470 48 470 48 c 1,1018,-1
 470 46 l 1,1019,-1
 453 46 l 1,1020,-1
 453 48 l 1,1021,1022
 453 48 453 48 455.5 48.5 c 128,-1,1023
 458 49 458 49 458 54 c 2,1024,-1
 458 62 l 1,1025,-1
 450 74 l 2,1026,1027
 448 78 448 78 445 78.5 c 128,-1,1028
 442 79 442 79 442 79 c 1,1029,-1
 442 81 l 1,1030,-1
 457 81 l 1,1031,-1
 457 79 l 1,1032,1033
 457 79 457 79 454.5 78.5 c 128,-1,1034
 452 78 452 78 454 74 c 2,1035,-1
 460 65 l 1,1036,-1
 466 74 l 2,1037,1038
 468 78 468 78 466.5 78.5 c 128,-1,1039
 465 79 465 79 465 79 c 1,1040,-1
 465 81 l 1,1041,-1
 480 81 l 1,1042,-1
 480 79 l 1,1010,1011
425 64 m 256,1043,1044
 425 56 425 56 420 50.5 c 128,-1,1045
 415 45 415 45 405 45 c 256,1046,1047
 395 45 395 45 390 50.5 c 128,-1,1048
 385 56 385 56 385 64 c 256,1049,1050
 385 72 385 72 390 77 c 128,-1,1051
 395 82 395 82 405 82 c 256,1052,1053
 415 82 415 82 420 77 c 128,-1,1054
 425 72 425 72 425 64 c 256,1043,1044
364 46 m 1,1055,-1
 347 46 l 1,1056,-1
 347 48 l 1,1057,1058
 347 48 347 48 349.5 48.5 c 128,-1,1059
 352 49 352 49 352 53 c 2,1060,-1
 352 62 l 1,1061,1062
 348 62 348 62 345 58 c 2,1063,-1
 338 46 l 1,1064,-1
 327 46 l 1,1065,-1
 327 48 l 1,1066,1067
 327 48 327 48 329.5 48.5 c 128,-1,1068
 332 49 332 49 335 53 c 2,1069,-1
 342 63 l 1,1070,1071
 333 67 333 67 333 72 c 0,1072,1073
 333 81 333 81 346 81 c 2,1074,-1
 364 81 l 1,1075,-1
 364 79 l 1,1076,1077
 364 79 364 79 361.5 78.5 c 128,-1,1078
 359 78 359 78 359 73 c 2,1079,-1
 359 53 l 2,1080,1081
 359 49 359 49 361.5 48.5 c 128,-1,1082
 364 48 364 48 364 48 c 1,1083,-1
 364 46 l 1,1055,-1
309 46 m 1,1084,-1
 291 46 l 1,1085,-1
 291 48 l 1,1086,1087
 291 48 291 48 294 48.5 c 128,-1,1088
 297 49 297 49 297 54 c 2,1089,-1
 297 63 l 2,1090,1091
 295 63 295 63 293 61 c 2,1092,-1
 285 53 l 2,1093,1094
 282 49 282 49 284.5 48.5 c 128,-1,1095
 287 48 287 48 287 48 c 1,1096,-1
 287 46 l 1,1097,-1
 270 46 l 1,1098,-1
 270 48 l 1,1099,1100
 270 48 270 48 272.5 49.5 c 128,-1,1101
 275 51 275 51 277 53 c 2,1102,-1
 290 66 l 1,1103,-1
 280 75 l 2,1104,1105
 278 77 278 77 275 78 c 128,-1,1106
 272 79 272 79 272 79 c 1,1107,-1
 272 81 l 1,1108,-1
 286 81 l 1,1109,-1
 286 79 l 1,1110,1111
 286 79 286 79 284.5 78 c 128,-1,1112
 283 77 283 77 285 75 c 2,1113,-1
 293 67 l 2,1114,1115
 295 65 295 65 297 65 c 2,1116,-1
 297 74 l 2,1117,1118
 297 78 297 78 294 78.5 c 128,-1,1119
 291 79 291 79 291 79 c 1,1120,-1
 291 81 l 1,1121,-1
 309 81 l 1,1122,-1
 309 79 l 1,1123,1124
 309 79 309 79 306 78.5 c 128,-1,1125
 303 78 303 78 303 74 c 2,1126,-1
 303 54 l 2,1127,1128
 303 50 303 50 306 49 c 128,-1,1129
 309 48 309 48 309 48 c 1,1130,-1
 309 46 l 1,1084,-1
606 -83 m 0,1131,1132
 606 -89 606 -89 595 -89 c 1,1133,-1
 595 -76 l 1,1134,1135
 606 -75 606 -75 606 -83 c 0,1131,1132
525 -82 m 0,1136,1137
 525 -89 525 -89 514 -88 c 1,1138,-1
 514 -76 l 1,1139,1140
 525 -74 525 -74 525 -82 c 0,1136,1137
394 -83 m 0,1141,1142
 394 -89 394 -89 383 -89 c 1,1143,-1
 383 -76 l 1,1144,1145
 394 -75 394 -75 394 -83 c 0,1141,1142
564 -92 m 1,1146,-1
 554 -92 l 1,1147,-1
 559 -80 l 1,1148,-1
 564 -92 l 1,1146,-1
800 -88 m 0,1149,1150
 800 -100 800 -100 789 -100 c 256,1151,1152
 778 -100 778 -100 778 -87 c 0,1153,1154
 778 -75 778 -75 789 -75 c 256,1155,1156
 800 -75 800 -75 800 -88 c 0,1149,1150
441 -88 m 0,1157,1158
 441 -100 441 -100 430 -100 c 256,1159,1160
 419 -100 419 -100 419 -87 c 0,1161,1162
 419 -75 419 -75 430 -75 c 256,1163,1164
 441 -75 441 -75 441 -88 c 0,1157,1158
176 548 m 1,1165,-1
 173 567 l 2,1166,1167
 172 572 172 572 164 572 c 256,1168,1169
 156 572 156 572 156 563 c 0,1170,1171
 156 558 156 558 159.5 553 c 128,-1,1172
 163 548 163 548 171 548 c 2,1173,-1
 176 548 l 1,1165,-1
566 553 m 1,1174,1175
 564 554 564 554 559 554 c 0,1176,1177
 555 554 555 554 555 551 c 0,1178,1179
 555 549 555 549 559 549 c 256,1180,1181
 563 549 563 549 566 553 c 1,1174,1175
272 553 m 1,1182,1183
 270 554 270 554 265 554 c 0,1184,1185
 261 554 261 554 261 551 c 0,1186,1187
 261 549 261 549 265 549 c 256,1188,1189
 269 549 269 549 272 553 c 1,1182,1183
684 535 m 0,1190,1191
 684 551 684 551 676 562.5 c 128,-1,1192
 668 574 668 574 659 574 c 0,1193,1194
 648 574 648 574 648 560 c 0,1195,1196
 648 545 648 545 656 533.5 c 128,-1,1197
 664 522 664 522 673 522 c 0,1198,1199
 684 522 684 522 684 535 c 0,1190,1191
392 384 m 1,1200,-1
 392 406 l 1,1201,-1
 381 406 l 2,1202,1203
 368 406 368 406 368 395 c 256,1204,1205
 368 384 368 384 381 384 c 2,1206,-1
 392 384 l 1,1200,-1
280 200 m 1,1207,-1
 277 219 l 2,1208,1209
 276 224 276 224 268 224 c 256,1210,1211
 260 224 260 224 260 215 c 0,1212,1213
 260 210 260 210 263.5 205 c 128,-1,1214
 267 200 267 200 275 200 c 2,1215,-1
 280 200 l 1,1207,-1
716 187 m 0,1216,1217
 716 203 716 203 708 214.5 c 128,-1,1218
 700 226 700 226 691 226 c 0,1219,1220
 680 226 680 226 680 212 c 0,1221,1222
 680 197 680 197 688 185.5 c 128,-1,1223
 696 174 696 174 705 174 c 0,1224,1225
 716 174 716 174 716 187 c 0,1216,1217
393 182 m 2,1226,-1
 384 217 l 2,1227,1228
 382 222 382 222 381.5 222.5 c 128,-1,1229
 381 223 381 223 378 224 c 2,1230,-1
 372 224 l 2,1231,1232
 358 224 358 224 358 207 c 0,1233,1234
 358 195 358 195 365.5 185 c 128,-1,1235
 373 175 373 175 384 175 c 2,1236,-1
 389 175 l 2,1237,1238
 393 175 393 175 393 182 c 2,1226,-1
553 79 m 0,1239,1240
 548 79 548 79 553 70 c 1,1241,1242
 557 79 557 79 553 79 c 0,1239,1240
352 64 m 1,1243,-1
 352 74 l 2,1244,1245
 352 78 352 78 348 78 c 0,1246,1247
 341 78 341 78 341 72 c 0,1248,1249
 341 64 341 64 349 64 c 2,1250,-1
 352 64 l 1,1243,-1
417 64 m 0,1251,1252
 417 80 417 80 405 80 c 256,1253,1254
 393 80 393 80 393 64 c 0,1255,1256
 393 57 393 57 396 52 c 128,-1,1257
 399 47 399 47 405 47 c 0,1258,1259
 412 47 412 47 414.5 52 c 128,-1,1260
 417 57 417 57 417 64 c 0,1251,1252
EndSplineSet
EndChar

StartChar: dotlessi
Encoding: 305 305 201
Width: 286
Flags: W
LayerCount: 2
Fore
SplineSet
204 0 m 1,0,-1
 204 528 l 1,1,-1
 83 528 l 1,2,-1
 83 0 l 1,3,-1
 204 0 l 1,0,-1
EndSplineSet
EndChar

StartChar: circumflex
Encoding: 710 710 202
Width: 500
Flags: W
LayerCount: 2
Fore
SplineSet
249 662 m 1,0,-1
 326 595 l 1,1,-1
 422 595 l 1,2,-1
 306 741 l 1,3,-1
 194 741 l 1,4,-1
 78 595 l 1,5,-1
 172 595 l 1,6,-1
 249 662 l 1,0,-1
EndSplineSet
EndChar

StartChar: tilde
Encoding: 732 732 203
Width: 500
Flags: W
LayerCount: 2
Fore
SplineSet
439 719 m 1,0,-1
 372 740 l 1,1,2
 361 714 361 714 350 702 c 128,-1,3
 339 690 339 690 317 690 c 0,4,5
 303 690 303 690 287 696 c 128,-1,6
 271 702 271 702 252.5 709.5 c 128,-1,7
 234 717 234 717 214 723.5 c 128,-1,8
 194 730 194 730 173 730 c 0,9,10
 127 730 127 730 102.5 698 c 128,-1,11
 78 666 78 666 61 605 c 1,12,-1
 128 585 l 1,13,14
 139 611 139 611 150 623 c 128,-1,15
 161 635 161 635 183 635 c 0,16,17
 196 635 196 635 212.5 628.5 c 128,-1,18
 229 622 229 622 247.5 614.5 c 128,-1,19
 266 607 266 607 286 601 c 128,-1,20
 306 595 306 595 327 595 c 0,21,22
 373 595 373 595 397.5 627 c 128,-1,23
 422 659 422 659 439 719 c 1,0,-1
EndSplineSet
EndChar

StartChar: macron
Encoding: 175 175 204
AltUni2: 0002c9.ffffffff.0
Width: 500
Flags: W
LayerCount: 2
Fore
SplineSet
421 600 m 1,0,-1
 421 689 l 1,1,-1
 79 689 l 1,2,-1
 79 600 l 1,3,-1
 421 600 l 1,0,-1
EndSplineSet
EndChar

StartChar: breve
Encoding: 728 728 205
Width: 500
Flags: W
LayerCount: 2
Fore
SplineSet
421 741 m 1,0,-1
 338 741 l 1,1,2
 329 712 329 712 308.5 695 c 128,-1,3
 288 678 288 678 250 678 c 256,4,5
 212 678 212 678 191.5 695 c 128,-1,6
 171 712 171 712 162 741 c 1,7,-1
 79 741 l 1,8,9
 84 670 84 670 131 631.5 c 128,-1,10
 178 593 178 593 250 593 c 256,11,12
 322 593 322 593 369 631.5 c 128,-1,13
 416 670 416 670 421 741 c 1,0,-1
EndSplineSet
EndChar

StartChar: dotaccent
Encoding: 729 729 206
Width: 500
Flags: W
LayerCount: 2
Fore
SplineSet
313 595 m 1,0,-1
 313 714 l 1,1,-1
 187 714 l 1,2,-1
 187 595 l 1,3,-1
 313 595 l 1,0,-1
EndSplineSet
EndChar

StartChar: ring
Encoding: 730 730 207
Width: 500
Flags: W
LayerCount: 2
Fore
SplineSet
364 703 m 0,0,1
 364 725 364 725 354.5 745 c 128,-1,2
 345 765 345 765 329.5 780 c 128,-1,3
 314 795 314 795 293 804 c 128,-1,4
 272 813 272 813 250 813 c 0,5,6
 227 813 227 813 206.5 804 c 128,-1,7
 186 795 186 795 170.5 780 c 128,-1,8
 155 765 155 765 145.5 745 c 128,-1,9
 136 725 136 725 136 703 c 0,10,11
 136 680 136 680 145.5 660 c 128,-1,12
 155 640 155 640 170.5 625 c 128,-1,13
 186 610 186 610 206.5 601.5 c 128,-1,14
 227 593 227 593 250 593 c 0,15,16
 272 593 272 593 293 601.5 c 128,-1,17
 314 610 314 610 329.5 625 c 128,-1,18
 345 640 345 640 354.5 660 c 128,-1,19
 364 680 364 680 364 703 c 0,0,1
312 703 m 256,20,21
 312 677 312 677 294 659 c 128,-1,22
 276 641 276 641 250 641 c 256,23,24
 224 641 224 641 206 659 c 128,-1,25
 188 677 188 677 188 703 c 256,26,27
 188 729 188 729 206 747 c 128,-1,28
 224 765 224 765 250 765 c 256,29,30
 276 765 276 765 294 747 c 128,-1,31
 312 729 312 729 312 703 c 256,20,21
EndSplineSet
EndChar

StartChar: cedilla
Encoding: 184 184 208
Width: 500
Flags: W
LayerCount: 2
Fore
SplineSet
221 10 m 1,0,-1
 131 -121 l 1,1,-1
 237 -165 l 1,2,-1
 312 10 l 1,3,-1
 221 10 l 1,0,-1
EndSplineSet
EndChar

StartChar: hungarumlaut
Encoding: 733 733 209
Width: 500
Flags: W
LayerCount: 2
Fore
SplineSet
328 595 m 1,0,-1
 450 710 l 1,1,-1
 344 759 l 1,2,-1
 238 595 l 1,3,-1
 328 595 l 1,0,-1
146 595 m 1,4,-1
 266 710 l 1,5,-1
 160 759 l 1,6,-1
 56 595 l 1,7,-1
 146 595 l 1,4,-1
EndSplineSet
EndChar

StartChar: ogonek
Encoding: 731 731 210
Width: 500
Flags: W
LayerCount: 2
Fore
SplineSet
277 10 m 1,0,-1
 191 10 l 1,1,2
 185 -4 185 -4 180.5 -21.5 c 128,-1,3
 176 -39 176 -39 176 -56 c 0,4,5
 176 -112 176 -112 224.5 -141 c 128,-1,6
 273 -170 273 -170 366 -164 c 1,7,-1
 366 -108 l 1,8,9
 315 -105 315 -105 293 -86.5 c 128,-1,10
 271 -68 271 -68 271 -34 c 0,11,12
 271 -13 271 -13 277 10 c 1,0,-1
EndSplineSet
EndChar

StartChar: caron
Encoding: 711 711 211
Width: 500
Flags: W
LayerCount: 2
Fore
SplineSet
251 675 m 1,0,-1
 174 741 l 1,1,-1
 78 741 l 1,2,-1
 194 595 l 1,3,-1
 306 595 l 1,4,-1
 422 741 l 1,5,-1
 328 741 l 1,6,-1
 251 675 l 1,0,-1
EndSplineSet
EndChar

StartChar: lslash
Encoding: 322 322 212
Width: 346
Flags: W
LayerCount: 2
Fore
SplineSet
233 332 m 1,0,-1
 309 355 l 1,1,-1
 309 470 l 1,2,-1
 233 447 l 1,3,-1
 233 730 l 1,4,-1
 113 730 l 1,5,-1
 113 412 l 1,6,-1
 37 389 l 1,7,-1
 37 274 l 1,8,-1
 113 297 l 1,9,-1
 113 0 l 1,10,-1
 233 0 l 1,11,-1
 233 332 l 1,0,-1
EndSplineSet
EndChar

StartChar: Thorn
Encoding: 222 222 217
Width: 673
Flags: W
LayerCount: 2
Fore
SplineSet
632 356 m 0,0,1
 632 409 632 409 613.5 452.5 c 128,-1,2
 595 496 595 496 560.5 526.5 c 128,-1,3
 526 557 526 557 476.5 573.5 c 128,-1,4
 427 590 427 590 366 590 c 2,5,-1
 213 590 l 1,6,-1
 213 700 l 1,7,-1
 90 700 l 1,8,-1
 90 0 l 1,9,-1
 213 0 l 1,10,-1
 213 116 l 1,11,-1
 352 116 l 2,12,13
 410 116 410 116 461 131 c 128,-1,14
 512 146 512 146 550 176 c 128,-1,15
 588 206 588 206 610 251 c 128,-1,16
 632 296 632 296 632 356 c 0,0,1
507 353 m 0,17,18
 507 296 507 296 466.5 261 c 128,-1,19
 426 226 426 226 356 226 c 2,20,-1
 213 226 l 1,21,-1
 213 479 l 1,22,-1
 356 479 l 2,23,24
 425 479 425 479 466 447.5 c 128,-1,25
 507 416 507 416 507 353 c 0,17,18
EndSplineSet
EndChar

StartChar: thorn
Encoding: 254 254 218
Width: 670
Flags: W
LayerCount: 2
Fore
SplineSet
622 264 m 256,0,1
 622 330 622 330 601 381 c 128,-1,2
 580 432 580 432 545.5 467.5 c 128,-1,3
 511 503 511 503 467 521 c 128,-1,4
 423 539 423 539 376 539 c 0,5,6
 312 539 312 539 269 510.5 c 128,-1,7
 226 482 226 482 197 440 c 1,8,-1
 197 730 l 1,9,-1
 76 730 l 1,10,-1
 76 -160 l 1,11,-1
 197 -160 l 1,12,-1
 197 82 l 1,13,14
 225 45 225 45 268 17 c 128,-1,15
 311 -11 311 -11 376 -11 c 0,16,17
 423 -11 423 -11 467.5 7 c 128,-1,18
 512 25 512 25 546.5 60.5 c 128,-1,19
 581 96 581 96 601.5 147 c 128,-1,20
 622 198 622 198 622 264 c 256,0,1
499 264 m 256,21,22
 499 225 499 225 487 193.5 c 128,-1,23
 475 162 475 162 454.5 140 c 128,-1,24
 434 118 434 118 406.5 106 c 128,-1,25
 379 94 379 94 348 94 c 256,26,27
 317 94 317 94 289 106 c 128,-1,28
 261 118 261 118 240 140.5 c 128,-1,29
 219 163 219 163 206.5 194 c 128,-1,30
 194 225 194 225 194 264 c 256,31,32
 194 303 194 303 206.5 334 c 128,-1,33
 219 365 219 365 240 387.5 c 128,-1,34
 261 410 261 410 289 422 c 128,-1,35
 317 434 317 434 348 434 c 256,36,37
 379 434 379 434 406.5 422 c 128,-1,38
 434 410 434 410 454.5 388 c 128,-1,39
 475 366 475 366 487 334.5 c 128,-1,40
 499 303 499 303 499 264 c 256,21,22
EndSplineSet
EndChar

StartChar: Lslash
Encoding: 321 321 221
Width: 649
Flags: W
LayerCount: 2
Fore
SplineSet
611 0 m 1,0,-1
 611 112 l 1,1,-1
 242 112 l 1,2,-1
 242 315 l 1,3,-1
 444 376 l 1,4,-1
 444 490 l 1,5,-1
 242 430 l 1,6,-1
 242 700 l 1,7,-1
 120 700 l 1,8,-1
 120 393 l 1,9,-1
 45 370 l 1,10,-1
 45 256 l 1,11,-1
 120 278 l 1,12,-1
 120 0 l 1,13,-1
 611 0 l 1,0,-1
EndSplineSet
EndChar

StartChar: Omega
Encoding: 937 937 222
Width: 752
Flags: W
LayerCount: 2
Fore
SplineSet
598 524 m 1,0,-1
 598 553 l 2,1,2
 598 633 598 633 668 633 c 0,3,4
 688 633 688 633 704.5 629.5 c 128,-1,5
 721 626 721 626 739 620 c 1,6,-1
 739 722 l 1,7,8
 719 728 719 728 695.5 732 c 128,-1,9
 672 736 672 736 640 736 c 0,10,11
 562 736 562 736 520.5 693.5 c 128,-1,12
 479 651 479 651 479 563 c 2,13,-1
 479 525 l 1,14,-1
 412 525 l 1,15,-1
 412 424 l 1,16,-1
 479 424 l 1,17,-1
 479 0 l 1,18,-1
 600 0 l 1,19,-1
 600 424 l 1,20,-1
 738 424 l 1,21,-1
 738 524 l 1,22,-1
 598 524 l 1,0,-1
222 524 m 1,23,-1
 222 553 l 2,24,25
 222 633 222 633 292 633 c 0,26,27
 312 633 312 633 328.5 629.5 c 128,-1,28
 345 626 345 626 363 620 c 1,29,-1
 363 722 l 1,30,31
 343 728 343 728 320 732 c 128,-1,32
 297 736 297 736 265 736 c 0,33,34
 187 736 187 736 145 693.5 c 128,-1,35
 103 651 103 651 103 563 c 2,36,-1
 103 525 l 1,37,-1
 36 525 l 1,38,-1
 36 424 l 1,39,-1
 103 424 l 1,40,-1
 103 0 l 1,41,-1
 224 0 l 1,42,-1
 224 424 l 1,43,-1
 362 424 l 1,44,-1
 362 524 l 1,45,-1
 222 524 l 1,23,-1
EndSplineSet
EndChar

StartChar: fraction
Encoding: 8725 8725 223
Width: 459
Flags: W
LayerCount: 2
Fore
SplineSet
397 758 m 1,0,-1
 -70 -98 l 1,1,-1
 40 -98 l 1,2,-1
 507 758 l 1,3,-1
 397 758 l 1,0,-1
EndSplineSet
EndChar

StartChar: Eth
Encoding: 208 208 224
Width: 812
Flags: W
LayerCount: 2
Fore
SplineSet
120 297 m 1,0,-1
 120 0 l 1,1,-1
 381 0 l 2,2,3
 463 0 463 0 531.5 27 c 128,-1,4
 600 54 600 54 649.5 101 c 128,-1,5
 699 148 699 148 726 212.5 c 128,-1,6
 753 277 753 277 753 351 c 256,7,8
 753 425 753 425 726 489 c 128,-1,9
 699 553 699 553 649.5 600 c 128,-1,10
 600 647 600 647 531.5 673.5 c 128,-1,11
 463 700 463 700 381 700 c 2,12,-1
 120 700 l 1,13,-1
 120 407 l 1,14,-1
 45 407 l 1,15,-1
 45 297 l 1,16,-1
 120 297 l 1,0,-1
242 407 m 1,17,-1
 242 588 l 1,18,-1
 381 588 l 2,19,20
 436 588 436 588 481 570 c 128,-1,21
 526 552 526 552 557.5 520 c 128,-1,22
 589 488 589 488 606.5 444.5 c 128,-1,23
 624 401 624 401 624 349 c 256,24,25
 624 297 624 297 606.5 253.5 c 128,-1,26
 589 210 589 210 557.5 178.5 c 128,-1,27
 526 147 526 147 481 129.5 c 128,-1,28
 436 112 436 112 381 112 c 2,29,-1
 242 112 l 1,30,-1
 242 297 l 1,31,-1
 418 297 l 1,32,-1
 418 407 l 1,33,-1
 242 407 l 1,17,-1
EndSplineSet
EndChar

StartChar: eth
Encoding: 240 240 225
Width: 642
Flags: W
LayerCount: 2
Fore
SplineSet
313 588 m 1,0,-1
 418 445 l 1,1,2
 386 465 386 465 354 475.5 c 128,-1,3
 322 486 322 486 279 486 c 0,4,5
 230 486 230 486 187.5 469 c 128,-1,6
 145 452 145 452 114 420.5 c 128,-1,7
 83 389 83 389 65 345.5 c 128,-1,8
 47 302 47 302 47 249 c 0,9,10
 47 195 47 195 67 147.5 c 128,-1,11
 87 100 87 100 123 64.5 c 128,-1,12
 159 29 159 29 208.5 8.5 c 128,-1,13
 258 -12 258 -12 316 -12 c 0,14,15
 381 -12 381 -12 432.5 10 c 128,-1,16
 484 32 484 32 519.5 69 c 128,-1,17
 555 106 555 106 574 155 c 128,-1,18
 593 204 593 204 593 258 c 0,19,20
 593 292 593 292 587.5 322 c 128,-1,21
 582 352 582 352 571 381.5 c 128,-1,22
 560 411 560 411 543.5 440.5 c 128,-1,23
 527 470 527 470 505 502 c 2,24,-1
 416 631 l 1,25,-1
 518 675 l 1,26,-1
 471 738 l 1,27,-1
 372 695 l 1,28,-1
 348 730 l 1,29,-1
 209 730 l 1,30,-1
 267 651 l 1,31,-1
 146 598 l 1,32,-1
 194 535 l 1,33,-1
 313 588 l 1,0,-1
474 246 m 0,34,35
 474 214 474 214 463 186 c 128,-1,36
 452 158 452 158 432 137 c 128,-1,37
 412 116 412 116 384 103.5 c 128,-1,38
 356 91 356 91 321 91 c 0,39,40
 287 91 287 91 258.5 103.5 c 128,-1,41
 230 116 230 116 209.5 137.5 c 128,-1,42
 189 159 189 159 177.5 187 c 128,-1,43
 166 215 166 215 166 246 c 0,44,45
 166 278 166 278 176.5 305.5 c 128,-1,46
 187 333 187 333 207 353.5 c 128,-1,47
 227 374 227 374 254.5 385.5 c 128,-1,48
 282 397 282 397 317 397 c 256,49,50
 352 397 352 397 381 385 c 128,-1,51
 410 373 410 373 430.5 353 c 128,-1,52
 451 333 451 333 462.5 305 c 128,-1,53
 474 277 474 277 474 246 c 0,34,35
EndSplineSet
EndChar
